{
.appVersion = "939";
classes = (
{
automatic = 1;

glyphs = (
{
glyphname = A;
layers = (
{
anchors = (
{
name = bottom;
position = "{244, 0}";
},
{
name = ogonek;
position = "{471, 10}";
},
{
name = top;
position = "{369, 650}";
}
);
layerId = "F05DF1C3-6E5D-4CAE-86D8-BB1A1E5E50BF";
paths = (
{
closed = 1;
nodes = (
"333 650 LINE",
"23 0 LINE",
"76 0 LINE",
"172 200 LINE",
"427 200 LINE",
"467 0 LINE",
"546 0 LINE",
"422 650 LINE"
);
},
{
closed = 1;
nodes = (
"356 592 LINE",
"419 241 LINE",
"191 241 LINE"
);
}
);
width = 568;
},
{
anchors = (
{
name = bottom;
position = "{264, 0}";
},
{
name = ogonek;
position = "{507, 10}";
},
{
name = top;
position = "{394, 650}";
}
);
layerId = "640DAD6F-C00E-41F4-8D6C-450924326D1A";
paths = (
{
closed = 1;
nodes = (
"326 650 LINE",
"19 0 LINE",
"103 0 LINE",
"188 182 LINE",
"414 182 LINE",
"444 0 LINE",
"590 0 LINE",
"479 650 LINE"
);
},
{
closed = 1;
nodes = (
"357 551 LINE",
"404 245 LINE",
"216 245 LINE",
"356 551 LINE"
);
}
);
width = 608;
}
);
note = A;
unicode = 0041;
},
{
color = 9;
glyphname = Aacute;
layers = (
{
layerId = "F05DF1C3-6E5D-4CAE-86D8-BB1A1E5E50BF";
paths = (
{
closed = 1;
nodes = (
"333 650 LINE",
"23 0 LINE",
"76 0 LINE",
"172 200 LINE",
"427 200 LINE",
"467 0 LINE",
"546 0 LINE",
"422 650 LINE"
);
},
{
closed = 1;
nodes = (
"356 592 LINE",
"419 241 LINE",
"191 241 LINE"
);
},
{
closed = 1;
nodes = (
"442 856 LINE",
"346 711 LINE",
"383 706 LINE",
"503 841 LINE"
);
}
);
width = 568;
},
{
layerId = "640DAD6F-C00E-41F4-8D6C-450924326D1A";
paths = (
{
closed = 1;
nodes = (
"326 650 LINE",
"19 0 LINE",
"103 0 LINE",
"188 182 LINE",
"414 182 LINE",
"444 0 LINE",
"590 0 LINE",
"479 650 LINE"
);
},
{
closed = 1;
nodes = (
"357 551 LINE",
"404 245 LINE",
"216 245 LINE",
"356 551 LINE"
);
},
{
closed = 1;
nodes = (
"442 865 LINE",
"351 713 LINE",
"407 704 LINE",
"546 834 LINE"
);
}
);
width = 608;
}
);
note = Aacute;
unicode = 00C1;
},
{
color = 9;
glyphname = Abreve;
layers = (
{
layerId = "F05DF1C3-6E5D-4CAE-86D8-BB1A1E5E50BF";
paths = (
{
closed = 1;
nodes = (
"333 650 LINE",
"23 0 LINE",
"76 0 LINE",
"172 200 LINE",
"427 200 LINE",
"467 0 LINE",
"546 0 LINE",
"422 650 LINE"
);
},
{
closed = 1;
nodes = (
"356 592 LINE",
"419 241 LINE",
"191 241 LINE"
);
},
{
closed = 1;
nodes = (
"304 755 OFFCURVE",
"300 814 OFFCURVE",
"300 814 CURVE",
"300 816 LINE",
"254 810 LINE",
"254 810 OFFCURVE",
"251 711 OFFCURVE",
"378 711 CURVE SMOOTH",
"505 711 OFFCURVE",
"531 810 OFFCURVE",
"531 810 CURVE",
"486 816 LINE",
"486 814 LINE",
"486 814 OFFCURVE",
"465 755 OFFCURVE",
"384 755 CURVE SMOOTH"
);
}
);
width = 568;
},
{
layerId = "640DAD6F-C00E-41F4-8D6C-450924326D1A";
paths = (
{
closed = 1;
nodes = (
"326 650 LINE",
"19 0 LINE",
"103 0 LINE",
"188 182 LINE",
"414 182 LINE",
"444 0 LINE",
"590 0 LINE",
"479 650 LINE"
);
},
{
closed = 1;
nodes = (
"357 551 LINE",
"404 245 LINE",
"216 245 LINE",
"356 551 LINE"
);
},
{
closed = 1;
nodes = (
"331 771 OFFCURVE",
"335 826 OFFCURVE",
"335 826 CURVE",
"335 830 LINE",
"268 821 LINE",
"268 821 OFFCURVE",
"267 814 OFFCURVE",
"267 805 CURVE SMOOTH",
"267 772 OFFCURVE",
"280 698 OFFCURVE",
"400 698 CURVE SMOOTH",
"555 698 OFFCURVE",
"568 821 OFFCURVE",
"568 821 CURVE",
"503 830 LINE",
"502 826 LINE",
"502 826 OFFCURVE",
"491 771 OFFCURVE",
"411 771 CURVE SMOOTH"
);
}
);
width = 608;
}
);
note = Abreve;
unicode = 0102;
},
{
color = 9;
glyphname = Acircumflex;
layers = (
{
layerId = "F05DF1C3-6E5D-4CAE-86D8-BB1A1E5E50BF";
paths = (
{
closed = 1;
nodes = (
"333 650 LINE",
"23 0 LINE",
"76 0 LINE",
"172 200 LINE",
"427 200 LINE",
"467 0 LINE",
"546 0 LINE",
"422 650 LINE"
);
},
{
closed = 1;
nodes = (
"356 592 LINE",
"419 241 LINE",
"191 241 LINE"
);
},
{
closed = 1;
nodes = (
"417 878 LINE",
"377 878 LINE",
"252 764 LINE",
"267 732 LINE",
"390 829 LINE",
"486 732 LINE",
"509 764 LINE"
);
}
);
width = 568;
},
{
layerId = "640DAD6F-C00E-41F4-8D6C-450924326D1A";
paths = (
{
closed = 1;
nodes = (
"326 650 LINE",
"19 0 LINE",
"103 0 LINE",
"188 182 LINE",
"414 182 LINE",
"444 0 LINE",
"590 0 LINE",
"479 650 LINE"
);
},
{
closed = 1;
nodes = (
"357 551 LINE",
"404 245 LINE",
"216 245 LINE",
"356 551 LINE"
);
},
{
closed = 1;
nodes = (
"454 888 LINE",
"384 888 LINE",
"269 766 LINE",
"291 721 LINE",
"408 806 LINE",
"500 721 LINE",
"534 766 LINE"
);
}
);
width = 608;
}
);
note = Acircumflex;
unicode = 00C2;
},
{
glyphname = Adieresis;
layers = (
{
layerId = "F05DF1C3-6E5D-4CAE-86D8-BB1A1E5E50BF";
paths = (
{
closed = 1;
nodes = (
"333 650 LINE",
"23 0 LINE",
"76 0 LINE",
"172 200 LINE",
"427 200 LINE",
"467 0 LINE",
"546 0 LINE",
"422 650 LINE"
);
},
{
closed = 1;
nodes = (
"356 592 LINE",
"419 241 LINE",
"191 241 LINE"
);
},
{
closed = 1;
nodes = (
"431 799 OFFCURVE",
"425 786 OFFCURVE",
"425 773 CURVE SMOOTH",
"425 764 OFFCURVE",
"428 756 OFFCURVE",
"433 750 CURVE",
"439 744 OFFCURVE",
"448 740 OFFCURVE",
"457 740 CURVE SMOOTH",
"466 740 OFFCURVE",
"477 744 OFFCURVE",
"485 750 CURVE",
"495 760 OFFCURVE",
"501 773 OFFCURVE",
"501 786 CURVE SMOOTH",
"501 795 OFFCURVE",
"498 803 OFFCURVE",
"493 809 CURVE",
"487 815 OFFCURVE",
"477 819 OFFCURVE",
"468 819 CURVE SMOOTH",
"459 819 OFFCURVE",
"449 815 OFFCURVE",
"441 809 CURVE"
);
},
{
closed = 1;
nodes = (
"277 799 OFFCURVE",
"271 786 OFFCURVE",
"271 773 CURVE SMOOTH",
"271 764 OFFCURVE",
"274 756 OFFCURVE",
"279 750 CURVE",
"285 744 OFFCURVE",
"295 740 OFFCURVE",
"304 740 CURVE SMOOTH",
"313 740 OFFCURVE",
"323 744 OFFCURVE",
"331 750 CURVE",
"341 760 OFFCURVE",
"347 773 OFFCURVE",
"347 786 CURVE SMOOTH",
"347 794 OFFCURVE",
"345 803 OFFCURVE",
"339 809 CURVE SMOOTH",
"333 815 OFFCURVE",
"324 819 OFFCURVE",
"314 819 CURVE SMOOTH",
"304 819 OFFCURVE",
"295 815 OFFCURVE",
"287 809 CURVE"
);
}
);
width = 568;
},
{
layerId = "640DAD6F-C00E-41F4-8D6C-450924326D1A";
paths = (
{
closed = 1;
nodes = (
"326 650 LINE",
"19 0 LINE",
"103 0 LINE",
"188 182 LINE",
"414 182 LINE",
"444 0 LINE",
"590 0 LINE",
"479 650 LINE"
);
},
{
closed = 1;
nodes = (
"357 551 LINE",
"404 245 LINE",
"216 245 LINE",
"356 551 LINE"
);
},
{
closed = 1;
nodes = (
"443 822 OFFCURVE",
"433 798 OFFCURVE",
"433 776 CURVE SMOOTH",
"433 761 OFFCURVE",
"438 746 OFFCURVE",
"447 735 CURVE SMOOTH",
"457 723 OFFCURVE",
"472 717 OFFCURVE",
"489 717 CURVE SMOOTH",
"505 717 OFFCURVE",
"523 723 OFFCURVE",
"538 735 CURVE",
"557 752 OFFCURVE",
"567 775 OFFCURVE",
"567 798 CURVE SMOOTH",
"567 813 OFFCURVE",
"562 827 OFFCURVE",
"553 839 CURVE",
"541 850 OFFCURVE",
"526 856 OFFCURVE",
"509 856 CURVE SMOOTH",
"492 856 OFFCURVE",
"475 850 OFFCURVE",
"461 839 CURVE"
);
},
{
closed = 1;
nodes = (
"257 822 OFFCURVE",
"247 798 OFFCURVE",
"247 776 CURVE SMOOTH",
"247 761 OFFCURVE",
"252 746 OFFCURVE",
"261 735 CURVE",
"272 723 OFFCURVE",
"288 717 OFFCURVE",
"304 717 CURVE SMOOTH",
"320 717 OFFCURVE",
"337 723 OFFCURVE",
"352 735 CURVE",
"371 752 OFFCURVE",
"381 775 OFFCURVE",
"381 798 CURVE SMOOTH",
"381 813 OFFCURVE",
"376 827 OFFCURVE",
"367 839 CURVE",
"356 850 OFFCURVE",
"341 856 OFFCURVE",
"324 856 CURVE SMOOTH",
"307 856 OFFCURVE",
"289 850 OFFCURVE",
"275 839 CURVE"
);
}
);
width = 608;
}
);
note = Adieresis;
unicode = 00C4;
},
{
color = 9;
glyphname = Agrave;
layers = (
{
layerId = "F05DF1C3-6E5D-4CAE-86D8-BB1A1E5E50BF";
paths = (
{
closed = 1;
nodes = (
"333 650 LINE",
"23 0 LINE",
"76 0 LINE",
"172 200 LINE",
"427 200 LINE",
"467 0 LINE",
"546 0 LINE",
"422 650 LINE"
);
},
{
closed = 1;
nodes = (
"356 592 LINE",
"419 241 LINE",
"191 241 LINE"
);
},
{
closed = 1;
nodes = (
"285 843 LINE",
"370 708 LINE",
"412 716 LINE",
"349 859 LINE"
);
}
);
width = 568;
},
{
layerId = "640DAD6F-C00E-41F4-8D6C-450924326D1A";
paths = (
{
closed = 1;
nodes = (
"326 650 LINE",
"19 0 LINE",
"103 0 LINE",
"188 182 LINE",
"414 182 LINE",
"444 0 LINE",
"590 0 LINE",
"479 650 LINE"
);
},
{
closed = 1;
nodes = (
"357 551 LINE",
"404 245 LINE",
"216 245 LINE",
"356 551 LINE"
);
},
{
closed = 1;
nodes = (
"275 838 LINE",
"386 709 LINE",
"450 726 LINE",
"386 873 LINE"
);
}
);
width = 608;
}
);
note = Agrave;
unicode = 00C0;
},
{
glyphname = Amacron;
layers = (
{
layerId = "F05DF1C3-6E5D-4CAE-86D8-BB1A1E5E50BF";
paths = (
{
closed = 1;
nodes = (
"333 650 LINE",
"23 0 LINE",
"76 0 LINE",
"172 200 LINE",
"427 200 LINE",
"467 0 LINE",
"546 0 LINE",
"422 650 LINE"
);
},
{
closed = 1;
nodes = (
"356 592 LINE",
"419 241 LINE",
"191 241 LINE"
);
},
{
closed = 1;
nodes = (
"483 807 LINE",
"298 807 LINE",
"293 771 LINE",
"478 771 LINE"
);
}
);
width = 568;
},
{
layerId = "640DAD6F-C00E-41F4-8D6C-450924326D1A";
paths = (
{
closed = 1;
nodes = (
"326 650 LINE",
"19 0 LINE",
"103 0 LINE",
"188 182 LINE",
"414 182 LINE",
"444 0 LINE",
"590 0 LINE",
"479 650 LINE"
);
},
{
closed = 1;
nodes = (
"357 551 LINE",
"404 245 LINE",
"216 245 LINE",
"356 551 LINE"
);
},
{
closed = 1;
nodes = (
"520 817 LINE",
"306 817 LINE",
"298 759 LINE",
"513 759 LINE"
);
}
);
width = 608;
}
);
note = Amacron;
unicode = 0100;
},
{
glyphname = Aogonek;
layers = (
{
layerId = "F05DF1C3-6E5D-4CAE-86D8-BB1A1E5E50BF";
paths = (
{
closed = 1;
nodes = (
"333 650 LINE",
"23 0 LINE",
"76 0 LINE",
"172 200 LINE",
"427 200 LINE",
"467 0 LINE",
"423 -27 OFFCURVE",
"357 -81 OFFCURVE",
"357 -156 CURVE SMOOTH",
"357 -235 OFFCURVE",
"429 -250 OFFCURVE",
"498 -250 CURVE",
"503 -218 LINE",
"455 -218 OFFCURVE",
"407 -207 OFFCURVE",
"407 -152 CURVE SMOOTH",
"407 -63 OFFCURVE",
"486 -12 OFFCURVE",
"508 0 CURVE",
"546 0 LINE",
"422 650 LINE"
);
},
{
closed = 1;
nodes = (
"356 592 LINE",
"419 241 LINE",
"191 241 LINE"
);
}
);
width = 568;
},
{
layerId = "640DAD6F-C00E-41F4-8D6C-450924326D1A";
paths = (
{
closed = 1;
nodes = (
"326 650 LINE",
"19 0 LINE",
"103 0 LINE",
"188 182 LINE",
"414 182 LINE",
"443 2 LINE",
"392 -28 OFFCURVE",
"331 -81 OFFCURVE",
"331 -152 CURVE SMOOTH",
"331 -234 OFFCURVE",
"401 -250 OFFCURVE",
"481 -250 CURVE",
"488 -201 LINE",
"446 -201 OFFCURVE",
"419 -190 OFFCURVE",
"419 -148 CURVE SMOOTH",
"419 -56 OFFCURVE",
"480 -14 OFFCURVE",
"508 0 CURVE",
"590 0 LINE",
"479 650 LINE"
);
},
{
closed = 1;
nodes = (
"357 551 LINE",
"404 245 LINE",
"216 245 LINE",
"356 551 LINE"
);
}
);
width = 608;
}
);
note = Aogonek;
unicode = 0104;
},
{
glyphname = Aring;
layers = (
{
layerId = "F05DF1C3-6E5D-4CAE-86D8-BB1A1E5E50BF";
paths = (
{
closed = 1;
nodes = (
"333 650 LINE",
"23 0 LINE",
"76 0 LINE",
"172 200 LINE",
"427 200 LINE",
"467 0 LINE",
"546 0 LINE",
"422 650 LINE"
);
},
{
closed = 1;
nodes = (
"356 592 LINE",
"419 241 LINE",
"191 241 LINE"
);
},
{
closed = 1;
nodes = (
"473 845 OFFCURVE",
"440 873 OFFCURVE",
"396 873 CURVE SMOOTH",
"340 873 OFFCURVE",
"293 834 OFFCURVE",
"293 764 CURVE SMOOTH",
"293 712 OFFCURVE",
"325 686 OFFCURVE",
"371 686 CURVE SMOOTH",
"428 686 OFFCURVE",
"473 724 OFFCURVE",
"473 793 CURVE SMOOTH"
);
},
{
closed = 1;
nodes = (
"445 737 OFFCURVE",
"414 712 OFFCURVE",
"375 712 CURVE SMOOTH",
"345 712 OFFCURVE",
"322 729 OFFCURVE",
"322 767 CURVE SMOOTH",
"322 822 OFFCURVE",
"355 846 OFFCURVE",
"393 846 CURVE SMOOTH",
"422 846 OFFCURVE",
"445 829 OFFCURVE",
"445 791 CURVE SMOOTH"
);
}
);
width = 568;
},
{
layerId = "640DAD6F-C00E-41F4-8D6C-450924326D1A";
paths = (
{
closed = 1;
nodes = (
"326 650 LINE",
"19 0 LINE",
"103 0 LINE",
"188 182 LINE",
"414 182 LINE",
"444 0 LINE",
"590 0 LINE",
"479 650 LINE"
);
},
{
closed = 1;
nodes = (
"357 551 LINE",
"404 245 LINE",
"216 245 LINE",
"356 551 LINE"
);
},
{
closed = 1;
nodes = (
"514 865 OFFCURVE",
"474 898 OFFCURVE",
"421 898 CURVE SMOOTH",
"354 898 OFFCURVE",
"302 852 OFFCURVE",
"302 774 CURVE SMOOTH",
"302 717 OFFCURVE",
"338 683 OFFCURVE",
"395 683 CURVE SMOOTH",
"464 683 OFFCURVE",
"514 731 OFFCURVE",
"514 807 CURVE SMOOTH"
);
},
{
closed = 1;
nodes = (
"469 752 OFFCURVE",
"441 726 OFFCURVE",
"401 726 CURVE SMOOTH",
"371 726 OFFCURVE",
"348 744 OFFCURVE",
"348 780 CURVE SMOOTH",
"348 832 OFFCURVE",
"379 856 OFFCURVE",
"416 856 CURVE SMOOTH",
"445 856 OFFCURVE",
"469 839 OFFCURVE",
"469 803 CURVE SMOOTH"
);
}
);
width = 608;
}
);
note = Aring;
unicode = 00C5;
},
{
color = 9;
glyphname = Atilde;
layers = (
{
layerId = "F05DF1C3-6E5D-4CAE-86D8-BB1A1E5E50BF";
paths = (
{
closed = 1;
nodes = (
"333 650 LINE",
"23 0 LINE",
"76 0 LINE",
"172 200 LINE",
"427 200 LINE",
"467 0 LINE",
"546 0 LINE",
"422 650 LINE"
);
},
{
closed = 1;
nodes = (
"356 592 LINE",
"419 241 LINE",
"191 241 LINE"
);
},
{
closed = 1;
nodes = (
"532 806 LINE",
"532 806 OFFCURVE",
"513 779 OFFCURVE",
"477 779 CURVE SMOOTH",
"426 779 OFFCURVE",
"394 825 OFFCURVE",
"331 825 CURVE SMOOTH",
"266 825 OFFCURVE",
"226 762 OFFCURVE",
"226 762 CURVE",
"246 737 LINE",
"246 737 OFFCURVE",
"272 776 OFFCURVE",
"311 776 CURVE SMOOTH",
"365 776 OFFCURVE",
"400 730 OFFCURVE",
"459 730 CURVE SMOOTH",
"520 730 OFFCURVE",
"551 781 OFFCURVE",
"551 781 CURVE"
);
}
);
width = 568;
},
{
layerId = "640DAD6F-C00E-41F4-8D6C-450924326D1A";
paths = (
{
closed = 1;
nodes = (
"326 650 LINE",
"19 0 LINE",
"103 0 LINE",
"188 182 LINE",
"414 182 LINE",
"444 0 LINE",
"590 0 LINE",
"479 650 LINE"
);
},
{
closed = 1;
nodes = (
"357 551 LINE",
"404 245 LINE",
"216 245 LINE",
"356 551 LINE"
);
},
{
closed = 1;
nodes = (
"564 840 LINE",
"564 840 OFFCURVE",
"546 808 OFFCURVE",
"510 808 CURVE SMOOTH",
"458 808 OFFCURVE",
"437 855 OFFCURVE",
"364 855 CURVE SMOOTH",
"278 855 OFFCURVE",
"229 765 OFFCURVE",
"229 765 CURVE",
"260 729 LINE",
"260 729 OFFCURVE",
"287 774 OFFCURVE",
"323 774 CURVE SMOOTH",
"380 774 OFFCURVE",
"408 726 OFFCURVE",
"472 726 CURVE SMOOTH",
"559 726 OFFCURVE",
"595 805 OFFCURVE",
"595 805 CURVE"
);
}
);
width = 608;
}
);
note = Atilde;
unicode = 00C3;
},
{
glyphname = AE;
layers = (
{
layerId = "F05DF1C3-6E5D-4CAE-86D8-BB1A1E5E50BF";
paths = (
{
closed = 1;
nodes = (
"450 650 LINE",
"-12 0 LINE",
"45 0 LINE",
"189 205 LINE",
"409 205 LINE",
"381 0 LINE",
"753 0 LINE",
"760 48 LINE",
"464 48 LINE",
"500 306 LINE",
"751 306 LINE",
"758 352 LINE",
"506 352 LINE",
"541 602 LINE",
"817 602 LINE",
"823 650 LINE"
);
},
{
closed = 1;
nodes = (
"218 246 LINE",
"461 602 LINE",
"465 602 LINE",
"415 246 LINE"
);
}
);
width = 789;
},
{
layerId = "640DAD6F-C00E-41F4-8D6C-450924326D1A";
paths = (
{
closed = 1;
nodes = (
"439 650 LINE",
"-14 0 LINE",
"73 0 LINE",
"201 188 LINE",
"411 188 LINE",
"385 0 LINE",
"788 0 LINE",
"799 72 LINE",
"533 72 LINE",
"564 294 LINE",
"786 294 LINE",
"796 364 LINE",
"574 364 LINE",
"604 578 LINE",
"856 578 LINE",
"865 650 LINE"
);
},
{
closed = 1;
nodes = (
"244 252 LINE",
"459 578 LINE",
"466 578 LINE",
"420 252 LINE"
);
}
);
width = 822;
}
);
note = AE;
unicode = 00C6;
},
{
glyphname = B;
layers = (
{
layerId = "F05DF1C3-6E5D-4CAE-86D8-BB1A1E5E50BF";
paths = (
{
closed = 1;
nodes = (
"94 0 LINE",
"259 0 LINE SMOOTH",
"439 0 OFFCURVE",
"522 84 OFFCURVE",
"522 208 CURVE SMOOTH",
"522 278 OFFCURVE",
"480 323 OFFCURVE",
"417 341 CURVE",
"472 367 OFFCURVE",
"533 419 OFFCURVE",
"533 510 CURVE SMOOTH",
"533 592 OFFCURVE",
"472 650 OFFCURVE",
"349 650 CURVE SMOOTH",
"185 650 LINE"
);
},
{
closed = 1;
nodes = (
"336 315 LINE SMOOTH",
"401 315 OFFCURVE",
"447 282 OFFCURVE",
"447 211 CURVE SMOOTH",
"447 106 OFFCURVE",
"386 44 OFFCURVE",
"263 44 CURVE SMOOTH",
"175 44 LINE",
"213 315 LINE"
);
},
{
closed = 1;
nodes = (
"219 356 LINE",
"254 606 LINE",
"341 606 LINE SMOOTH",
"411 606 OFFCURVE",
"460 574 OFFCURVE",
"460 504 CURVE SMOOTH",
"460 394 OFFCURVE",
"377 356 OFFCURVE",
"338 356 CURVE SMOOTH"
);
}
);
width = 542;
},
{
layerId = "640DAD6F-C00E-41F4-8D6C-450924326D1A";
paths = (
{
closed = 1;
nodes = (
"77 0 LINE",
"280 0 LINE SMOOTH",
"467 0 OFFCURVE",
"561 94 OFFCURVE",
"561 210 CURVE SMOOTH",
"561 277 OFFCURVE",
"517 319 OFFCURVE",
"455 339 CURVE",
"514 367 OFFCURVE",
"574 418 OFFCURVE",
"574 503 CURVE SMOOTH",
"574 581 OFFCURVE",
"514 650 OFFCURVE",
"366 650 CURVE SMOOTH",
"168 650 LINE"
);
},
{
closed = 1;
nodes = (
"347 301 LINE SMOOTH",
"391 301 OFFCURVE",
"423 279 OFFCURVE",
"423 219 CURVE SMOOTH",
"423 127 OFFCURVE",
"367 65 OFFCURVE",
"286 65 CURVE SMOOTH",
"224 65 LINE",
"257 301 LINE"
);
},
{
closed = 1;
nodes = (
"266 361 LINE",
"298 585 LINE",
"354 585 LINE SMOOTH",
"402 585 OFFCURVE",
"439 560 OFFCURVE",
"439 497 CURVE SMOOTH",
"439 408 OFFCURVE",
"383 361 OFFCURVE",
"348 361 CURVE SMOOTH"
);
}
);
width = 569;
}
);
note = B;
unicode = 0042;
},
{
glyphname = C;
layers = (
{
layerId = "F05DF1C3-6E5D-4CAE-86D8-BB1A1E5E50BF";
paths = (
{
closed = 1;
nodes = (
"602 602 LINE",
"602 602 OFFCURVE",
"524 659 OFFCURVE",
"420 659 CURVE SMOOTH",
"226 659 OFFCURVE",
"87 495 OFFCURVE",
"87 258 CURVE SMOOTH",
"87 91 OFFCURVE",
"184 -10 OFFCURVE",
"341 -10 CURVE SMOOTH",
"495 -10 OFFCURVE",
"565 105 OFFCURVE",
"565 105 CURVE",
"542 137 LINE",
"542 137 OFFCURVE",
"477 40 OFFCURVE",
"357 40 CURVE SMOOTH",
"245 40 OFFCURVE",
"167 113 OFFCURVE",
"167 256 CURVE SMOOTH",
"167 489 OFFCURVE",
"282 609 OFFCURVE",
"421 609 CURVE SMOOTH",
"509 609 OFFCURVE",
"588 555 OFFCURVE",
"588 555 CURVE"
);
}
);
width = 570;
},
{
layerId = "640DAD6F-C00E-41F4-8D6C-450924326D1A";
paths = (
{
closed = 1;
nodes = (
"614 605 LINE",
"614 605 OFFCURVE",
"528 660 OFFCURVE",
"424 660 CURVE SMOOTH",
"211 660 OFFCURVE",
"76 490 OFFCURVE",
"76 256 CURVE SMOOTH",
"76 91 OFFCURVE",
"171 -11 OFFCURVE",
"345 -11 CURVE SMOOTH",
"512 -11 OFFCURVE",
"581 105 OFFCURVE",
"581 105 CURVE",
"545 153 LINE",
"545 153 OFFCURVE",
"482 64 OFFCURVE",
"375 64 CURVE SMOOTH",
"284 64 OFFCURVE",
"225 116 OFFCURVE",
"225 242 CURVE SMOOTH",
"225 495 OFFCURVE",
"317 585 OFFCURVE",
"431 585 CURVE SMOOTH",
"505 585 OFFCURVE",
"593 532 OFFCURVE",
"593 532 CURVE"
);
}
);
width = 576;
}
);
note = C;
unicode = 0043;
},
{
glyphname = Cacute;
layers = (
{
layerId = "F05DF1C3-6E5D-4CAE-86D8-BB1A1E5E50BF";
paths = (
{
closed = 1;
nodes = (
"602 602 LINE",
"602 602 OFFCURVE",
"524 659 OFFCURVE",
"420 659 CURVE SMOOTH",
"226 659 OFFCURVE",
"87 495 OFFCURVE",
"87 258 CURVE SMOOTH",
"87 91 OFFCURVE",
"184 -10 OFFCURVE",
"341 -10 CURVE SMOOTH",
"495 -10 OFFCURVE",
"565 105 OFFCURVE",
"565 105 CURVE",
"542 137 LINE",
"542 137 OFFCURVE",
"477 40 OFFCURVE",
"357 40 CURVE SMOOTH",
"245 40 OFFCURVE",
"167 113 OFFCURVE",
"167 256 CURVE SMOOTH",
"167 489 OFFCURVE",
"282 609 OFFCURVE",
"421 609 CURVE SMOOTH",
"509 609 OFFCURVE",
"588 555 OFFCURVE",
"588 555 CURVE"
);
},
{
closed = 1;
nodes = (
"482 856 LINE",
"386 711 LINE",
"423 706 LINE",
"543 841 LINE"
);
}
);
width = 570;
},
{
layerId = "640DAD6F-C00E-41F4-8D6C-450924326D1A";
paths = (
{
closed = 1;
nodes = (
"614 605 LINE",
"614 605 OFFCURVE",
"528 660 OFFCURVE",
"424 660 CURVE SMOOTH",
"211 660 OFFCURVE",
"76 490 OFFCURVE",
"76 256 CURVE SMOOTH",
"76 91 OFFCURVE",
"171 -11 OFFCURVE",
"345 -11 CURVE SMOOTH",
"512 -11 OFFCURVE",
"581 105 OFFCURVE",
"581 105 CURVE",
"545 153 LINE",
"545 153 OFFCURVE",
"482 64 OFFCURVE",
"375 64 CURVE SMOOTH",
"284 64 OFFCURVE",
"225 116 OFFCURVE",
"225 242 CURVE SMOOTH",
"225 495 OFFCURVE",
"317 585 OFFCURVE",
"431 585 CURVE SMOOTH",
"505 585 OFFCURVE",
"593 532 OFFCURVE",
"593 532 CURVE"
);
},
{
closed = 1;
nodes = (
"458 865 LINE",
"367 713 LINE",
"423 704 LINE",
"562 834 LINE"
);
}
);
width = 576;
}
);
note = Cacute;
unicode = 0106;
},
{
glyphname = Ccaron;
layers = (
{
layerId = "F05DF1C3-6E5D-4CAE-86D8-BB1A1E5E50BF";
paths = (
{
closed = 1;
nodes = (
"602 602 LINE",
"602 602 OFFCURVE",
"524 659 OFFCURVE",
"420 659 CURVE SMOOTH",
"226 659 OFFCURVE",
"87 495 OFFCURVE",
"87 258 CURVE SMOOTH",
"87 91 OFFCURVE",
"184 -10 OFFCURVE",
"341 -10 CURVE SMOOTH",
"495 -10 OFFCURVE",
"565 105 OFFCURVE",
"565 105 CURVE",
"542 137 LINE",
"542 137 OFFCURVE",
"477 40 OFFCURVE",
"357 40 CURVE SMOOTH",
"245 40 OFFCURVE",
"167 113 OFFCURVE",
"167 256 CURVE SMOOTH",
"167 489 OFFCURVE",
"282 609 OFFCURVE",
"421 609 CURVE SMOOTH",
"509 609 OFFCURVE",
"588 555 OFFCURVE",
"588 555 CURVE"
);
},
{
closed = 1;
nodes = (
"397 708 LINE",
"437 708 LINE",
"573 829 LINE",
"548 855 LINE",
"424 754 LINE",
"328 855 LINE",
"297 831 LINE"
);
}
);
width = 570;
},
{
layerId = "640DAD6F-C00E-41F4-8D6C-450924326D1A";
paths = (
{
closed = 1;
nodes = (
"614 605 LINE",
"614 605 OFFCURVE",
"528 660 OFFCURVE",
"424 660 CURVE SMOOTH",
"211 660 OFFCURVE",
"76 490 OFFCURVE",
"76 256 CURVE SMOOTH",
"76 91 OFFCURVE",
"171 -11 OFFCURVE",
"345 -11 CURVE SMOOTH",
"512 -11 OFFCURVE",
"581 105 OFFCURVE",
"581 105 CURVE",
"545 153 LINE",
"545 153 OFFCURVE",
"482 64 OFFCURVE",
"375 64 CURVE SMOOTH",
"284 64 OFFCURVE",
"225 116 OFFCURVE",
"225 242 CURVE SMOOTH",
"225 495 OFFCURVE",
"317 585 OFFCURVE",
"431 585 CURVE SMOOTH",
"505 585 OFFCURVE",
"593 532 OFFCURVE",
"593 532 CURVE"
);
},
{
closed = 1;
nodes = (
"382 707 LINE",
"452 707 LINE",
"586 841 LINE",
"549 880 LINE",
"428 787 LINE",
"333 880 LINE",
"286 845 LINE"
);
}
);
width = 576;
}
);
note = Ccaron;
unicode = 010C;
},
{
glyphname = Ccedilla;
layers = (
{
layerId = "F05DF1C3-6E5D-4CAE-86D8-BB1A1E5E50BF";
paths = (
{
closed = 1;
nodes = (
"602 602 LINE",
"602 602 OFFCURVE",
"524 659 OFFCURVE",
"420 659 CURVE SMOOTH",
"226 659 OFFCURVE",
"87 495 OFFCURVE",
"87 258 CURVE SMOOTH",
"87 103 OFFCURVE",
"170 5 OFFCURVE",
"307 -8 CURVE",
"285 -92 LINE",
"285 -97 OFFCURVE",
"361 -94 OFFCURVE",
"361 -146 CURVE SMOOTH",
"361 -193 OFFCURVE",
"335 -221 OFFCURVE",
"284 -221 CURVE SMOOTH",
"240 -221 OFFCURVE",
"222 -189 OFFCURVE",
"222 -189 CURVE",
"202 -209 LINE",
"202 -209 OFFCURVE",
"221 -251 OFFCURVE",
"288 -251 CURVE SMOOTH",
"366 -251 OFFCURVE",
"406 -205 OFFCURVE",
"406 -145 CURVE SMOOTH",
"406 -77 OFFCURVE",
"320 -74 OFFCURVE",
"321 -69 CURVE",
"336 -10 LINE",
"341 -10 LINE SMOOTH",
"495 -10 OFFCURVE",
"565 105 OFFCURVE",
"565 105 CURVE",
"542 137 LINE",
"542 137 OFFCURVE",
"477 40 OFFCURVE",
"357 40 CURVE SMOOTH",
"245 40 OFFCURVE",
"167 113 OFFCURVE",
"167 256 CURVE SMOOTH",
"167 489 OFFCURVE",
"282 609 OFFCURVE",
"421 609 CURVE SMOOTH",
"509 609 OFFCURVE",
"588 555 OFFCURVE",
"588 555 CURVE"
);
}
);
width = 570;
},
{
layerId = "640DAD6F-C00E-41F4-8D6C-450924326D1A";
paths = (
{
closed = 1;
nodes = (
"614 605 LINE",
"614 605 OFFCURVE",
"528 660 OFFCURVE",
"424 660 CURVE SMOOTH",
"211 660 OFFCURVE",
"76 490 OFFCURVE",
"76 256 CURVE SMOOTH",
"76 105 OFFCURVE",
"155 6 OFFCURVE",
"302 -9 CURVE",
"279 -98 LINE",
"279 -102 OFFCURVE",
"333 -101 OFFCURVE",
"333 -142 CURVE SMOOTH",
"333 -186 OFFCURVE",
"310 -205 OFFCURVE",
"273 -205 CURVE SMOOTH",
"238 -205 OFFCURVE",
"223 -176 OFFCURVE",
"223 -176 CURVE",
"193 -205 LINE",
"193 -205 OFFCURVE",
"208 -251 OFFCURVE",
"282 -251 CURVE SMOOTH",
"369 -251 OFFCURVE",
"412 -201 OFFCURVE",
"412 -139 CURVE SMOOTH",
"412 -72 OFFCURVE",
"334 -64 OFFCURVE",
"336 -58 CURVE",
"346 -11 LINE",
"512 -10 OFFCURVE",
"581 105 OFFCURVE",
"581 105 CURVE",
"545 153 LINE",
"545 153 OFFCURVE",
"482 64 OFFCURVE",
"375 64 CURVE SMOOTH",
"284 64 OFFCURVE",
"225 116 OFFCURVE",
"225 242 CURVE SMOOTH",
"225 495 OFFCURVE",
"317 585 OFFCURVE",
"431 585 CURVE SMOOTH",
"505 585 OFFCURVE",
"593 532 OFFCURVE",
"593 532 CURVE"
);
}
);
width = 576;
}
);
note = Ccedilla;
unicode = 00C7;
},
{
glyphname = D;
layers = (
{
layerId = "F05DF1C3-6E5D-4CAE-86D8-BB1A1E5E50BF";
paths = (
{
closed = 1;
nodes = (
"94 0 LINE",
"292 0 LINE SMOOTH",
"509 0 OFFCURVE",
"637 143 OFFCURVE",
"637 385 CURVE SMOOTH",
"637 558 OFFCURVE",
"545 650 OFFCURVE",
"383 650 CURVE SMOOTH",
"185 650 LINE"
);
},
{
closed = 1;
nodes = (
"377 602 LINE SMOOTH",
"493 602 OFFCURVE",
"557 532 OFFCURVE",
"557 393 CURVE SMOOTH",
"557 157 OFFCURVE",
"453 48 OFFCURVE",
"300 48 CURVE SMOOTH",
"176 48 LINE",
"254 602 LINE"
);
}
);
width = 634;
},
{
layerId = "640DAD6F-C00E-41F4-8D6C-450924326D1A";
paths = (
{
closed = 1;
nodes = (
"168 650 LINE",
"77 0 LINE",
"299 0 LINE SMOOTH",
"536 0 OFFCURVE",
"662 146 OFFCURVE",
"662 387 CURVE SMOOTH",
"662 561 OFFCURVE",
"565 650 OFFCURVE",
"389 650 CURVE SMOOTH"
);
},
{
closed = 1;
nodes = (
"379 579 LINE SMOOTH",
"471 579 OFFCURVE",
"514 529 OFFCURVE",
"514 413 CURVE SMOOTH",
"514 160 OFFCURVE",
"430 71 OFFCURVE",
"310 71 CURVE SMOOTH",
"225 71 LINE",
"296 579 LINE"
);
}
);
width = 647;
}
);
note = D;
unicode = 0044;
},
{
glyphname = Eth;
layers = (
{
layerId = "F05DF1C3-6E5D-4CAE-86D8-BB1A1E5E50BF";
paths = (
{
closed = 1;
nodes = (
"94 0 LINE",
"292 0 LINE SMOOTH",
"509 0 OFFCURVE",
"637 143 OFFCURVE",
"637 385 CURVE SMOOTH",
"637 558 OFFCURVE",
"545 650 OFFCURVE",
"383 650 CURVE SMOOTH",
"185 650 LINE",
"142 344 LINE",
"74 344 LINE",
"67 302 LINE",
"136 302 LINE"
);
},
{
closed = 1;
nodes = (
"377 602 LINE SMOOTH",
"493 602 OFFCURVE",
"557 532 OFFCURVE",
"557 393 CURVE SMOOTH",
"557 157 OFFCURVE",
"453 48 OFFCURVE",
"300 48 CURVE SMOOTH",
"176 48 LINE",
"212 302 LINE",
"401 302 LINE",
"407 344 LINE",
"218 344 LINE",
"254 602 LINE"
);
}
);
width = 638;
},
{
layerId = "640DAD6F-C00E-41F4-8D6C-450924326D1A";
paths = (
{
closed = 1;
nodes = (
"168 650 LINE",
"126 355 LINE",
"71 355 LINE",
"62 289 LINE",
"117 289 LINE",
"77 0 LINE",
"299 0 LINE SMOOTH",
"536 0 OFFCURVE",
"662 146 OFFCURVE",
"662 387 CURVE SMOOTH",
"662 561 OFFCURVE",
"565 650 OFFCURVE",
"389 650 CURVE SMOOTH"
);
},
{
closed = 1;
nodes = (
"379 579 LINE SMOOTH",
"471 579 OFFCURVE",
"514 529 OFFCURVE",
"514 413 CURVE SMOOTH",
"514 160 OFFCURVE",
"430 71 OFFCURVE",
"310 71 CURVE SMOOTH",
"225 71 LINE",
"255 289 LINE",
"398 289 LINE",
"407 355 LINE",
"264 355 LINE",
"296 579 LINE"
);
}
);
width = 658;
}
);
note = Eth;
unicode = 00D0;
},
{
glyphname = Dcaron;
layers = (
{
layerId = "F05DF1C3-6E5D-4CAE-86D8-BB1A1E5E50BF";
paths = (
{
closed = 1;
nodes = (
"94 0 LINE",
"292 0 LINE SMOOTH",
"509 0 OFFCURVE",
"637 143 OFFCURVE",
"637 385 CURVE SMOOTH",
"637 558 OFFCURVE",
"545 650 OFFCURVE",
"383 650 CURVE SMOOTH",
"185 650 LINE"
);
},
{
closed = 1;
nodes = (
"377 602 LINE SMOOTH",
"493 602 OFFCURVE",
"557 532 OFFCURVE",
"557 393 CURVE SMOOTH",
"557 157 OFFCURVE",
"453 48 OFFCURVE",
"300 48 CURVE SMOOTH",
"176 48 LINE",
"254 602 LINE"
);
},
{
closed = 1;
nodes = (
"354 708 LINE",
"394 708 LINE",
"530 829 LINE",
"505 855 LINE",
"381 754 LINE",
"285 855 LINE",
"254 831 LINE"
);
}
);
width = 638;
},
{
layerId = "640DAD6F-C00E-41F4-8D6C-450924326D1A";
paths = (
{
closed = 1;
nodes = (
"168 650 LINE",
"77 0 LINE",
"299 0 LINE SMOOTH",
"536 0 OFFCURVE",
"662 146 OFFCURVE",
"662 387 CURVE SMOOTH",
"662 561 OFFCURVE",
"565 650 OFFCURVE",
"389 650 CURVE SMOOTH"
);
},
{
closed = 1;
nodes = (
"379 579 LINE SMOOTH",
"471 579 OFFCURVE",
"514 529 OFFCURVE",
"514 413 CURVE SMOOTH",
"514 160 OFFCURVE",
"430 71 OFFCURVE",
"310 71 CURVE SMOOTH",
"225 71 LINE",
"296 579 LINE"
);
},
{
closed = 1;
nodes = (
"357 707 LINE",
"427 707 LINE",
"561 841 LINE",
"524 880 LINE",
"403 787 LINE",
"308 880 LINE",
"261 845 LINE"
);
}
);
width = 658;
}
);
note = Dcaron;
unicode = 010E;
},
{
color = 9;
glyphname = Dcroat;
layers = (
{
layerId = "F05DF1C3-6E5D-4CAE-86D8-BB1A1E5E50BF";
paths = (
{
closed = 1;
nodes = (
"94 0 LINE",
"292 0 LINE SMOOTH",
"509 0 OFFCURVE",
"637 143 OFFCURVE",
"637 385 CURVE SMOOTH",
"637 558 OFFCURVE",
"545 650 OFFCURVE",
"383 650 CURVE SMOOTH",
"185 650 LINE",
"142 344 LINE",
"74 344 LINE",
"67 302 LINE",
"136 302 LINE"
);
},
{
closed = 1;
nodes = (
"377 602 LINE SMOOTH",
"493 602 OFFCURVE",
"557 532 OFFCURVE",
"557 393 CURVE SMOOTH",
"557 157 OFFCURVE",
"453 48 OFFCURVE",
"300 48 CURVE SMOOTH",
"176 48 LINE",
"212 302 LINE",
"401 302 LINE",
"407 344 LINE",
"218 344 LINE",
"254 602 LINE"
);
}
);
width = 638;
},
{
layerId = "640DAD6F-C00E-41F4-8D6C-450924326D1A";
paths = (
{
closed = 1;
nodes = (
"168 650 LINE",
"126 355 LINE",
"71 355 LINE",
"62 289 LINE",
"117 289 LINE",
"77 0 LINE",
"299 0 LINE SMOOTH",
"536 0 OFFCURVE",
"662 146 OFFCURVE",
"662 387 CURVE SMOOTH",
"662 561 OFFCURVE",
"565 650 OFFCURVE",
"389 650 CURVE SMOOTH"
);
},
{
closed = 1;
nodes = (
"379 579 LINE SMOOTH",
"471 579 OFFCURVE",
"514 529 OFFCURVE",
"514 413 CURVE SMOOTH",
"514 160 OFFCURVE",
"430 71 OFFCURVE",
"310 71 CURVE SMOOTH",
"225 71 LINE",
"255 289 LINE",
"398 289 LINE",
"407 355 LINE",
"264 355 LINE",
"296 579 LINE"
);
}
);
width = 658;
}
);
note = Dcroat;
unicode = 0110;
},
{
glyphname = E;
layers = (
{
anchors = (
{
name = bottom;
position = "{214, 0}";
},
{
name = ogonek;
position = "{416, 10}";
},
{
name = top;
position = "{318, 650}";
},
{
name = topleft;
position = "{84, 650}";
}
);
layerId = "F05DF1C3-6E5D-4CAE-86D8-BB1A1E5E50BF";
paths = (
{
closed = 1;
nodes = (
"473 48 LINE",
"177 48 LINE",
"213 306 LINE",
"464 306 LINE",
"471 352 LINE",
"219 352 LINE",
"254 602 LINE",
"529 602 LINE",
"535 650 LINE",
"185 650 LINE",
"94 0 LINE",
"466 0 LINE"
);
}
);
width = 507;
},
{
anchors = (
{
name = bottom;
position = "{222, 0}";
},
{
name = ogonek;
position = "{432, 10}";
},
{
name = top;
position = "{381, 650}";
},
{
name = topleft;
position = "{84, 650}";
}
);
layerId = "640DAD6F-C00E-41F4-8D6C-450924326D1A";
paths = (
{
closed = 1;
nodes = (
"491 72 LINE",
"226 72 LINE",
"257 294 LINE",
"478 294 LINE",
"489 364 LINE",
"266 364 LINE",
"296 578 LINE",
"548 578 LINE",
"558 650 LINE",
"168 650 LINE",
"77 0 LINE",
"481 0 LINE"
);
}
);
width = 524;
}
);
note = E;
unicode = 0045;
},
{
color = 9;
glyphname = Eacute;
layers = (
{
layerId = "F05DF1C3-6E5D-4CAE-86D8-BB1A1E5E50BF";
paths = (
{
closed = 1;
nodes = (
"473 48 LINE",
"177 48 LINE",
"213 306 LINE",
"464 306 LINE",
"471 352 LINE",
"219 352 LINE",
"254 602 LINE",
"529 602 LINE",
"535 650 LINE",
"185 650 LINE",
"94 0 LINE",
"466 0 LINE"
);
},
{
closed = 1;
nodes = (
"435 856 LINE",
"339 711 LINE",
"376 706 LINE",
"496 841 LINE"
);
}
);
width = 507;
},
{
layerId = "640DAD6F-C00E-41F4-8D6C-450924326D1A";
paths = (
{
closed = 1;
nodes = (
"491 72 LINE",
"226 72 LINE",
"257 294 LINE",
"478 294 LINE",
"489 364 LINE",
"266 364 LINE",
"296 578 LINE",
"548 578 LINE",
"558 650 LINE",
"168 650 LINE",
"77 0 LINE",
"481 0 LINE"
);
},
{
closed = 1;
nodes = (
"425 865 LINE",
"334 713 LINE",
"390 704 LINE",
"529 834 LINE"
);
}
);
width = 524;
}
);
note = Eacute;
unicode = 00C9;
},
{
glyphname = Ecaron;
layers = (
{
layerId = "F05DF1C3-6E5D-4CAE-86D8-BB1A1E5E50BF";
paths = (
{
closed = 1;
nodes = (
"473 48 LINE",
"177 48 LINE",
"213 306 LINE",
"464 306 LINE",
"471 352 LINE",
"219 352 LINE",
"254 602 LINE",
"529 602 LINE",
"535 650 LINE",
"185 650 LINE",
"94 0 LINE",
"466 0 LINE"
);
},
{
closed = 1;
nodes = (
"348 708 LINE",
"388 708 LINE",
"524 829 LINE",
"499 855 LINE",
"375 754 LINE",
"279 855 LINE",
"248 831 LINE"
);
}
);
width = 507;
},
{
layerId = "640DAD6F-C00E-41F4-8D6C-450924326D1A";
paths = (
{
closed = 1;
nodes = (
"491 72 LINE",
"226 72 LINE",
"257 294 LINE",
"478 294 LINE",
"489 364 LINE",
"266 364 LINE",
"296 578 LINE",
"548 578 LINE",
"558 650 LINE",
"168 650 LINE",
"77 0 LINE",
"481 0 LINE"
);
},
{
closed = 1;
nodes = (
"344 707 LINE",
"414 707 LINE",
"548 841 LINE",
"511 880 LINE",
"390 787 LINE",
"295 880 LINE",
"248 845 LINE"
);
}
);
width = 524;
}
);
note = Ecaron;
unicode = 011A;
},
{
color = 9;
glyphname = Ecircumflex;
layers = (
{
layerId = "F05DF1C3-6E5D-4CAE-86D8-BB1A1E5E50BF";
paths = (
{
closed = 1;
nodes = (
"473 48 LINE",
"177 48 LINE",
"213 306 LINE",
"464 306 LINE",
"471 352 LINE",
"219 352 LINE",
"254 602 LINE",
"529 602 LINE",
"535 650 LINE",
"185 650 LINE",
"94 0 LINE",
"466 0 LINE"
);
},
{
closed = 1;
nodes = (
"413 878 LINE",
"373 878 LINE",
"248 764 LINE",
"263 732 LINE",
"386 829 LINE",
"482 732 LINE",
"505 764 LINE"
);
}
);
width = 507;
},
{
layerId = "640DAD6F-C00E-41F4-8D6C-450924326D1A";
paths = (
{
closed = 1;
nodes = (
"491 72 LINE",
"226 72 LINE",
"257 294 LINE",
"478 294 LINE",
"489 364 LINE",
"266 364 LINE",
"296 578 LINE",
"548 578 LINE",
"558 650 LINE",
"168 650 LINE",
"77 0 LINE",
"481 0 LINE"
);
},
{
closed = 1;
nodes = (
"438 888 LINE",
"368 888 LINE",
"253 766 LINE",
"275 721 LINE",
"392 806 LINE",
"484 721 LINE",
"518 766 LINE"
);
}
);
width = 524;
}
);
note = Ecircumflex;
unicode = 00CA;
},
{
glyphname = Edieresis;
layers = (
{
layerId = "F05DF1C3-6E5D-4CAE-86D8-BB1A1E5E50BF";
paths = (
{
closed = 1;
nodes = (
"473 48 LINE",
"177 48 LINE",
"213 306 LINE",
"464 306 LINE",
"471 352 LINE",
"219 352 LINE",
"254 602 LINE",
"529 602 LINE",
"535 650 LINE",
"185 650 LINE",
"94 0 LINE",
"466 0 LINE"
);
},
{
closed = 1;
nodes = (
"413 799 OFFCURVE",
"407 786 OFFCURVE",
"407 773 CURVE SMOOTH",
"407 764 OFFCURVE",
"410 756 OFFCURVE",
"415 750 CURVE",
"421 744 OFFCURVE",
"430 740 OFFCURVE",
"439 740 CURVE SMOOTH",
"448 740 OFFCURVE",
"459 744 OFFCURVE",
"467 750 CURVE",
"477 760 OFFCURVE",
"483 773 OFFCURVE",
"483 786 CURVE SMOOTH",
"483 795 OFFCURVE",
"480 803 OFFCURVE",
"475 809 CURVE",
"469 815 OFFCURVE",
"459 819 OFFCURVE",
"450 819 CURVE SMOOTH",
"441 819 OFFCURVE",
"431 815 OFFCURVE",
"423 809 CURVE"
);
},
{
closed = 1;
nodes = (
"259 799 OFFCURVE",
"253 786 OFFCURVE",
"253 773 CURVE SMOOTH",
"253 764 OFFCURVE",
"256 756 OFFCURVE",
"261 750 CURVE",
"267 744 OFFCURVE",
"277 740 OFFCURVE",
"286 740 CURVE SMOOTH",
"295 740 OFFCURVE",
"305 744 OFFCURVE",
"313 750 CURVE",
"323 760 OFFCURVE",
"329 773 OFFCURVE",
"329 786 CURVE SMOOTH",
"329 794 OFFCURVE",
"327 803 OFFCURVE",
"321 809 CURVE SMOOTH",
"315 815 OFFCURVE",
"306 819 OFFCURVE",
"296 819 CURVE SMOOTH",
"286 819 OFFCURVE",
"277 815 OFFCURVE",
"269 809 CURVE"
);
}
);
width = 507;
},
{
layerId = "640DAD6F-C00E-41F4-8D6C-450924326D1A";
paths = (
{
closed = 1;
nodes = (
"491 72 LINE",
"226 72 LINE",
"257 294 LINE",
"478 294 LINE",
"489 364 LINE",
"266 364 LINE",
"296 578 LINE",
"548 578 LINE",
"558 650 LINE",
"168 650 LINE",
"77 0 LINE",
"481 0 LINE"
);
},
{
closed = 1;
nodes = (
"411 822 OFFCURVE",
"401 798 OFFCURVE",
"401 776 CURVE SMOOTH",
"401 761 OFFCURVE",
"406 746 OFFCURVE",
"415 735 CURVE SMOOTH",
"425 723 OFFCURVE",
"440 717 OFFCURVE",
"457 717 CURVE SMOOTH",
"473 717 OFFCURVE",
"491 723 OFFCURVE",
"506 735 CURVE",
"525 752 OFFCURVE",
"535 775 OFFCURVE",
"535 798 CURVE SMOOTH",
"535 813 OFFCURVE",
"530 827 OFFCURVE",
"521 839 CURVE",
"509 850 OFFCURVE",
"494 856 OFFCURVE",
"477 856 CURVE SMOOTH",
"460 856 OFFCURVE",
"443 850 OFFCURVE",
"429 839 CURVE"
);
},
{
closed = 1;
nodes = (
"225 822 OFFCURVE",
"215 798 OFFCURVE",
"215 776 CURVE SMOOTH",
"215 761 OFFCURVE",
"220 746 OFFCURVE",
"229 735 CURVE",
"240 723 OFFCURVE",
"256 717 OFFCURVE",
"272 717 CURVE SMOOTH",
"288 717 OFFCURVE",
"305 723 OFFCURVE",
"320 735 CURVE",
"339 752 OFFCURVE",
"349 775 OFFCURVE",
"349 798 CURVE SMOOTH",
"349 813 OFFCURVE",
"344 827 OFFCURVE",
"335 839 CURVE",
"324 850 OFFCURVE",
"309 856 OFFCURVE",
"292 856 CURVE SMOOTH",
"275 856 OFFCURVE",
"257 850 OFFCURVE",
"243 839 CURVE"
);
}
);
width = 524;
}
);
note = Edieresis;
unicode = 00CB;
},
{
glyphname = Edotaccent;
layers = (
{
layerId = "F05DF1C3-6E5D-4CAE-86D8-BB1A1E5E50BF";
paths = (
{
closed = 1;
nodes = (
"473 48 LINE",
"177 48 LINE",
"213 306 LINE",
"464 306 LINE",
"471 352 LINE",
"219 352 LINE",
"254 602 LINE",
"529 602 LINE",
"535 650 LINE",
"185 650 LINE",
"94 0 LINE",
"466 0 LINE"
);
},
{
closed = 1;
nodes = (
"340 802 OFFCURVE",
"334 787 OFFCURVE",
"334 773 CURVE SMOOTH",
"334 763 OFFCURVE",
"337 754 OFFCURVE",
"343 747 CURVE SMOOTH",
"349 740 OFFCURVE",
"359 736 OFFCURVE",
"370 736 CURVE SMOOTH",
"381 736 OFFCURVE",
"392 740 OFFCURVE",
"402 747 CURVE",
"413 758 OFFCURVE",
"419 772 OFFCURVE",
"419 786 CURVE SMOOTH",
"419 795 OFFCURVE",
"417 805 OFFCURVE",
"411 812 CURVE",
"404 819 OFFCURVE",
"394 822 OFFCURVE",
"383 822 CURVE SMOOTH",
"372 822 OFFCURVE",
"361 819 OFFCURVE",
"352 811 CURVE"
);
}
);
width = 507;
},
{
layerId = "640DAD6F-C00E-41F4-8D6C-450924326D1A";
paths = (
{
closed = 1;
nodes = (
"491 72 LINE",
"226 72 LINE",
"257 294 LINE",
"478 294 LINE",
"489 364 LINE",
"266 364 LINE",
"296 578 LINE",
"548 578 LINE",
"558 650 LINE",
"168 650 LINE",
"77 0 LINE",
"481 0 LINE"
);
},
{
closed = 1;
nodes = (
"318 825 OFFCURVE",
"307 799 OFFCURVE",
"307 775 CURVE SMOOTH",
"307 758 OFFCURVE",
"312 742 OFFCURVE",
"323 730 CURVE SMOOTH",
"335 716 OFFCURVE",
"353 710 OFFCURVE",
"372 710 CURVE SMOOTH",
"391 710 OFFCURVE",
"410 716 OFFCURVE",
"427 729 CURVE",
"447 748 OFFCURVE",
"458 774 OFFCURVE",
"458 799 CURVE SMOOTH",
"458 816 OFFCURVE",
"453 831 OFFCURVE",
"443 844 CURVE",
"431 857 OFFCURVE",
"413 863 OFFCURVE",
"394 863 CURVE SMOOTH",
"375 863 OFFCURVE",
"355 857 OFFCURVE",
"339 843 CURVE SMOOTH"
);
}
);
width = 524;
}
);
note = Edotaccent;
unicode = 0116;
},
{
color = 9;
glyphname = Egrave;
layers = (
{
layerId = "F05DF1C3-6E5D-4CAE-86D8-BB1A1E5E50BF";
paths = (
{
closed = 1;
nodes = (
"473 48 LINE",
"177 48 LINE",
"213 306 LINE",
"464 306 LINE",
"471 352 LINE",
"219 352 LINE",
"254 602 LINE",
"529 602 LINE",
"535 650 LINE",
"185 650 LINE",
"94 0 LINE",
"466 0 LINE"
);
},
{
closed = 1;
nodes = (
"278 843 LINE",
"363 708 LINE",
"405 716 LINE",
"342 859 LINE"
);
}
);
width = 507;
},
{
layerId = "640DAD6F-C00E-41F4-8D6C-450924326D1A";
paths = (
{
closed = 1;
nodes = (
"491 72 LINE",
"226 72 LINE",
"257 294 LINE",
"478 294 LINE",
"489 364 LINE",
"266 364 LINE",
"296 578 LINE",
"548 578 LINE",
"558 650 LINE",
"168 650 LINE",
"77 0 LINE",
"481 0 LINE"
);
},
{
closed = 1;
nodes = (
"258 838 LINE",
"369 709 LINE",
"433 726 LINE",
"369 873 LINE"
);
}
);
width = 524;
}
);
note = Egrave;
unicode = 00C8;
},
{
glyphname = Emacron;
layers = (
{
layerId = "F05DF1C3-6E5D-4CAE-86D8-BB1A1E5E50BF";
paths = (
{
closed = 1;
nodes = (
"473 48 LINE",
"177 48 LINE",
"213 306 LINE",
"464 306 LINE",
"471 352 LINE",
"219 352 LINE",
"254 602 LINE",
"529 602 LINE",
"535 650 LINE",
"185 650 LINE",
"94 0 LINE",
"466 0 LINE"
);
},
{
closed = 1;
nodes = (
"478 807 LINE",
"293 807 LINE",
"288 771 LINE",
"473 771 LINE"
);
}
);
width = 507;
},
{
layerId = "640DAD6F-C00E-41F4-8D6C-450924326D1A";
paths = (
{
closed = 1;
nodes = (
"491 72 LINE",
"226 72 LINE",
"257 294 LINE",
"478 294 LINE",
"489 364 LINE",
"266 364 LINE",
"296 578 LINE",
"548 578 LINE",
"558 650 LINE",
"168 650 LINE",
"77 0 LINE",
"481 0 LINE"
);
},
{
closed = 1;
nodes = (
"501 817 LINE",
"287 817 LINE",
"279 759 LINE",
"494 759 LINE"
);
}
);
width = 524;
}
);
note = Emacron;
unicode = 0112;
},
{
glyphname = Eogonek;
layers = (
{
layerId = "F05DF1C3-6E5D-4CAE-86D8-BB1A1E5E50BF";
paths = (
{
closed = 1;
nodes = (
"473 48 LINE",
"177 48 LINE",
"213 306 LINE",
"464 306 LINE",
"471 352 LINE",
"219 352 LINE",
"254 602 LINE",
"529 602 LINE",
"535 650 LINE",
"185 650 LINE",
"94 0 LINE",
"414 0 LINE",
"370 -28 OFFCURVE",
"306 -81 OFFCURVE",
"306 -156 CURVE SMOOTH",
"306 -235 OFFCURVE",
"378 -250 OFFCURVE",
"447 -250 CURVE",
"452 -218 LINE",
"404 -218 OFFCURVE",
"356 -207 OFFCURVE",
"356 -152 CURVE SMOOTH",
"356 -63 OFFCURVE",
"435 -12 OFFCURVE",
"457 0 CURVE",
"466 0 LINE"
);
}
);
width = 507;
},
{
layerId = "640DAD6F-C00E-41F4-8D6C-450924326D1A";
paths = (
{
closed = 1;
nodes = (
"491 72 LINE",
"226 72 LINE",
"257 294 LINE",
"478 294 LINE",
"489 364 LINE",
"266 364 LINE",
"296 578 LINE",
"548 578 LINE",
"558 650 LINE",
"168 650 LINE",
"77 0 LINE",
"394 0 LINE",
"344 -31 OFFCURVE",
"286 -83 OFFCURVE",
"286 -152 CURVE SMOOTH",
"286 -234 OFFCURVE",
"356 -250 OFFCURVE",
"436 -250 CURVE",
"443 -201 LINE",
"401 -201 OFFCURVE",
"374 -190 OFFCURVE",
"374 -148 CURVE SMOOTH",
"374 -56 OFFCURVE",
"435 -14 OFFCURVE",
"463 0 CURVE",
"481 0 LINE"
);
}
);
width = 524;
}
);
note = Eogonek;
unicode = 0118;
},
{
glyphname = F;
layers = (
{
layerId = "F05DF1C3-6E5D-4CAE-86D8-BB1A1E5E50BF";
paths = (
{
closed = 1;
nodes = (
"460 343 LINE",
"218 343 LINE",
"255 602 LINE",
"536 602 LINE",
"542 650 LINE",
"185 650 LINE",
"94 0 LINE",
"170 0 LINE",
"212 297 LINE",
"453 297 LINE"
);
}
);
width = 464;
},
{
layerId = "640DAD6F-C00E-41F4-8D6C-450924326D1A";
paths = (
{
closed = 1;
nodes = (
"486 338 LINE",
"263 338 LINE",
"296 578 LINE",
"553 578 LINE",
"563 650 LINE",
"168 650 LINE",
"77 0 LINE",
"215 0 LINE",
"253 268 LINE",
"476 268 LINE"
);
}
);
width = 488;
}
);
note = F;
unicode = 0046;
},
{
glyphname = G;
layers = (
{
layerId = "F05DF1C3-6E5D-4CAE-86D8-BB1A1E5E50BF";
paths = (
{
closed = 1;
nodes = (
"590 338 LINE",
"394 338 LINE",
"387 295 LINE",
"520 295 LINE",
"499 148 LINE",
"491 127 OFFCURVE",
"449 40 OFFCURVE",
"331 40 CURVE SMOOTH",
"229 40 OFFCURVE",
"167 113 OFFCURVE",
"167 255 CURVE SMOOTH",
"167 485 OFFCURVE",
"264 609 OFFCURVE",
"432 609 CURVE SMOOTH",
"520 609 OFFCURVE",
"599 555 OFFCURVE",
"599 555 CURVE",
"615 602 LINE",
"615 602 OFFCURVE",
"534 659 OFFCURVE",
"431 659 CURVE SMOOTH",
"216 659 OFFCURVE",
"87 500 OFFCURVE",
"87 255 CURVE SMOOTH",
"87 89 OFFCURVE",
"166 -10 OFFCURVE",
"313 -10 CURVE SMOOTH",
"407 -10 OFFCURVE",
"464 32 OFFCURVE",
"497 71 CURVE",
"506 0 LINE",
"543 0 LINE"
);
}
);
width = 620;
},
{
layerId = "640DAD6F-C00E-41F4-8D6C-450924326D1A";
paths = (
{
closed = 1;
nodes = (
"613 343 LINE",
"395 343 LINE",
"385 275 LINE",
"486 275 LINE",
"469 152 LINE",
"460 127 OFFCURVE",
"429 64 OFFCURVE",
"348 64 CURVE SMOOTH",
"273 64 OFFCURVE",
"225 116 OFFCURVE",
"225 242 CURVE SMOOTH",
"225 485 OFFCURVE",
"305 585 OFFCURVE",
"436 585 CURVE SMOOTH",
"510 585 OFFCURVE",
"598 532 OFFCURVE",
"598 532 CURVE",
"622 605 LINE",
"622 605 OFFCURVE",
"533 660 OFFCURVE",
"429 660 CURVE SMOOTH",
"212 660 OFFCURVE",
"76 500 OFFCURVE",
"76 254 CURVE SMOOTH",
"76 86 OFFCURVE",
"159 -11 OFFCURVE",
"313 -11 CURVE SMOOTH",
"394 -11 OFFCURVE",
"445 22 OFFCURVE",
"478 58 CURVE",
"505 0 LINE",
"565 0 LINE"
);
}
);
width = 625;
}
);
note = G;
unicode = 0047;
},
{
glyphname = Gbreve;
layers = (
{
layerId = "F05DF1C3-6E5D-4CAE-86D8-BB1A1E5E50BF";
paths = (
{
closed = 1;
nodes = (
"590 338 LINE",
"394 338 LINE",
"387 295 LINE",
"520 295 LINE",
"499 148 LINE",
"491 127 OFFCURVE",
"449 40 OFFCURVE",
"331 40 CURVE SMOOTH",
"229 40 OFFCURVE",
"167 113 OFFCURVE",
"167 255 CURVE SMOOTH",
"167 485 OFFCURVE",
"264 609 OFFCURVE",
"432 609 CURVE SMOOTH",
"520 609 OFFCURVE",
"599 555 OFFCURVE",
"599 555 CURVE",
"615 602 LINE",
"615 602 OFFCURVE",
"534 659 OFFCURVE",
"431 659 CURVE SMOOTH",
"216 659 OFFCURVE",
"87 500 OFFCURVE",
"87 255 CURVE SMOOTH",
"87 89 OFFCURVE",
"166 -10 OFFCURVE",
"313 -10 CURVE SMOOTH",
"407 -10 OFFCURVE",
"464 32 OFFCURVE",
"497 71 CURVE",
"506 0 LINE",
"543 0 LINE"
);
},
{
closed = 1;
nodes = (
"355 755 OFFCURVE",
"351 814 OFFCURVE",
"351 814 CURVE",
"351 816 LINE",
"305 810 LINE",
"305 810 OFFCURVE",
"302 711 OFFCURVE",
"429 711 CURVE SMOOTH",
"556 711 OFFCURVE",
"582 810 OFFCURVE",
"582 810 CURVE",
"537 816 LINE",
"537 814 LINE",
"537 814 OFFCURVE",
"516 755 OFFCURVE",
"435 755 CURVE SMOOTH"
);
}
);
width = 620;
},
{
layerId = "640DAD6F-C00E-41F4-8D6C-450924326D1A";
paths = (
{
closed = 1;
nodes = (
"613 343 LINE",
"395 343 LINE",
"385 275 LINE",
"486 275 LINE",
"469 152 LINE",
"460 127 OFFCURVE",
"429 64 OFFCURVE",
"348 64 CURVE SMOOTH",
"273 64 OFFCURVE",
"225 116 OFFCURVE",
"225 242 CURVE SMOOTH",
"225 485 OFFCURVE",
"305 585 OFFCURVE",
"436 585 CURVE SMOOTH",
"510 585 OFFCURVE",
"598 532 OFFCURVE",
"598 532 CURVE",
"622 605 LINE",
"622 605 OFFCURVE",
"533 660 OFFCURVE",
"429 660 CURVE SMOOTH",
"212 660 OFFCURVE",
"76 500 OFFCURVE",
"76 254 CURVE SMOOTH",
"76 86 OFFCURVE",
"159 -11 OFFCURVE",
"313 -11 CURVE SMOOTH",
"394 -11 OFFCURVE",
"445 22 OFFCURVE",
"478 58 CURVE",
"505 0 LINE",
"565 0 LINE"
);
},
{
closed = 1;
nodes = (
"360 771 OFFCURVE",
"364 826 OFFCURVE",
"364 826 CURVE",
"364 830 LINE",
"297 821 LINE",
"297 821 OFFCURVE",
"296 814 OFFCURVE",
"296 805 CURVE SMOOTH",
"296 772 OFFCURVE",
"309 698 OFFCURVE",
"429 698 CURVE SMOOTH",
"584 698 OFFCURVE",
"597 821 OFFCURVE",
"597 821 CURVE",
"532 830 LINE",
"531 826 LINE",
"531 826 OFFCURVE",
"520 771 OFFCURVE",
"440 771 CURVE SMOOTH"
);
}
);
width = 625;
}
);
note = Gbreve;
unicode = 011E;
},
{
glyphname = Gcommaaccent;
layers = (
{
layerId = "F05DF1C3-6E5D-4CAE-86D8-BB1A1E5E50BF";
paths = (
{
closed = 1;
nodes = (
"590 338 LINE",
"394 338 LINE",
"387 295 LINE",
"520 295 LINE",
"499 148 LINE",
"491 127 OFFCURVE",
"449 40 OFFCURVE",
"331 40 CURVE SMOOTH",
"229 40 OFFCURVE",
"167 113 OFFCURVE",
"167 255 CURVE SMOOTH",
"167 485 OFFCURVE",
"264 609 OFFCURVE",
"432 609 CURVE SMOOTH",
"520 609 OFFCURVE",
"599 555 OFFCURVE",
"599 555 CURVE",
"615 602 LINE",
"615 602 OFFCURVE",
"534 659 OFFCURVE",
"431 659 CURVE SMOOTH",
"216 659 OFFCURVE",
"87 500 OFFCURVE",
"87 255 CURVE SMOOTH",
"87 89 OFFCURVE",
"166 -10 OFFCURVE",
"313 -10 CURVE SMOOTH",
"407 -10 OFFCURVE",
"464 32 OFFCURVE",
"497 71 CURVE",
"506 0 LINE",
"543 0 LINE"
);
},
{
closed = 1;
nodes = (
"293 -62 OFFCURVE",
"288 -75 OFFCURVE",
"288 -87 CURVE SMOOTH",
"288 -95 OFFCURVE",
"290 -102 OFFCURVE",
"295 -108 CURVE",
"301 -114 OFFCURVE",
"310 -117 OFFCURVE",
"320 -117 CURVE",
"321 -161 OFFCURVE",
"291 -227 OFFCURVE",
"239 -269 CURVE",
"255 -288 LINE",
"316 -242 OFFCURVE",
"364 -151 OFFCURVE",
"364 -93 CURVE SMOOTH",
"364 -80 OFFCURVE",
"361 -69 OFFCURVE",
"356 -60 CURVE",
"352 -54 LINE",
"346 -48 OFFCURVE",
"338 -45 OFFCURVE",
"329 -45 CURVE SMOOTH",
"320 -45 OFFCURVE",
"311 -48 OFFCURVE",
"303 -54 CURVE SMOOTH"
);
}
);
width = 620;
},
{
layerId = "640DAD6F-C00E-41F4-8D6C-450924326D1A";
paths = (
{
closed = 1;
nodes = (
"613 343 LINE",
"395 343 LINE",
"385 275 LINE",
"486 275 LINE",
"469 152 LINE",
"460 127 OFFCURVE",
"429 64 OFFCURVE",
"348 64 CURVE SMOOTH",
"273 64 OFFCURVE",
"225 116 OFFCURVE",
"225 242 CURVE SMOOTH",
"225 485 OFFCURVE",
"305 585 OFFCURVE",
"436 585 CURVE SMOOTH",
"510 585 OFFCURVE",
"598 532 OFFCURVE",
"598 532 CURVE",
"622 605 LINE",
"622 605 OFFCURVE",
"533 660 OFFCURVE",
"429 660 CURVE SMOOTH",
"212 660 OFFCURVE",
"76 500 OFFCURVE",
"76 254 CURVE SMOOTH",
"76 86 OFFCURVE",
"159 -11 OFFCURVE",
"313 -11 CURVE SMOOTH",
"394 -11 OFFCURVE",
"445 22 OFFCURVE",
"478 58 CURVE",
"505 0 LINE",
"565 0 LINE"
);
},
{
closed = 1;
nodes = (
"272 -77 OFFCURVE",
"263 -98 OFFCURVE",
"263 -118 CURVE SMOOTH",
"263 -131 OFFCURVE",
"268 -144 OFFCURVE",
"276 -154 CURVE",
"286 -164 OFFCURVE",
"300 -170 OFFCURVE",
"316 -170 CURVE SMOOTH",
"323 -170 LINE",
"322 -215 OFFCURVE",
"293 -265 OFFCURVE",
"239 -308 CURVE",
"264 -339 LINE",
"338 -289 OFFCURVE",
"395 -195 OFFCURVE",
"395 -123 CURVE SMOOTH",
"395 -99 OFFCURVE",
"389 -79 OFFCURVE",
"375 -62 CURVE",
"364 -51 OFFCURVE",
"349 -46 OFFCURVE",
"334 -46 CURVE SMOOTH",
"318 -46 OFFCURVE",
"302 -51 OFFCURVE",
"289 -62 CURVE SMOOTH"
);
}
);
width = 625;
}
);
note = Gcommaaccent;
unicode = 0122;
},
{
glyphname = H;
layers = (
{
layerId = "F05DF1C3-6E5D-4CAE-86D8-BB1A1E5E50BF";
paths = (
{
closed = 1;
nodes = (
"634 650 LINE",
"558 650 LINE",
"517 358 LINE",
"220 358 LINE",
"261 650 LINE",
"185 650 LINE",
"94 0 LINE",
"170 0 LINE",
"213 312 LINE",
"510 312 LINE",
"467 0 LINE",
"543 0 LINE"
);
}
);
width = 638;
},
{
layerId = "640DAD6F-C00E-41F4-8D6C-450924326D1A";
paths = (
{
closed = 1;
nodes = (
"669 650 LINE",
"531 650 LINE",
"491 366 LINE",
"266 366 LINE",
"306 650 LINE",
"168 650 LINE",
"77 0 LINE",
"215 0 LINE",
"256 296 LINE",
"481 296 LINE",
"440 0 LINE",
"578 0 LINE"
);
}
);
width = 655;
}
);
note = H;
unicode = 0048;
},
{
glyphname = I;
layers = (
{
anchors = (
{
name = bottom;
position = "{126, 0}";
},
{
name = ogonek;
position = "{198, 10}";
},
{
name = top;
position = "{223, 650}";
},
{
name = topleft;
position = "{84, 650}";
}
);
layerId = "F05DF1C3-6E5D-4CAE-86D8-BB1A1E5E50BF";
paths = (
{
closed = 1;
nodes = (
"261 650 LINE",
"185 650 LINE",
"94 0 LINE",
"170 0 LINE"
);
}
);
width = 265;
},
{
anchors = (
{
name = bottom;
position = "{148, 0}";
},
{
name = ogonek;
position = "{224, 10}";
},
{
name = top;
position = "{235, 650}";
},
{
name = topleft;
position = "{84, 650}";
}
);
layerId = "640DAD6F-C00E-41F4-8D6C-450924326D1A";
paths = (
{
closed = 1;
nodes = (
"306 650 LINE",
"168 650 LINE",
"77 0 LINE",
"215 0 LINE"
);
}
);
width = 293;
}
);
note = I;
unicode = 0049;
},
{
color = 9;
glyphname = Iacute;
layers = (
{
layerId = "F05DF1C3-6E5D-4CAE-86D8-BB1A1E5E50BF";
paths = (
{
closed = 1;
nodes = (
"261 650 LINE",
"185 650 LINE",
"94 0 LINE",
"170 0 LINE"
);
},
{
closed = 1;
nodes = (
"286 856 LINE",
"190 711 LINE",
"227 706 LINE",
"347 841 LINE"
);
}
);
width = 265;
},
{
layerId = "640DAD6F-C00E-41F4-8D6C-450924326D1A";
paths = (
{
closed = 1;
nodes = (
"306 650 LINE",
"168 650 LINE",
"77 0 LINE",
"215 0 LINE"
);
},
{
closed = 1;
nodes = (
"280 865 LINE",
"189 713 LINE",
"245 704 LINE",
"384 834 LINE"
);
}
);
width = 293;
}
);
note = Iacute;
unicode = 00CD;
},
{
glyphname = Icircumflex;
layers = (
{
layerId = "F05DF1C3-6E5D-4CAE-86D8-BB1A1E5E50BF";
paths = (
{
closed = 1;
nodes = (
"261 650 LINE",
"185 650 LINE",
"94 0 LINE",
"170 0 LINE"
);
},
{
closed = 1;
nodes = (
"264 878 LINE",
"224 878 LINE",
"99 764 LINE",
"114 732 LINE",
"237 829 LINE",
"333 732 LINE",
"356 764 LINE"
);
}
);
width = 265;
},
{
layerId = "640DAD6F-C00E-41F4-8D6C-450924326D1A";
paths = (
{
closed = 1;
nodes = (
"306 650 LINE",
"168 650 LINE",
"77 0 LINE",
"215 0 LINE"
);
},
{
closed = 1;
nodes = (
"294 888 LINE",
"224 888 LINE",
"109 766 LINE",
"131 721 LINE",
"248 806 LINE",
"340 721 LINE",
"374 766 LINE"
);
}
);
width = 293;
}
);
note = Icircumflex;
unicode = 00CE;
},
{
glyphname = Idieresis;
layers = (
{
layerId = "F05DF1C3-6E5D-4CAE-86D8-BB1A1E5E50BF";
paths = (
{
closed = 1;
nodes = (
"261 650 LINE",
"185 650 LINE",
"94 0 LINE",
"170 0 LINE"
);
},
{
closed = 1;
nodes = (
"275 799 OFFCURVE",
"269 786 OFFCURVE",
"269 773 CURVE SMOOTH",
"269 764 OFFCURVE",
"272 756 OFFCURVE",
"277 750 CURVE",
"283 744 OFFCURVE",
"292 740 OFFCURVE",
"301 740 CURVE SMOOTH",
"310 740 OFFCURVE",
"321 744 OFFCURVE",
"329 750 CURVE",
"339 760 OFFCURVE",
"345 773 OFFCURVE",
"345 786 CURVE SMOOTH",
"345 795 OFFCURVE",
"342 803 OFFCURVE",
"337 809 CURVE",
"331 815 OFFCURVE",
"321 819 OFFCURVE",
"312 819 CURVE SMOOTH",
"303 819 OFFCURVE",
"293 815 OFFCURVE",
"285 809 CURVE"
);
},
{
closed = 1;
nodes = (
"121 799 OFFCURVE",
"115 786 OFFCURVE",
"115 773 CURVE SMOOTH",
"115 764 OFFCURVE",
"118 756 OFFCURVE",
"123 750 CURVE",
"129 744 OFFCURVE",
"139 740 OFFCURVE",
"148 740 CURVE SMOOTH",
"157 740 OFFCURVE",
"167 744 OFFCURVE",
"175 750 CURVE",
"185 760 OFFCURVE",
"191 773 OFFCURVE",
"191 786 CURVE SMOOTH",
"191 794 OFFCURVE",
"189 803 OFFCURVE",
"183 809 CURVE SMOOTH",
"177 815 OFFCURVE",
"168 819 OFFCURVE",
"158 819 CURVE SMOOTH",
"148 819 OFFCURVE",
"139 815 OFFCURVE",
"131 809 CURVE"
);
}
);
width = 265;
},
{
layerId = "640DAD6F-C00E-41F4-8D6C-450924326D1A";
paths = (
{
closed = 1;
nodes = (
"306 650 LINE",
"168 650 LINE",
"77 0 LINE",
"215 0 LINE"
);
},
{
closed = 1;
nodes = (
"281 822 OFFCURVE",
"271 798 OFFCURVE",
"271 776 CURVE SMOOTH",
"271 761 OFFCURVE",
"276 746 OFFCURVE",
"285 735 CURVE SMOOTH",
"295 723 OFFCURVE",
"310 717 OFFCURVE",
"327 717 CURVE SMOOTH",
"343 717 OFFCURVE",
"361 723 OFFCURVE",
"376 735 CURVE",
"395 752 OFFCURVE",
"405 775 OFFCURVE",
"405 798 CURVE SMOOTH",
"405 813 OFFCURVE",
"400 827 OFFCURVE",
"391 839 CURVE",
"379 850 OFFCURVE",
"364 856 OFFCURVE",
"347 856 CURVE SMOOTH",
"330 856 OFFCURVE",
"313 850 OFFCURVE",
"299 839 CURVE"
);
},
{
closed = 1;
nodes = (
"95 822 OFFCURVE",
"85 798 OFFCURVE",
"85 776 CURVE SMOOTH",
"85 761 OFFCURVE",
"90 746 OFFCURVE",
"99 735 CURVE",
"110 723 OFFCURVE",
"126 717 OFFCURVE",
"142 717 CURVE SMOOTH",
"158 717 OFFCURVE",
"175 723 OFFCURVE",
"190 735 CURVE",
"209 752 OFFCURVE",
"219 775 OFFCURVE",
"219 798 CURVE SMOOTH",
"219 813 OFFCURVE",
"214 827 OFFCURVE",
"205 839 CURVE",
"194 850 OFFCURVE",
"179 856 OFFCURVE",
"162 856 CURVE SMOOTH",
"145 856 OFFCURVE",
"127 850 OFFCURVE",
"113 839 CURVE"
);
}
);
width = 293;
}
);
note = Idieresis;
unicode = 00CF;
},
{
glyphname = Idotaccent;
layers = (
{
layerId = "F05DF1C3-6E5D-4CAE-86D8-BB1A1E5E50BF";
paths = (
{
closed = 1;
nodes = (
"261 650 LINE",
"185 650 LINE",
"94 0 LINE",
"170 0 LINE"
);
},
{
closed = 1;
nodes = (
"195 802 OFFCURVE",
"189 787 OFFCURVE",
"189 773 CURVE SMOOTH",
"189 763 OFFCURVE",
"192 754 OFFCURVE",
"198 747 CURVE SMOOTH",
"204 740 OFFCURVE",
"214 736 OFFCURVE",
"225 736 CURVE SMOOTH",
"236 736 OFFCURVE",
"247 740 OFFCURVE",
"257 747 CURVE",
"268 758 OFFCURVE",
"274 772 OFFCURVE",
"274 786 CURVE SMOOTH",
"274 795 OFFCURVE",
"272 805 OFFCURVE",
"266 812 CURVE",
"259 819 OFFCURVE",
"249 822 OFFCURVE",
"238 822 CURVE SMOOTH",
"227 822 OFFCURVE",
"216 819 OFFCURVE",
"207 811 CURVE"
);
}
);
width = 265;
},
{
layerId = "640DAD6F-C00E-41F4-8D6C-450924326D1A";
paths = (
{
closed = 1;
nodes = (
"306 650 LINE",
"168 650 LINE",
"77 0 LINE",
"215 0 LINE"
);
},
{
closed = 1;
nodes = (
"183 825 OFFCURVE",
"172 799 OFFCURVE",
"172 775 CURVE SMOOTH",
"172 758 OFFCURVE",
"177 742 OFFCURVE",
"188 730 CURVE SMOOTH",
"200 716 OFFCURVE",
"218 710 OFFCURVE",
"237 710 CURVE SMOOTH",
"256 710 OFFCURVE",
"275 716 OFFCURVE",
"292 729 CURVE",
"312 748 OFFCURVE",
"323 774 OFFCURVE",
"323 799 CURVE SMOOTH",
"323 816 OFFCURVE",
"318 831 OFFCURVE",
"308 844 CURVE",
"296 857 OFFCURVE",
"278 863 OFFCURVE",
"259 863 CURVE SMOOTH",
"240 863 OFFCURVE",
"220 857 OFFCURVE",
"204 843 CURVE SMOOTH"
);
}
);
width = 293;
}
);
note = Idotaccent;
unicode = 0130;
},
{
color = 9;
glyphname = Igrave;
layers = (
{
layerId = "F05DF1C3-6E5D-4CAE-86D8-BB1A1E5E50BF";
paths = (
{
closed = 1;
nodes = (
"261 650 LINE",
"185 650 LINE",
"94 0 LINE",
"170 0 LINE"
);
},
{
closed = 1;
nodes = (
"128 843 LINE",
"213 708 LINE",
"255 716 LINE",
"192 859 LINE"
);
}
);
width = 265;
},
{
layerId = "640DAD6F-C00E-41F4-8D6C-450924326D1A";
paths = (
{
closed = 1;
nodes = (
"306 650 LINE",
"168 650 LINE",
"77 0 LINE",
"215 0 LINE"
);
},
{
closed = 1;
nodes = (
"113 838 LINE",
"224 709 LINE",
"288 726 LINE",
"224 873 LINE"
);
}
);
width = 293;
}
);
note = Igrave;
unicode = 00CC;
},
{
glyphname = Imacron;
layers = (
{
layerId = "F05DF1C3-6E5D-4CAE-86D8-BB1A1E5E50BF";
paths = (
{
closed = 1;
nodes = (
"261 650 LINE",
"185 650 LINE",
"94 0 LINE",
"170 0 LINE"
);
},
{
closed = 1;
nodes = (
"330 807 LINE",
"145 807 LINE",
"140 771 LINE",
"325 771 LINE"
);
}
);
width = 265;
},
{
layerId = "640DAD6F-C00E-41F4-8D6C-450924326D1A";
paths = (
{
closed = 1;
nodes = (
"306 650 LINE",
"168 650 LINE",
"77 0 LINE",
"215 0 LINE"
);
},
{
closed = 1;
nodes = (
"360 817 LINE",
"146 817 LINE",
"138 759 LINE",
"353 759 LINE"
);
}
);
width = 293;
}
);
note = Imacron;
unicode = 012A;
},
{
glyphname = Iogonek;
layers = (
{
layerId = "F05DF1C3-6E5D-4CAE-86D8-BB1A1E5E50BF";
paths = (
{
closed = 1;
nodes = (
"261 650 LINE",
"185 650 LINE",
"94 2 LINE",
"50 -25 OFFCURVE",
"-18 -79 OFFCURVE",
"-18 -156 CURVE SMOOTH",
"-18 -235 OFFCURVE",
"54 -250 OFFCURVE",
"123 -250 CURVE",
"128 -218 LINE",
"80 -218 OFFCURVE",
"32 -207 OFFCURVE",
"32 -152 CURVE SMOOTH",
"32 -63 OFFCURVE",
"111 -12 OFFCURVE",
"133 0 CURVE",
"170 0 LINE"
);
}
);
width = 265;
},
{
layerId = "640DAD6F-C00E-41F4-8D6C-450924326D1A";
paths = (
{
closed = 1;
nodes = (
"306 650 LINE",
"168 650 LINE",
"77 4 LINE",
"26 -26 OFFCURVE",
"-38 -79 OFFCURVE",
"-38 -152 CURVE SMOOTH",
"-38 -234 OFFCURVE",
"32 -250 OFFCURVE",
"112 -250 CURVE",
"119 -201 LINE",
"77 -201 OFFCURVE",
"50 -190 OFFCURVE",
"50 -148 CURVE SMOOTH",
"50 -56 OFFCURVE",
"111 -14 OFFCURVE",
"139 0 CURVE",
"215 0 LINE"
);
}
);
width = 293;
}
);
note = Iogonek;
unicode = 012E;
},
{
glyphname = J;
layers = (
{
layerId = "F05DF1C3-6E5D-4CAE-86D8-BB1A1E5E50BF";
paths = (
{
closed = 1;
nodes = (
"15 33 LINE",
"15 33 OFFCURVE",
"42 -10 OFFCURVE",
"126 -10 CURVE SMOOTH",
"207 -10 OFFCURVE",
"279 30 OFFCURVE",
"302 191 CURVE SMOOTH",
"367 650 LINE",
"291 650 LINE",
"227 191 LINE SMOOTH",
"208 62 OFFCURVE",
"156 38 OFFCURVE",
"110 38 CURVE SMOOTH",
"53 38 OFFCURVE",
"31 71 OFFCURVE",
"31 71 CURVE"
);
}
);
width = 362;
},
{
layerId = "640DAD6F-C00E-41F4-8D6C-450924326D1A";
paths = (
{
closed = 1;
nodes = (
"16 29 LINE",
"16 29 OFFCURVE",
"50 -11 OFFCURVE",
"137 -11 CURVE SMOOTH",
"251 -11 OFFCURVE",
"321 43 OFFCURVE",
"345 214 CURVE SMOOTH",
"407 650 LINE",
"268 650 LINE",
"207 214 LINE SMOOTH",
"189 89 OFFCURVE",
"155 60 OFFCURVE",
"108 60 CURVE SMOOTH",
"65 60 OFFCURVE",
"39 87 OFFCURVE",
"39 87 CURVE"
);
}
);
width = 384;
}
);
note = J;
unicode = 004A;
},
{
glyphname = K;
layers = (
{
layerId = "F05DF1C3-6E5D-4CAE-86D8-BB1A1E5E50BF";
paths = (
{
closed = 1;
nodes = (
"94 0 LINE",
"170 0 LINE",
"203 240 LINE",
"288 302 LINE",
"465 0 LINE",
"560 0 LINE",
"352 360 LINE",
"620 650 LINE",
"559 650 LINE",
"300 366 LINE",
"211 296 LINE",
"261 650 LINE",
"185 650 LINE"
);
}
);
width = 580;
},
{
layerId = "640DAD6F-C00E-41F4-8D6C-450924326D1A";
paths = (
{
closed = 1;
nodes = (
"77 0 LINE",
"215 0 LINE",
"251 262 LINE",
"299 292 LINE",
"432 0 LINE",
"607 0 LINE",
"419 396 LINE",
"652 650 LINE",
"556 650 LINE",
"329 392 LINE",
"263 348 LINE",
"306 650 LINE",
"168 650 LINE"
);
}
);
width = 619;
}
);
note = K;
unicode = 004B;
},
{
glyphname = Kcommaaccent;
layers = (
{
layerId = "F05DF1C3-6E5D-4CAE-86D8-BB1A1E5E50BF";
paths = (
{
closed = 1;
nodes = (
"94 0 LINE",
"170 0 LINE",
"203 240 LINE",
"288 302 LINE",
"465 0 LINE",
"560 0 LINE",
"352 360 LINE",
"620 650 LINE",
"559 650 LINE",
"300 366 LINE",
"211 296 LINE",
"261 650 LINE",
"185 650 LINE"
);
},
{
closed = 1;
nodes = (
"263 -62 OFFCURVE",
"258 -75 OFFCURVE",
"258 -87 CURVE SMOOTH",
"258 -95 OFFCURVE",
"260 -102 OFFCURVE",
"265 -108 CURVE",
"271 -114 OFFCURVE",
"280 -117 OFFCURVE",
"290 -117 CURVE",
"291 -161 OFFCURVE",
"261 -227 OFFCURVE",
"209 -269 CURVE",
"225 -288 LINE",
"286 -242 OFFCURVE",
"334 -151 OFFCURVE",
"334 -93 CURVE SMOOTH",
"334 -80 OFFCURVE",
"331 -69 OFFCURVE",
"326 -60 CURVE",
"322 -54 LINE",
"316 -48 OFFCURVE",
"308 -45 OFFCURVE",
"299 -45 CURVE SMOOTH",
"290 -45 OFFCURVE",
"281 -48 OFFCURVE",
"273 -54 CURVE SMOOTH"
);
}
);
width = 600;
},
{
layerId = "640DAD6F-C00E-41F4-8D6C-450924326D1A";
paths = (
{
closed = 1;
nodes = (
"77 0 LINE",
"215 0 LINE",
"251 262 LINE",
"299 292 LINE",
"432 0 LINE",
"607 0 LINE",
"419 396 LINE",
"652 650 LINE",
"556 650 LINE",
"329 392 LINE",
"263 348 LINE",
"306 650 LINE",
"168 650 LINE"
);
},
{
closed = 1;
nodes = (
"252 -77 OFFCURVE",
"243 -98 OFFCURVE",
"243 -118 CURVE SMOOTH",
"243 -131 OFFCURVE",
"248 -144 OFFCURVE",
"256 -154 CURVE",
"266 -164 OFFCURVE",
"280 -170 OFFCURVE",
"296 -170 CURVE SMOOTH",
"303 -170 LINE",
"302 -215 OFFCURVE",
"273 -265 OFFCURVE",
"219 -308 CURVE",
"244 -339 LINE",
"318 -289 OFFCURVE",
"375 -195 OFFCURVE",
"375 -123 CURVE SMOOTH",
"375 -99 OFFCURVE",
"369 -79 OFFCURVE",
"355 -62 CURVE",
"344 -51 OFFCURVE",
"329 -46 OFFCURVE",
"314 -46 CURVE SMOOTH",
"298 -46 OFFCURVE",
"282 -51 OFFCURVE",
"269 -62 CURVE SMOOTH"
);
}
);
width = 626;
}
);
note = Kcommaaccent;
unicode = 0136;
},
{
glyphname = L;
layers = (
{
layerId = "F05DF1C3-6E5D-4CAE-86D8-BB1A1E5E50BF";
paths = (
{
closed = 1;
nodes = (
"466 48 LINE",
"176 48 LINE",
"261 650 LINE",
"185 650 LINE",
"94 0 LINE",
"459 0 LINE"
);
}
);
width = 471;
},
{
layerId = "640DAD6F-C00E-41F4-8D6C-450924326D1A";
paths = (
{
closed = 1;
nodes = (
"477 72 LINE",
"225 72 LINE",
"306 650 LINE",
"168 650 LINE",
"77 0 LINE",
"467 0 LINE"
);
}
);
width = 479;
}
);
note = L;
unicode = 004C;
},
{
glyphname = Lacute;
layers = (
{
layerId = "F05DF1C3-6E5D-4CAE-86D8-BB1A1E5E50BF";
paths = (
{
closed = 1;
nodes = (
"466 48 LINE",
"176 48 LINE",
"261 650 LINE",
"185 650 LINE",
"94 0 LINE",
"459 0 LINE"
);
},
{
closed = 1;
nodes = (
"294 856 LINE",
"198 711 LINE",
"235 706 LINE",
"355 841 LINE"
);
}
);
width = 475;
},
{
layerId = "640DAD6F-C00E-41F4-8D6C-450924326D1A";
paths = (
{
closed = 1;
nodes = (
"477 72 LINE",
"225 72 LINE",
"306 650 LINE",
"168 650 LINE",
"77 0 LINE",
"467 0 LINE"
);
},
{
closed = 1;
nodes = (
"296 865 LINE",
"205 713 LINE",
"261 704 LINE",
"400 834 LINE"
);
}
);
width = 491;
}
);
note = Lacute;
unicode = 0139;
},
{
glyphname = Lcaron;
layers = (
{
layerId = "F05DF1C3-6E5D-4CAE-86D8-BB1A1E5E50BF";
paths = (
{
closed = 1;
nodes = (
"466 48 LINE",
"176 48 LINE",
"261 650 LINE",
"185 650 LINE",
"94 0 LINE",
"459 0 LINE"
);
},
{
closed = 1;
nodes = (
"210 708 LINE",
"250 708 LINE",
"386 829 LINE",
"361 855 LINE",
"237 754 LINE",
"141 855 LINE",
"110 831 LINE"
);
}
);
width = 475;
},
{
layerId = "640DAD6F-C00E-41F4-8D6C-450924326D1A";
paths = (
{
closed = 1;
nodes = (
"477 72 LINE",
"225 72 LINE",
"306 650 LINE",
"168 650 LINE",
"77 0 LINE",
"467 0 LINE"
);
},
{
closed = 1;
nodes = (
"212 707 LINE",
"282 707 LINE",
"416 841 LINE",
"379 880 LINE",
"258 787 LINE",
"163 880 LINE",
"116 845 LINE"
);
}
);
width = 491;
}
);
note = Lcaron;
unicode = 013D;
},
{
glyphname = Lcommaaccent;
layers = (
{
layerId = "F05DF1C3-6E5D-4CAE-86D8-BB1A1E5E50BF";
paths = (
{
closed = 1;
nodes = (
"466 48 LINE",
"176 48 LINE",
"261 650 LINE",
"185 650 LINE",
"94 0 LINE",
"459 0 LINE"
);
},
{
closed = 1;
nodes = (
"230 -62 OFFCURVE",
"225 -75 OFFCURVE",
"225 -87 CURVE SMOOTH",
"225 -95 OFFCURVE",
"227 -102 OFFCURVE",
"232 -108 CURVE",
"238 -114 OFFCURVE",
"247 -117 OFFCURVE",
"257 -117 CURVE",
"258 -161 OFFCURVE",
"228 -227 OFFCURVE",
"176 -269 CURVE",
"192 -288 LINE",
"253 -242 OFFCURVE",
"301 -151 OFFCURVE",
"301 -93 CURVE SMOOTH",
"301 -80 OFFCURVE",
"298 -69 OFFCURVE",
"293 -60 CURVE",
"289 -54 LINE",
"283 -48 OFFCURVE",
"275 -45 OFFCURVE",
"266 -45 CURVE SMOOTH",
"257 -45 OFFCURVE",
"248 -48 OFFCURVE",
"240 -54 CURVE SMOOTH"
);
}
);
width = 475;
},
{
layerId = "640DAD6F-C00E-41F4-8D6C-450924326D1A";
paths = (
{
closed = 1;
nodes = (
"477 72 LINE",
"225 72 LINE",
"306 650 LINE",
"168 650 LINE",
"77 0 LINE",
"467 0 LINE"
);
},
{
closed = 1;
nodes = (
"208 -77 OFFCURVE",
"199 -98 OFFCURVE",
"199 -118 CURVE SMOOTH",
"199 -131 OFFCURVE",
"204 -144 OFFCURVE",
"212 -154 CURVE",
"222 -164 OFFCURVE",
"236 -170 OFFCURVE",
"252 -170 CURVE SMOOTH",
"259 -170 LINE",
"258 -215 OFFCURVE",
"229 -265 OFFCURVE",
"175 -308 CURVE",
"200 -339 LINE",
"274 -289 OFFCURVE",
"331 -195 OFFCURVE",
"331 -123 CURVE SMOOTH",
"331 -99 OFFCURVE",
"325 -79 OFFCURVE",
"311 -62 CURVE",
"300 -51 OFFCURVE",
"285 -46 OFFCURVE",
"270 -46 CURVE SMOOTH",
"254 -46 OFFCURVE",
"238 -51 OFFCURVE",
"225 -62 CURVE SMOOTH"
);
}
);
width = 491;
}
);
note = Lcommaaccent;
unicode = 013B;
},
{
glyphname = Lslash;
layers = (
{
layerId = "F05DF1C3-6E5D-4CAE-86D8-BB1A1E5E50BF";
paths = (
{
closed = 1;
nodes = (
"492 48 LINE",
"202 48 LINE",
"239 312 LINE",
"397 417 LINE",
"380 444 LINE",
"245 354 LINE",
"287 650 LINE",
"211 650 LINE",
"162 299 LINE",
"67 236 LINE",
"83 209 LINE",
"156 257 LINE",
"120 0 LINE",
"485 0 LINE"
);
}
);
width = 496;
},
{
layerId = "640DAD6F-C00E-41F4-8D6C-450924326D1A";
paths = (
{
closed = 1;
nodes = (
"511 72 LINE",
"259 72 LINE",
"293 318 LINE",
"439 415 LINE",
"412 457 LINE",
"303 384 LINE",
"340 650 LINE",
"202 650 LINE",
"150 282 LINE",
"63 224 LINE",
"89 182 LINE",
"141 217 LINE",
"111 0 LINE",
"501 0 LINE"
);
}
);
width = 514;
}
);
note = Lslash;
unicode = 0141;
},
{
glyphname = M;
layers = (
{
layerId = "F05DF1C3-6E5D-4CAE-86D8-BB1A1E5E50BF";
paths = (
{
closed = 1;
nodes = (
"829 650 LINE",
"741 650 LINE",
"434 93 LINE",
"433 93 LINE",
"282 650 LINE",
"188 650 LINE",
"94 0 LINE",
"149 0 LINE",
"229 557 LINE",
"377 0 LINE",
"438 0 LINE",
"742 557 LINE",
"667 0 LINE",
"741 0 LINE"
);
}
);
width = 835;
},
{
layerId = "640DAD6F-C00E-41F4-8D6C-450924326D1A";
paths = (
{
closed = 1;
nodes = (
"863 650 LINE",
"708 650 LINE",
"462 171 LINE",
"458 171 LINE",
"343 650 LINE",
"176 650 LINE",
"77 0 LINE",
"163 0 LINE",
"235 492 LINE",
"238 492 LINE",
"350 0 LINE",
"453 0 LINE",
"703 492 LINE",
"705 492 LINE",
"644 0 LINE",
"779 0 LINE"
);
}
);
width = 856;
}
);
note = M;
unicode = 004D;
},
{
glyphname = N;
layers = (
{
layerId = "F05DF1C3-6E5D-4CAE-86D8-BB1A1E5E50BF";
paths = (
{
closed = 1;
nodes = (
"648 650 LINE",
"593 650 LINE",
"521 138 LINE",
"521 114 LINE",
"264 650 LINE",
"185 650 LINE",
"94 0 LINE",
"149 0 LINE",
"223 523 LINE",
"222 554 LINE",
"223 554 LINE",
"491 0 LINE",
"557 0 LINE"
);
}
);
width = 651;
},
{
layerId = "640DAD6F-C00E-41F4-8D6C-450924326D1A";
paths = (
{
closed = 1;
nodes = (
"665 650 LINE",
"579 650 LINE",
"524 254 LINE",
"525 209 LINE",
"522 209 LINE",
"311 650 LINE",
"168 650 LINE",
"77 0 LINE",
"163 0 LINE",
"223 430 LINE",
"223 488 LINE",
"225 488 LINE",
"466 0 LINE",
"574 0 LINE"
);
}
);
width = 651;
}
);
note = N;
unicode = 004E;
},
{
glyphname = Nacute;
layers = (
{
layerId = "F05DF1C3-6E5D-4CAE-86D8-BB1A1E5E50BF";
paths = (
{
closed = 1;
nodes = (
"648 650 LINE",
"593 650 LINE",
"521 138 LINE",
"521 114 LINE",
"264 650 LINE",
"185 650 LINE",
"94 0 LINE",
"149 0 LINE",
"223 523 LINE",
"222 554 LINE",
"223 554 LINE",
"491 0 LINE",
"557 0 LINE"
);
},
{
closed = 1;
nodes = (
"500 856 LINE",
"404 711 LINE",
"441 706 LINE",
"561 841 LINE"
);
}
);
width = 651;
},
{
layerId = "640DAD6F-C00E-41F4-8D6C-450924326D1A";
paths = (
{
closed = 1;
nodes = (
"665 650 LINE",
"579 650 LINE",
"524 254 LINE",
"525 209 LINE",
"522 209 LINE",
"311 650 LINE",
"168 650 LINE",
"77 0 LINE",
"163 0 LINE",
"223 430 LINE",
"223 488 LINE",
"225 488 LINE",
"466 0 LINE",
"574 0 LINE"
);
},
{
closed = 1;
nodes = (
"489 865 LINE",
"398 713 LINE",
"454 704 LINE",
"593 834 LINE"
);
}
);
width = 651;
}
);
note = Nacute;
unicode = 0143;
},
{
glyphname = Ncaron;
layers = (
{
layerId = "F05DF1C3-6E5D-4CAE-86D8-BB1A1E5E50BF";
paths = (
{
closed = 1;
nodes = (
"648 650 LINE",
"593 650 LINE",
"521 138 LINE",
"521 114 LINE",
"264 650 LINE",
"185 650 LINE",
"94 0 LINE",
"149 0 LINE",
"223 523 LINE",
"222 554 LINE",
"223 554 LINE",
"491 0 LINE",
"557 0 LINE"
);
},
{
closed = 1;
nodes = (
"427 708 LINE",
"467 708 LINE",
"603 829 LINE",
"578 855 LINE",
"454 754 LINE",
"358 855 LINE",
"327 831 LINE"
);
}
);
width = 651;
},
{
layerId = "640DAD6F-C00E-41F4-8D6C-450924326D1A";
paths = (
{
closed = 1;
nodes = (
"665 650 LINE",
"579 650 LINE",
"524 254 LINE",
"525 209 LINE",
"522 209 LINE",
"311 650 LINE",
"168 650 LINE",
"77 0 LINE",
"163 0 LINE",
"223 430 LINE",
"223 488 LINE",
"225 488 LINE",
"466 0 LINE",
"574 0 LINE"
);
},
{
closed = 1;
nodes = (
"423 707 LINE",
"493 707 LINE",
"627 841 LINE",
"590 880 LINE",
"469 787 LINE",
"374 880 LINE",
"327 845 LINE"
);
}
);
width = 651;
}
);
note = Ncaron;
unicode = 0147;
},
{
glyphname = Ncommaaccent;
layers = (
{
layerId = "F05DF1C3-6E5D-4CAE-86D8-BB1A1E5E50BF";
paths = (
{
closed = 1;
nodes = (
"648 650 LINE",
"593 650 LINE",
"521 138 LINE",
"521 114 LINE",
"264 650 LINE",
"185 650 LINE",
"94 0 LINE",
"149 0 LINE",
"223 523 LINE",
"222 554 LINE",
"223 554 LINE",
"491 0 LINE",
"557 0 LINE"
);
},
{
closed = 1;
nodes = (
"289 -62 OFFCURVE",
"284 -75 OFFCURVE",
"284 -87 CURVE SMOOTH",
"284 -95 OFFCURVE",
"286 -102 OFFCURVE",
"291 -108 CURVE",
"297 -114 OFFCURVE",
"306 -117 OFFCURVE",
"316 -117 CURVE",
"317 -161 OFFCURVE",
"287 -227 OFFCURVE",
"235 -269 CURVE",
"251 -288 LINE",
"312 -242 OFFCURVE",
"360 -151 OFFCURVE",
"360 -93 CURVE SMOOTH",
"360 -80 OFFCURVE",
"357 -69 OFFCURVE",
"352 -60 CURVE",
"348 -54 LINE",
"342 -48 OFFCURVE",
"334 -45 OFFCURVE",
"325 -45 CURVE SMOOTH",
"316 -45 OFFCURVE",
"307 -48 OFFCURVE",
"299 -54 CURVE SMOOTH"
);
}
);
width = 651;
},
{
layerId = "640DAD6F-C00E-41F4-8D6C-450924326D1A";
paths = (
{
closed = 1;
nodes = (
"665 650 LINE",
"579 650 LINE",
"524 254 LINE",
"525 209 LINE",
"522 209 LINE",
"311 650 LINE",
"168 650 LINE",
"77 0 LINE",
"163 0 LINE",
"223 430 LINE",
"223 488 LINE",
"225 488 LINE",
"466 0 LINE",
"574 0 LINE"
);
},
{
closed = 1;
nodes = (
"256 -77 OFFCURVE",
"247 -98 OFFCURVE",
"247 -118 CURVE SMOOTH",
"247 -131 OFFCURVE",
"252 -144 OFFCURVE",
"260 -154 CURVE",
"270 -164 OFFCURVE",
"284 -170 OFFCURVE",
"300 -170 CURVE SMOOTH",
"307 -170 LINE",
"306 -215 OFFCURVE",
"277 -265 OFFCURVE",
"223 -308 CURVE",
"248 -339 LINE",
"322 -289 OFFCURVE",
"379 -195 OFFCURVE",
"379 -123 CURVE SMOOTH",
"379 -99 OFFCURVE",
"373 -79 OFFCURVE",
"359 -62 CURVE",
"348 -51 OFFCURVE",
"333 -46 OFFCURVE",
"318 -46 CURVE SMOOTH",
"302 -46 OFFCURVE",
"286 -51 OFFCURVE",
"273 -62 CURVE SMOOTH"
);
}
);
width = 651;
}
);
note = Ncommaaccent;
unicode = 0145;
},
{
glyphname = Ntilde;
layers = (
{
layerId = "F05DF1C3-6E5D-4CAE-86D8-BB1A1E5E50BF";
paths = (
{
closed = 1;
nodes = (
"648 650 LINE",
"593 650 LINE",
"521 138 LINE",
"521 114 LINE",
"264 650 LINE",
"185 650 LINE",
"94 0 LINE",
"149 0 LINE",
"223 523 LINE",
"222 554 LINE",
"223 554 LINE",
"491 0 LINE",
"557 0 LINE"
);
},
{
closed = 1;
nodes = (
"576 806 LINE",
"576 806 OFFCURVE",
"557 779 OFFCURVE",
"521 779 CURVE SMOOTH",
"470 779 OFFCURVE",
"438 825 OFFCURVE",
"375 825 CURVE SMOOTH",
"310 825 OFFCURVE",
"270 762 OFFCURVE",
"270 762 CURVE",
"290 737 LINE",
"290 737 OFFCURVE",
"316 776 OFFCURVE",
"355 776 CURVE SMOOTH",
"409 776 OFFCURVE",
"444 730 OFFCURVE",
"503 730 CURVE SMOOTH",
"564 730 OFFCURVE",
"595 781 OFFCURVE",
"595 781 CURVE"
);
}
);
width = 651;
},
{
layerId = "640DAD6F-C00E-41F4-8D6C-450924326D1A";
paths = (
{
closed = 1;
nodes = (
"665 650 LINE",
"579 650 LINE",
"524 254 LINE",
"525 209 LINE",
"522 209 LINE",
"311 650 LINE",
"168 650 LINE",
"77 0 LINE",
"163 0 LINE",
"223 430 LINE",
"223 488 LINE",
"225 488 LINE",
"466 0 LINE",
"574 0 LINE"
);
},
{
closed = 1;
nodes = (
"598 840 LINE",
"598 840 OFFCURVE",
"580 808 OFFCURVE",
"544 808 CURVE SMOOTH",
"492 808 OFFCURVE",
"471 855 OFFCURVE",
"398 855 CURVE SMOOTH",
"312 855 OFFCURVE",
"263 765 OFFCURVE",
"263 765 CURVE",
"294 729 LINE",
"294 729 OFFCURVE",
"321 774 OFFCURVE",
"357 774 CURVE SMOOTH",
"414 774 OFFCURVE",
"442 726 OFFCURVE",
"506 726 CURVE SMOOTH",
"593 726 OFFCURVE",
"629 805 OFFCURVE",
"629 805 CURVE"
);
}
);
width = 651;
}
);
note = Ntilde;
unicode = 00D1;
},
{
glyphname = O;
layers = (
{
anchors = (
{
name = bottom;
position = "{333, 0}";
},
{
name = center;
position = "{339, 325}";
},
{
name = ogonek;
position = "{549, 10}";
},
{
name = top;
position = "{410, 650}";
},
{
name = topleft;
position = "{84, 650}";
},
{
name = topright;
position = "{548, 650}";
}
);
layerId = "F05DF1C3-6E5D-4CAE-86D8-BB1A1E5E50BF";
paths = (
{
closed = 1;
nodes = (
"657 538 OFFCURVE",
"586 659 OFFCURVE",
"414 659 CURVE SMOOTH",
"212 659 OFFCURVE",
"88 496 OFFCURVE",
"88 260 CURVE SMOOTH",
"88 92 OFFCURVE",
"177 -10 OFFCURVE",
"330 -10 CURVE SMOOTH",
"506 -10 OFFCURVE",
"657 141 OFFCURVE",
"657 395 CURVE SMOOTH"
);
},
{
closed = 1;
nodes = (
"577 155 OFFCURVE",
"462 38 OFFCURVE",
"334 38 CURVE SMOOTH",
"228 38 OFFCURVE",
"167 118 OFFCURVE",
"167 249 CURVE SMOOTH",
"167 485 OFFCURVE",
"265 611 OFFCURVE",
"410 611 CURVE SMOOTH",
"529 611 OFFCURVE",
"577 516 OFFCURVE",
"577 403 CURVE SMOOTH"
);
}
);
width = 654;
},
{
anchors = (
{
name = bottom;
position = "{332, 0}";
},
{
name = center;
position = "{344, 325}";
},
{
name = ogonek;
position = "{557, 10}";
},
{
name = top;
position = "{418, 650}";
},
{
name = topleft;
position = "{84, 650}";
},
{
name = topright;
position = "{577, 650}";
}
);
layerId = "640DAD6F-C00E-41F4-8D6C-450924326D1A";
paths = (
{
closed = 1;
nodes = (
"677 537 OFFCURVE",
"602 660 OFFCURVE",
"416 660 CURVE SMOOTH",
"197 660 OFFCURVE",
"76 491 OFFCURVE",
"76 259 CURVE SMOOTH",
"76 92 OFFCURVE",
"169 -11 OFFCURVE",
"335 -11 CURVE SMOOTH",
"527 -11 OFFCURVE",
"677 146 OFFCURVE",
"677 392 CURVE SMOOTH"
);
},
{
closed = 1;
nodes = (
"530 152 OFFCURVE",
"445 60 OFFCURVE",
"342 60 CURVE SMOOTH",
"263 60 OFFCURVE",
"222 125 OFFCURVE",
"222 225 CURVE SMOOTH",
"222 491 OFFCURVE",
"297 588 OFFCURVE",
"409 588 CURVE SMOOTH",
"494 588 OFFCURVE",
"530 517 OFFCURVE",
"530 421 CURVE SMOOTH"
);
}
);
width = 663;
}
);
note = O;
unicode = 004F;
},
{
color = 9;
glyphname = Oacute;
layers = (
{
layerId = "F05DF1C3-6E5D-4CAE-86D8-BB1A1E5E50BF";
paths = (
{
closed = 1;
nodes = (
"657 538 OFFCURVE",
"586 659 OFFCURVE",
"414 659 CURVE SMOOTH",
"212 659 OFFCURVE",
"88 496 OFFCURVE",
"88 260 CURVE SMOOTH",
"88 92 OFFCURVE",
"177 -10 OFFCURVE",
"330 -10 CURVE SMOOTH",
"506 -10 OFFCURVE",
"657 141 OFFCURVE",
"657 395 CURVE SMOOTH"
);
},
{
closed = 1;
nodes = (
"577 155 OFFCURVE",
"462 38 OFFCURVE",
"334 38 CURVE SMOOTH",
"228 38 OFFCURVE",
"167 118 OFFCURVE",
"167 249 CURVE SMOOTH",
"167 485 OFFCURVE",
"265 611 OFFCURVE",
"410 611 CURVE SMOOTH",
"529 611 OFFCURVE",
"577 516 OFFCURVE",
"577 403 CURVE SMOOTH"
);
},
{
closed = 1;
nodes = (
"480 856 LINE",
"384 711 LINE",
"421 706 LINE",
"541 841 LINE"
);
}
);
width = 654;
},
{
layerId = "640DAD6F-C00E-41F4-8D6C-450924326D1A";
paths = (
{
closed = 1;
nodes = (
"677 537 OFFCURVE",
"602 660 OFFCURVE",
"416 660 CURVE SMOOTH",
"197 660 OFFCURVE",
"76 491 OFFCURVE",
"76 259 CURVE SMOOTH",
"76 92 OFFCURVE",
"169 -11 OFFCURVE",
"335 -11 CURVE SMOOTH",
"527 -11 OFFCURVE",
"677 146 OFFCURVE",
"677 392 CURVE SMOOTH"
);
},
{
closed = 1;
nodes = (
"530 152 OFFCURVE",
"445 60 OFFCURVE",
"342 60 CURVE SMOOTH",
"263 60 OFFCURVE",
"222 125 OFFCURVE",
"222 225 CURVE SMOOTH",
"222 491 OFFCURVE",
"297 588 OFFCURVE",
"409 588 CURVE SMOOTH",
"494 588 OFFCURVE",
"530 517 OFFCURVE",
"530 421 CURVE SMOOTH"
);
},
{
closed = 1;
nodes = (
"465 865 LINE",
"374 713 LINE",
"430 704 LINE",
"569 834 LINE"
);
}
);
width = 663;
}
);
note = Oacute;
unicode = 00D3;
},
{
color = 9;
glyphname = Ocircumflex;
layers = (
{
layerId = "F05DF1C3-6E5D-4CAE-86D8-BB1A1E5E50BF";
paths = (
{
closed = 1;
nodes = (
"657 538 OFFCURVE",
"586 659 OFFCURVE",
"414 659 CURVE SMOOTH",
"212 659 OFFCURVE",
"88 496 OFFCURVE",
"88 260 CURVE SMOOTH",
"88 92 OFFCURVE",
"177 -10 OFFCURVE",
"330 -10 CURVE SMOOTH",
"506 -10 OFFCURVE",
"657 141 OFFCURVE",
"657 395 CURVE SMOOTH"
);
},
{
closed = 1;
nodes = (
"577 155 OFFCURVE",
"462 38 OFFCURVE",
"334 38 CURVE SMOOTH",
"228 38 OFFCURVE",
"167 118 OFFCURVE",
"167 249 CURVE SMOOTH",
"167 485 OFFCURVE",
"265 611 OFFCURVE",
"410 611 CURVE SMOOTH",
"529 611 OFFCURVE",
"577 516 OFFCURVE",
"577 403 CURVE SMOOTH"
);
},
{
closed = 1;
nodes = (
"459 878 LINE",
"419 878 LINE",
"294 764 LINE",
"309 732 LINE",
"432 829 LINE",
"528 732 LINE",
"551 764 LINE"
);
}
);
width = 654;
},
{
layerId = "640DAD6F-C00E-41F4-8D6C-450924326D1A";
paths = (
{
closed = 1;
nodes = (
"677 537 OFFCURVE",
"602 660 OFFCURVE",
"416 660 CURVE SMOOTH",
"197 660 OFFCURVE",
"76 491 OFFCURVE",
"76 259 CURVE SMOOTH",
"76 92 OFFCURVE",
"169 -11 OFFCURVE",
"335 -11 CURVE SMOOTH",
"527 -11 OFFCURVE",
"677 146 OFFCURVE",
"677 392 CURVE SMOOTH"
);
},
{
closed = 1;
nodes = (
"530 152 OFFCURVE",
"445 60 OFFCURVE",
"342 60 CURVE SMOOTH",
"263 60 OFFCURVE",
"222 125 OFFCURVE",
"222 225 CURVE SMOOTH",
"222 491 OFFCURVE",
"297 588 OFFCURVE",
"409 588 CURVE SMOOTH",
"494 588 OFFCURVE",
"530 517 OFFCURVE",
"530 421 CURVE SMOOTH"
);
},
{
closed = 1;
nodes = (
"479 888 LINE",
"409 888 LINE",
"294 766 LINE",
"316 721 LINE",
"433 806 LINE",
"525 721 LINE",
"559 766 LINE"
);
}
);
width = 663;
}
);
note = Ocircumflex;
unicode = 00D4;
},
{
glyphname = Odieresis;
layers = (
{
layerId = "F05DF1C3-6E5D-4CAE-86D8-BB1A1E5E50BF";
paths = (
{
closed = 1;
nodes = (
"657 538 OFFCURVE",
"586 659 OFFCURVE",
"414 659 CURVE SMOOTH",
"212 659 OFFCURVE",
"88 496 OFFCURVE",
"88 260 CURVE SMOOTH",
"88 92 OFFCURVE",
"177 -10 OFFCURVE",
"330 -10 CURVE SMOOTH",
"506 -10 OFFCURVE",
"657 141 OFFCURVE",
"657 395 CURVE SMOOTH"
);
},
{
closed = 1;
nodes = (
"577 155 OFFCURVE",
"462 38 OFFCURVE",
"334 38 CURVE SMOOTH",
"228 38 OFFCURVE",
"167 118 OFFCURVE",
"167 249 CURVE SMOOTH",
"167 485 OFFCURVE",
"265 611 OFFCURVE",
"410 611 CURVE SMOOTH",
"529 611 OFFCURVE",
"577 516 OFFCURVE",
"577 403 CURVE SMOOTH"
);
},
{
closed = 1;
nodes = (
"470 799 OFFCURVE",
"464 786 OFFCURVE",
"464 773 CURVE SMOOTH",
"464 764 OFFCURVE",
"467 756 OFFCURVE",
"472 750 CURVE",
"478 744 OFFCURVE",
"487 740 OFFCURVE",
"496 740 CURVE SMOOTH",
"505 740 OFFCURVE",
"516 744 OFFCURVE",
"524 750 CURVE",
"534 760 OFFCURVE",
"540 773 OFFCURVE",
"540 786 CURVE SMOOTH",
"540 795 OFFCURVE",
"537 803 OFFCURVE",
"532 809 CURVE",
"526 815 OFFCURVE",
"516 819 OFFCURVE",
"507 819 CURVE SMOOTH",
"498 819 OFFCURVE",
"488 815 OFFCURVE",
"480 809 CURVE"
);
},
{
closed = 1;
nodes = (
"316 799 OFFCURVE",
"310 786 OFFCURVE",
"310 773 CURVE SMOOTH",
"310 764 OFFCURVE",
"313 756 OFFCURVE",
"318 750 CURVE",
"324 744 OFFCURVE",
"334 740 OFFCURVE",
"343 740 CURVE SMOOTH",
"352 740 OFFCURVE",
"362 744 OFFCURVE",
"370 750 CURVE",
"380 760 OFFCURVE",
"386 773 OFFCURVE",
"386 786 CURVE SMOOTH",
"386 794 OFFCURVE",
"384 803 OFFCURVE",
"378 809 CURVE SMOOTH",
"372 815 OFFCURVE",
"364 819 OFFCURVE",
"354 819 CURVE SMOOTH",
"344 819 OFFCURVE",
"334 815 OFFCURVE",
"326 809 CURVE"
);
}
);
width = 654;
},
{
layerId = "640DAD6F-C00E-41F4-8D6C-450924326D1A";
paths = (
{
closed = 1;
nodes = (
"677 537 OFFCURVE",
"602 660 OFFCURVE",
"416 660 CURVE SMOOTH",
"197 660 OFFCURVE",
"76 491 OFFCURVE",
"76 259 CURVE SMOOTH",
"76 92 OFFCURVE",
"169 -11 OFFCURVE",
"335 -11 CURVE SMOOTH",
"527 -11 OFFCURVE",
"677 146 OFFCURVE",
"677 392 CURVE SMOOTH"
);
},
{
closed = 1;
nodes = (
"530 152 OFFCURVE",
"445 60 OFFCURVE",
"342 60 CURVE SMOOTH",
"263 60 OFFCURVE",
"222 125 OFFCURVE",
"222 225 CURVE SMOOTH",
"222 491 OFFCURVE",
"297 588 OFFCURVE",
"409 588 CURVE SMOOTH",
"494 588 OFFCURVE",
"530 517 OFFCURVE",
"530 421 CURVE SMOOTH"
);
},
{
closed = 1;
nodes = (
"466 822 OFFCURVE",
"456 798 OFFCURVE",
"456 776 CURVE SMOOTH",
"456 761 OFFCURVE",
"461 746 OFFCURVE",
"470 735 CURVE SMOOTH",
"480 723 OFFCURVE",
"495 717 OFFCURVE",
"512 717 CURVE SMOOTH",
"528 717 OFFCURVE",
"546 723 OFFCURVE",
"561 735 CURVE",
"580 752 OFFCURVE",
"590 775 OFFCURVE",
"590 798 CURVE SMOOTH",
"590 813 OFFCURVE",
"585 827 OFFCURVE",
"576 839 CURVE",
"564 850 OFFCURVE",
"549 856 OFFCURVE",
"532 856 CURVE SMOOTH",
"515 856 OFFCURVE",
"498 850 OFFCURVE",
"484 839 CURVE"
);
},
{
closed = 1;
nodes = (
"280 822 OFFCURVE",
"270 798 OFFCURVE",
"270 776 CURVE SMOOTH",
"270 761 OFFCURVE",
"275 746 OFFCURVE",
"284 735 CURVE",
"295 723 OFFCURVE",
"311 717 OFFCURVE",
"327 717 CURVE SMOOTH",
"343 717 OFFCURVE",
"360 723 OFFCURVE",
"375 735 CURVE",
"394 752 OFFCURVE",
"404 775 OFFCURVE",
"404 798 CURVE SMOOTH",
"404 813 OFFCURVE",
"399 827 OFFCURVE",
"390 839 CURVE",
"379 850 OFFCURVE",
"364 856 OFFCURVE",
"347 856 CURVE SMOOTH",
"330 856 OFFCURVE",
"312 850 OFFCURVE",
"298 839 CURVE"
);
}
);
width = 663;
}
);
note = Odieresis;
unicode = 00D6;
},
{
color = 9;
glyphname = Ograve;
layers = (
{
layerId = "F05DF1C3-6E5D-4CAE-86D8-BB1A1E5E50BF";
paths = (
{
closed = 1;
nodes = (
"657 538 OFFCURVE",
"586 659 OFFCURVE",
"414 659 CURVE SMOOTH",
"212 659 OFFCURVE",
"88 496 OFFCURVE",
"88 260 CURVE SMOOTH",
"88 92 OFFCURVE",
"177 -10 OFFCURVE",
"330 -10 CURVE SMOOTH",
"506 -10 OFFCURVE",
"657 141 OFFCURVE",
"657 395 CURVE SMOOTH"
);
},
{
closed = 1;
nodes = (
"577 155 OFFCURVE",
"462 38 OFFCURVE",
"334 38 CURVE SMOOTH",
"228 38 OFFCURVE",
"167 118 OFFCURVE",
"167 249 CURVE SMOOTH",
"167 485 OFFCURVE",
"265 611 OFFCURVE",
"410 611 CURVE SMOOTH",
"529 611 OFFCURVE",
"577 516 OFFCURVE",
"577 403 CURVE SMOOTH"
);
},
{
closed = 1;
nodes = (
"323 843 LINE",
"408 708 LINE",
"450 716 LINE",
"387 859 LINE"
);
}
);
width = 654;
},
{
layerId = "640DAD6F-C00E-41F4-8D6C-450924326D1A";
paths = (
{
closed = 1;
nodes = (
"677 537 OFFCURVE",
"602 660 OFFCURVE",
"416 660 CURVE SMOOTH",
"197 660 OFFCURVE",
"76 491 OFFCURVE",
"76 259 CURVE SMOOTH",
"76 92 OFFCURVE",
"169 -11 OFFCURVE",
"335 -11 CURVE SMOOTH",
"527 -11 OFFCURVE",
"677 146 OFFCURVE",
"677 392 CURVE SMOOTH"
);
},
{
closed = 1;
nodes = (
"530 152 OFFCURVE",
"445 60 OFFCURVE",
"342 60 CURVE SMOOTH",
"263 60 OFFCURVE",
"222 125 OFFCURVE",
"222 225 CURVE SMOOTH",
"222 491 OFFCURVE",
"297 588 OFFCURVE",
"409 588 CURVE SMOOTH",
"494 588 OFFCURVE",
"530 517 OFFCURVE",
"530 421 CURVE SMOOTH"
);
},
{
closed = 1;
nodes = (
"298 838 LINE",
"409 709 LINE",
"473 726 LINE",
"409 873 LINE"
);
}
);
width = 663;
}
);
note = Ograve;
unicode = 00D2;
},
{
glyphname = Ohungarumlaut;
layers = (
{
layerId = "F05DF1C3-6E5D-4CAE-86D8-BB1A1E5E50BF";
paths = (
{
closed = 1;
nodes = (
"657 538 OFFCURVE",
"586 659 OFFCURVE",
"414 659 CURVE SMOOTH",
"212 659 OFFCURVE",
"88 496 OFFCURVE",
"88 260 CURVE SMOOTH",
"88 92 OFFCURVE",
"177 -10 OFFCURVE",
"330 -10 CURVE SMOOTH",
"506 -10 OFFCURVE",
"657 141 OFFCURVE",
"657 395 CURVE SMOOTH"
);
},
{
closed = 1;
nodes = (
"577 155 OFFCURVE",
"462 38 OFFCURVE",
"334 38 CURVE SMOOTH",
"228 38 OFFCURVE",
"167 118 OFFCURVE",
"167 249 CURVE SMOOTH",
"167 485 OFFCURVE",
"265 611 OFFCURVE",
"410 611 CURVE SMOOTH",
"529 611 OFFCURVE",
"577 516 OFFCURVE",
"577 403 CURVE SMOOTH"
);
},
{
closed = 1;
nodes = (
"453 725 LINE",
"484 711 LINE",
"566 840 LINE",
"516 853 LINE"
);
},
{
closed = 1;
nodes = (
"324 725 LINE",
"355 711 LINE",
"437 840 LINE",
"387 853 LINE"
);
}
);
width = 654;
},
{
layerId = "640DAD6F-C00E-41F4-8D6C-450924326D1A";
paths = (
{
closed = 1;
nodes = (
"677 537 OFFCURVE",
"602 660 OFFCURVE",
"416 660 CURVE SMOOTH",
"197 660 OFFCURVE",
"76 491 OFFCURVE",
"76 259 CURVE SMOOTH",
"76 92 OFFCURVE",
"169 -11 OFFCURVE",
"335 -11 CURVE SMOOTH",
"527 -11 OFFCURVE",
"677 146 OFFCURVE",
"677 392 CURVE SMOOTH"
);
},
{
closed = 1;
nodes = (
"530 152 OFFCURVE",
"445 60 OFFCURVE",
"342 60 CURVE SMOOTH",
"263 60 OFFCURVE",
"222 125 OFFCURVE",
"222 225 CURVE SMOOTH",
"222 491 OFFCURVE",
"297 588 OFFCURVE",
"409 588 CURVE SMOOTH",
"494 588 OFFCURVE",
"530 517 OFFCURVE",
"530 421 CURVE SMOOTH"
);
},
{
closed = 1;
nodes = (
"461 720 LINE",
"509 697 LINE",
"625 847 LINE",
"536 873 LINE"
);
},
{
closed = 1;
nodes = (
"306 720 LINE",
"353 697 LINE",
"469 847 LINE",
"380 873 LINE"
);
}
);
width = 663;
}
);
note = Ohungarumlaut;
unicode = 0150;
},
{
glyphname = Omacron;
layers = (
{
layerId = "F05DF1C3-6E5D-4CAE-86D8-BB1A1E5E50BF";
paths = (
{
closed = 1;
nodes = (
"657 538 OFFCURVE",
"586 659 OFFCURVE",
"414 659 CURVE SMOOTH",
"212 659 OFFCURVE",
"88 496 OFFCURVE",
"88 260 CURVE SMOOTH",
"88 92 OFFCURVE",
"177 -10 OFFCURVE",
"330 -10 CURVE SMOOTH",
"506 -10 OFFCURVE",
"657 141 OFFCURVE",
"657 395 CURVE SMOOTH"
);
},
{
closed = 1;
nodes = (
"577 155 OFFCURVE",
"462 38 OFFCURVE",
"334 38 CURVE SMOOTH",
"228 38 OFFCURVE",
"167 118 OFFCURVE",
"167 249 CURVE SMOOTH",
"167 485 OFFCURVE",
"265 611 OFFCURVE",
"410 611 CURVE SMOOTH",
"529 611 OFFCURVE",
"577 516 OFFCURVE",
"577 403 CURVE SMOOTH"
);
},
{
closed = 1;
nodes = (
"523 807 LINE",
"338 807 LINE",
"333 771 LINE",
"518 771 LINE"
);
}
);
width = 654;
},
{
layerId = "640DAD6F-C00E-41F4-8D6C-450924326D1A";
paths = (
{
closed = 1;
nodes = (
"677 537 OFFCURVE",
"602 660 OFFCURVE",
"416 660 CURVE SMOOTH",
"197 660 OFFCURVE",
"76 491 OFFCURVE",
"76 259 CURVE SMOOTH",
"76 92 OFFCURVE",
"169 -11 OFFCURVE",
"335 -11 CURVE SMOOTH",
"527 -11 OFFCURVE",
"677 146 OFFCURVE",
"677 392 CURVE SMOOTH"
);
},
{
closed = 1;
nodes = (
"530 152 OFFCURVE",
"445 60 OFFCURVE",
"342 60 CURVE SMOOTH",
"263 60 OFFCURVE",
"222 125 OFFCURVE",
"222 225 CURVE SMOOTH",
"222 491 OFFCURVE",
"297 588 OFFCURVE",
"409 588 CURVE SMOOTH",
"494 588 OFFCURVE",
"530 517 OFFCURVE",
"530 421 CURVE SMOOTH"
);
},
{
closed = 1;
nodes = (
"541 817 LINE",
"327 817 LINE",
"319 759 LINE",
"534 759 LINE"
);
}
);
width = 663;
}
);
note = Omacron;
unicode = 014C;
},
{
glyphname = Oslash;
layers = (
{
layerId = "F05DF1C3-6E5D-4CAE-86D8-BB1A1E5E50BF";
paths = (
{
closed = 1;
nodes = (
"657 488 OFFCURVE",
"627 572 OFFCURVE",
"559 619 CURVE",
"615 722 LINE",
"589 728 LINE",
"537 632 LINE",
"503 649 OFFCURVE",
"463 659 OFFCURVE",
"414 659 CURVE SMOOTH",
"212 659 OFFCURVE",
"88 496 OFFCURVE",
"88 260 CURVE SMOOTH",
"88 145 OFFCURVE",
"130 60 OFFCURVE",
"205 19 CURVE",
"144 -95 LINE",
"170 -101 LINE",
"229 8 LINE",
"258 -4 OFFCURVE",
"292 -10 OFFCURVE",
"330 -10 CURVE SMOOTH",
"506 -10 OFFCURVE",
"657 141 OFFCURVE",
"657 395 CURVE SMOOTH"
);
},
{
closed = 1;
nodes = (
"167 485 OFFCURVE",
"265 611 OFFCURVE",
"410 611 CURVE SMOOTH",
"451 611 OFFCURVE",
"484 599 OFFCURVE",
"509 580 CURVE",
"233 71 LINE",
"190 106 OFFCURVE",
"167 168 OFFCURVE",
"167 249 CURVE SMOOTH"
);
},
{
closed = 1;
nodes = (
"577 155 OFFCURVE",
"462 38 OFFCURVE",
"334 38 CURVE SMOOTH",
"304 38 OFFCURVE",
"277 44 OFFCURVE",
"255 56 CURVE",
"528 562 LINE",
"562 523 OFFCURVE",
"577 466 OFFCURVE",
"577 403 CURVE SMOOTH"
);
}
);
width = 654;
},
{
layerId = "640DAD6F-C00E-41F4-8D6C-450924326D1A";
paths = (
{
closed = 1;
nodes = (
"677 484 OFFCURVE",
"646 568 OFFCURVE",
"576 616 CURVE",
"632 715 LINE",
"592 726 LINE",
"541 636 LINE",
"506 651 OFFCURVE",
"465 660 OFFCURVE",
"416 660 CURVE SMOOTH",
"197 660 OFFCURVE",
"76 491 OFFCURVE",
"76 259 CURVE SMOOTH",
"76 147 OFFCURVE",
"117 65 OFFCURVE",
"194 22 CURVE",
"128 -96 LINE",
"168 -107 LINE",
"231 5 LINE",
"262 -5 OFFCURVE",
"296 -11 OFFCURVE",
"335 -11 CURVE SMOOTH",
"527 -11 OFFCURVE",
"677 146 OFFCURVE",
"677 392 CURVE SMOOTH"
);
},
{
closed = 1;
nodes = (
"222 491 OFFCURVE",
"297 588 OFFCURVE",
"409 588 CURVE SMOOTH",
"446 588 OFFCURVE",
"474 574 OFFCURVE",
"493 551 CURVE",
"246 114 LINE",
"230 142 OFFCURVE",
"222 180 OFFCURVE",
"222 225 CURVE SMOOTH"
);
},
{
closed = 1;
nodes = (
"530 152 OFFCURVE",
"445 60 OFFCURVE",
"342 60 CURVE SMOOTH",
"315 60 OFFCURVE",
"292 67 OFFCURVE",
"274 81 CURVE",
"516 510 LINE",
"525 484 OFFCURVE",
"530 454 OFFCURVE",
"530 421 CURVE SMOOTH"
);
}
);
width = 663;
}
);
note = Oslash;
unicode = 00D8;
},
{
color = 9;
glyphname = Otilde;
layers = (
{
layerId = "F05DF1C3-6E5D-4CAE-86D8-BB1A1E5E50BF";
paths = (
{
closed = 1;
nodes = (
"657 538 OFFCURVE",
"586 659 OFFCURVE",
"414 659 CURVE SMOOTH",
"212 659 OFFCURVE",
"88 496 OFFCURVE",
"88 260 CURVE SMOOTH",
"88 92 OFFCURVE",
"177 -10 OFFCURVE",
"330 -10 CURVE SMOOTH",
"506 -10 OFFCURVE",
"657 141 OFFCURVE",
"657 395 CURVE SMOOTH"
);
},
{
closed = 1;
nodes = (
"577 155 OFFCURVE",
"462 38 OFFCURVE",
"334 38 CURVE SMOOTH",
"228 38 OFFCURVE",
"167 118 OFFCURVE",
"167 249 CURVE SMOOTH",
"167 485 OFFCURVE",
"265 611 OFFCURVE",
"410 611 CURVE SMOOTH",
"529 611 OFFCURVE",
"577 516 OFFCURVE",
"577 403 CURVE SMOOTH"
);
},
{
closed = 1;
nodes = (
"571 806 LINE",
"571 806 OFFCURVE",
"552 779 OFFCURVE",
"516 779 CURVE SMOOTH",
"465 779 OFFCURVE",
"433 825 OFFCURVE",
"370 825 CURVE SMOOTH",
"305 825 OFFCURVE",
"265 762 OFFCURVE",
"265 762 CURVE",
"285 737 LINE",
"285 737 OFFCURVE",
"311 776 OFFCURVE",
"350 776 CURVE SMOOTH",
"404 776 OFFCURVE",
"439 730 OFFCURVE",
"498 730 CURVE SMOOTH",
"559 730 OFFCURVE",
"590 781 OFFCURVE",
"590 781 CURVE"
);
}
);
width = 654;
},
{
layerId = "640DAD6F-C00E-41F4-8D6C-450924326D1A";
paths = (
{
closed = 1;
nodes = (
"677 537 OFFCURVE",
"602 660 OFFCURVE",
"416 660 CURVE SMOOTH",
"197 660 OFFCURVE",
"76 491 OFFCURVE",
"76 259 CURVE SMOOTH",
"76 92 OFFCURVE",
"169 -11 OFFCURVE",
"335 -11 CURVE SMOOTH",
"527 -11 OFFCURVE",
"677 146 OFFCURVE",
"677 392 CURVE SMOOTH"
);
},
{
closed = 1;
nodes = (
"530 152 OFFCURVE",
"445 60 OFFCURVE",
"342 60 CURVE SMOOTH",
"263 60 OFFCURVE",
"222 125 OFFCURVE",
"222 225 CURVE SMOOTH",
"222 491 OFFCURVE",
"297 588 OFFCURVE",
"409 588 CURVE SMOOTH",
"494 588 OFFCURVE",
"530 517 OFFCURVE",
"530 421 CURVE SMOOTH"
);
},
{
closed = 1;
nodes = (
"587 840 LINE",
"587 840 OFFCURVE",
"569 808 OFFCURVE",
"533 808 CURVE SMOOTH",
"481 808 OFFCURVE",
"460 855 OFFCURVE",
"387 855 CURVE SMOOTH",
"301 855 OFFCURVE",
"252 765 OFFCURVE",
"252 765 CURVE",
"283 729 LINE",
"283 729 OFFCURVE",
"310 774 OFFCURVE",
"346 774 CURVE SMOOTH",
"403 774 OFFCURVE",
"431 726 OFFCURVE",
"495 726 CURVE SMOOTH",
"582 726 OFFCURVE",
"618 805 OFFCURVE",
"618 805 CURVE"
);
}
);
width = 663;
}
);
note = Otilde;
unicode = 00D5;
},
{
glyphname = OE;
layers = (
{
layerId = "F05DF1C3-6E5D-4CAE-86D8-BB1A1E5E50BF";
paths = (
{
closed = 1;
nodes = (
"907 48 LINE",
"610 48 LINE",
"638 248 LINE",
"643 266 OFFCURVE",
"647 286 OFFCURVE",
"650 306 CURVE",
"897 306 LINE",
"904 352 LINE",
"655 352 LINE",
"656 363 OFFCURVE",
"657 374 OFFCURVE",
"657 386 CURVE",
"687 602 LINE",
"963 602 LINE",
"969 650 LINE",
"618 650 LINE",
"607 571 LINE",
"568 625 OFFCURVE",
"505 659 OFFCURVE",
"414 659 CURVE SMOOTH",
"212 659 OFFCURVE",
"88 496 OFFCURVE",
"88 260 CURVE SMOOTH",
"88 92 OFFCURVE",
"177 -10 OFFCURVE",
"330 -10 CURVE SMOOTH",
"407 -10 OFFCURVE",
"480 19 OFFCURVE",
"537 74 CURVE",
"527 0 LINE",
"900 0 LINE"
);
},
{
closed = 1;
nodes = (
"577 378 OFFCURVE",
"575 356 OFFCURVE",
"573 334 CURVE",
"573 329 LINE",
"567 285 LINE",
"536 118 OFFCURVE",
"439 38 OFFCURVE",
"334 38 CURVE SMOOTH",
"228 38 OFFCURVE",
"167 118 OFFCURVE",
"167 249 CURVE SMOOTH",
"167 485 OFFCURVE",
"265 611 OFFCURVE",
"410 611 CURVE SMOOTH",
"529 611 OFFCURVE",
"577 516 OFFCURVE",
"577 403 CURVE SMOOTH"
);
}
);
width = 940;
},
{
layerId = "640DAD6F-C00E-41F4-8D6C-450924326D1A";
paths = (
{
closed = 1;
nodes = (
"677 406 LINE",
"701 578 LINE",
"953 578 LINE",
"963 650 LINE",
"572 650 LINE",
"568 621 LINE",
"529 646 OFFCURVE",
"479 660 OFFCURVE",
"416 660 CURVE SMOOTH",
"197 660 OFFCURVE",
"76 491 OFFCURVE",
"76 259 CURVE SMOOTH",
"76 92 OFFCURVE",
"169 -11 OFFCURVE",
"335 -11 CURVE SMOOTH",
"389 -11 OFFCURVE",
"439 1 OFFCURVE",
"484 24 CURVE",
"481 0 LINE",
"886 0 LINE",
"896 72 LINE",
"630 72 LINE",
"652 230 LINE",
"659 250 OFFCURVE",
"664 271 OFFCURVE",
"668 294 CURVE",
"883 294 LINE",
"893 364 LINE",
"676 364 LINE",
"676 373 OFFCURVE",
"677 382 OFFCURVE",
"677 392 CURVE SMOOTH"
);
},
{
closed = 1;
nodes = (
"530 382 OFFCURVE",
"528 346 OFFCURVE",
"524 314 CURVE",
"524 309 LINE",
"519 272 LINE SMOOTH",
"493 117 OFFCURVE",
"423 60 OFFCURVE",
"342 60 CURVE SMOOTH",
"263 60 OFFCURVE",
"222 125 OFFCURVE",
"222 225 CURVE SMOOTH",
"222 491 OFFCURVE",
"297 588 OFFCURVE",
"409 588 CURVE SMOOTH",
"494 588 OFFCURVE",
"530 517 OFFCURVE",
"530 421 CURVE SMOOTH"
);
}
);
width = 929;
}
);
note = OE;
unicode = 0152;
},
{
glyphname = P;
layers = (
{
layerId = "F05DF1C3-6E5D-4CAE-86D8-BB1A1E5E50BF";
paths = (
{
closed = 1;
nodes = (
"94 0 LINE",
"170 0 LINE",
"202 228 LINE",
"284 228 LINE SMOOTH",
"396 228 OFFCURVE",
"527 293 OFFCURVE",
"527 481 CURVE SMOOTH",
"527 594 OFFCURVE",
"458 650 OFFCURVE",
"341 650 CURVE SMOOTH",
"185 650 LINE"
);
},
{
closed = 1;
nodes = (
"327 606 LINE SMOOTH",
"402 606 OFFCURVE",
"447 567 OFFCURVE",
"447 482 CURVE SMOOTH",
"447 322 OFFCURVE",
"365 270 OFFCURVE",
"279 270 CURVE SMOOTH",
"208 270 LINE",
"254 606 LINE"
);
}
);
width = 496;
},
{
layerId = "640DAD6F-C00E-41F4-8D6C-450924326D1A";
paths = (
{
closed = 1;
nodes = (
"77 0 LINE",
"215 0 LINE",
"244 203 LINE",
"308 203 LINE SMOOTH",
"423 203 OFFCURVE",
"574 278 OFFCURVE",
"574 471 CURVE SMOOTH",
"574 594 OFFCURVE",
"496 650 OFFCURVE",
"367 650 CURVE SMOOTH",
"168 650 LINE"
);
},
{
closed = 1;
nodes = (
"346 585 LINE SMOOTH",
"396 585 OFFCURVE",
"427 558 OFFCURVE",
"427 485 CURVE SMOOTH",
"427 321 OFFCURVE",
"369 267 OFFCURVE",
"301 267 CURVE SMOOTH",
"253 267 LINE",
"298 585 LINE"
);
}
);
width = 533;
}
);
note = P;
unicode = 0050;
},
{
glyphname = Thorn;
layers = (
{
layerId = "F05DF1C3-6E5D-4CAE-86D8-BB1A1E5E50BF";
paths = (
{
closed = 1;
nodes = (
"272 650 LINE",
"197 650 LINE",
"106 0 LINE",
"181 0 LINE",
"196 109 LINE",
"281 109 LINE SMOOTH",
"393 109 OFFCURVE",
"525 177 OFFCURVE",
"525 370 CURVE SMOOTH",
"525 486 OFFCURVE",
"456 541 OFFCURVE",
"341 541 CURVE SMOOTH",
"257 541 LINE"
);
},
{
closed = 1;
nodes = (
"330 495 LINE SMOOTH",
"405 495 OFFCURVE",
"449 456 OFFCURVE",
"449 369 CURVE SMOOTH",
"449 206 OFFCURVE",
"368 154 OFFCURVE",
"281 154 CURVE SMOOTH",
"203 154 LINE",
"250 495 LINE"
);
}
);
width = 514;
},
{
layerId = "640DAD6F-C00E-41F4-8D6C-450924326D1A";
paths = (
{
closed = 1;
nodes = (
"327 650 LINE",
"189 650 LINE",
"98 0 LINE",
"236 0 LINE",
"249 93 LINE",
"318 93 LINE SMOOTH",
"433 93 OFFCURVE",
"586 174 OFFCURVE",
"586 376 CURVE SMOOTH",
"586 504 OFFCURVE",
"508 560 OFFCURVE",
"380 560 CURVE SMOOTH",
"314 560 LINE"
);
},
{
closed = 1;
nodes = (
"364 491 LINE SMOOTH",
"415 491 OFFCURVE",
"446 466 OFFCURVE",
"446 387 CURVE SMOOTH",
"446 212 OFFCURVE",
"387 160 OFFCURVE",
"317 160 CURVE SMOOTH",
"258 160 LINE",
"305 491 LINE"
);
}
);
width = 562;
}
);
note = Thorn;
unicode = 00DE;
},
{
glyphname = Q;
layers = (
{
layerId = "F05DF1C3-6E5D-4CAE-86D8-BB1A1E5E50BF";
paths = (
{
closed = 1;
nodes = (
"657 538 OFFCURVE",
"586 659 OFFCURVE",
"414 659 CURVE SMOOTH",
"212 659 OFFCURVE",
"88 496 OFFCURVE",
"88 260 CURVE SMOOTH",
"88 102 OFFCURVE",
"166 3 OFFCURVE",
"302 -9 CURVE",
"336 -96 OFFCURVE",
"409 -159 OFFCURVE",
"490 -159 CURVE SMOOTH",
"508 -159 OFFCURVE",
"527 -156 OFFCURVE",
"545 -149 CURVE",
"546 -109 LINE",
"533 -114 OFFCURVE",
"522 -116 OFFCURVE",
"510 -116 CURVE SMOOTH",
"454 -116 OFFCURVE",
"408 -65 OFFCURVE",
"377 -6 CURVE",
"532 18 OFFCURVE",
"657 164 OFFCURVE",
"657 395 CURVE SMOOTH"
);
},
{
closed = 1;
nodes = (
"577 155 OFFCURVE",
"462 38 OFFCURVE",
"334 38 CURVE SMOOTH",
"228 38 OFFCURVE",
"167 118 OFFCURVE",
"167 249 CURVE SMOOTH",
"167 485 OFFCURVE",
"265 611 OFFCURVE",
"410 611 CURVE SMOOTH",
"529 611 OFFCURVE",
"577 516 OFFCURVE",
"577 403 CURVE SMOOTH"
);
}
);
width = 654;
},
{
layerId = "640DAD6F-C00E-41F4-8D6C-450924326D1A";
paths = (
{
closed = 1;
nodes = (
"677 537 OFFCURVE",
"602 660 OFFCURVE",
"416 660 CURVE SMOOTH",
"197 660 OFFCURVE",
"76 491 OFFCURVE",
"76 259 CURVE SMOOTH",
"76 109 OFFCURVE",
"150 11 OFFCURVE",
"285 -7 CURVE",
"314 -111 OFFCURVE",
"398 -198 OFFCURVE",
"498 -198 CURVE SMOOTH",
"518 -198 OFFCURVE",
"538 -194 OFFCURVE",
"559 -187 CURVE",
"561 -126 LINE",
"550 -130 OFFCURVE",
"539 -132 OFFCURVE",
"529 -132 CURVE SMOOTH",
"472 -132 OFFCURVE",
"436 -68 OFFCURVE",
"414 -1 CURVE",
"566 35 OFFCURVE",
"677 181 OFFCURVE",
"677 392 CURVE SMOOTH"
);
},
{
closed = 1;
nodes = (
"530 152 OFFCURVE",
"445 60 OFFCURVE",
"342 60 CURVE SMOOTH",
"263 60 OFFCURVE",
"222 125 OFFCURVE",
"222 225 CURVE SMOOTH",
"222 491 OFFCURVE",
"297 588 OFFCURVE",
"409 588 CURVE SMOOTH",
"494 588 OFFCURVE",
"530 517 OFFCURVE",
"530 421 CURVE SMOOTH"
);
}
);
width = 663;
}
);
note = Q;
unicode = 0051;
},
{
glyphname = R;
layers = (
{
layerId = "F05DF1C3-6E5D-4CAE-86D8-BB1A1E5E50BF";
paths = (
{
closed = 1;
nodes = (
"94 0 LINE",
"170 0 LINE",
"204 241 LINE",
"302 241 LINE",
"418 0 LINE",
"505 0 LINE",
"378 255 LINE",
"459 283 OFFCURVE",
"529 356 OFFCURVE",
"529 485 CURVE SMOOTH",
"529 592 OFFCURVE",
"460 650 OFFCURVE",
"342 650 CURVE SMOOTH",
"185 650 LINE"
);
},
{
closed = 1;
nodes = (
"327 606 LINE SMOOTH",
"406 606 OFFCURVE",
"448 565 OFFCURVE",
"448 486 CURVE SMOOTH",
"448 346 OFFCURVE",
"389 286 OFFCURVE",
"291 286 CURVE SMOOTH",
"210 286 LINE",
"255 606 LINE"
);
}
);
width = 539;
},
{
layerId = "640DAD6F-C00E-41F4-8D6C-450924326D1A";
paths = (
{
closed = 1;
nodes = (
"77 0 LINE",
"215 0 LINE",
"248 236 LINE",
"301 236 LINE",
"390 0 LINE",
"549 0 LINE",
"435 264 LINE",
"511 301 OFFCURVE",
"577 372 OFFCURVE",
"577 480 CURVE SMOOTH",
"577 590 OFFCURVE",
"499 650 OFFCURVE",
"368 650 CURVE SMOOTH",
"168 650 LINE"
);
},
{
closed = 1;
nodes = (
"345 585 LINE SMOOTH",
"403 585 OFFCURVE",
"430 555 OFFCURVE",
"430 492 CURVE SMOOTH",
"430 366 OFFCURVE",
"393 302 OFFCURVE",
"309 302 CURVE SMOOTH",
"257 302 LINE",
"297 585 LINE"
);
}
);
width = 578;
}
);
note = R;
unicode = 0052;
},
{
glyphname = Racute;
layers = (
{
layerId = "F05DF1C3-6E5D-4CAE-86D8-BB1A1E5E50BF";
paths = (
{
closed = 1;
nodes = (
"94 0 LINE",
"170 0 LINE",
"204 241 LINE",
"302 241 LINE",
"418 0 LINE",
"505 0 LINE",
"378 255 LINE",
"459 283 OFFCURVE",
"529 356 OFFCURVE",
"529 485 CURVE SMOOTH",
"529 592 OFFCURVE",
"460 650 OFFCURVE",
"342 650 CURVE SMOOTH",
"185 650 LINE"
);
},
{
closed = 1;
nodes = (
"327 606 LINE SMOOTH",
"406 606 OFFCURVE",
"448 565 OFFCURVE",
"448 486 CURVE SMOOTH",
"448 346 OFFCURVE",
"389 286 OFFCURVE",
"291 286 CURVE SMOOTH",
"210 286 LINE",
"255 606 LINE"
);
},
{
closed = 1;
nodes = (
"409 856 LINE",
"313 711 LINE",
"350 706 LINE",
"470 841 LINE"
);
}
);
width = 539;
},
{
layerId = "640DAD6F-C00E-41F4-8D6C-450924326D1A";
paths = (
{
closed = 1;
nodes = (
"77 0 LINE",
"215 0 LINE",
"248 236 LINE",
"301 236 LINE",
"390 0 LINE",
"549 0 LINE",
"435 264 LINE",
"511 301 OFFCURVE",
"577 372 OFFCURVE",
"577 480 CURVE SMOOTH",
"577 590 OFFCURVE",
"499 650 OFFCURVE",
"368 650 CURVE SMOOTH",
"168 650 LINE"
);
},
{
closed = 1;
nodes = (
"345 585 LINE SMOOTH",
"403 585 OFFCURVE",
"430 555 OFFCURVE",
"430 492 CURVE SMOOTH",
"430 366 OFFCURVE",
"393 302 OFFCURVE",
"309 302 CURVE SMOOTH",
"257 302 LINE",
"297 585 LINE"
);
},
{
closed = 1;
nodes = (
"409 865 LINE",
"318 713 LINE",
"374 704 LINE",
"513 834 LINE"
);
}
);
width = 578;
}
);
note = Racute;
unicode = 0154;
},
{
glyphname = Rcaron;
layers = (
{
layerId = "F05DF1C3-6E5D-4CAE-86D8-BB1A1E5E50BF";
paths = (
{
closed = 1;
nodes = (
"94 0 LINE",
"170 0 LINE",
"204 241 LINE",
"302 241 LINE",
"418 0 LINE",
"505 0 LINE",
"378 255 LINE",
"459 283 OFFCURVE",
"529 356 OFFCURVE",
"529 485 CURVE SMOOTH",
"529 592 OFFCURVE",
"460 650 OFFCURVE",
"342 650 CURVE SMOOTH",
"185 650 LINE"
);
},
{
closed = 1;
nodes = (
"327 606 LINE SMOOTH",
"406 606 OFFCURVE",
"448 565 OFFCURVE",
"448 486 CURVE SMOOTH",
"448 346 OFFCURVE",
"389 286 OFFCURVE",
"291 286 CURVE SMOOTH",
"210 286 LINE",
"255 606 LINE"
);
},
{
closed = 1;
nodes = (
"330 708 LINE",
"370 708 LINE",
"506 829 LINE",
"481 855 LINE",
"357 754 LINE",
"261 855 LINE",
"230 831 LINE"
);
}
);
width = 539;
},
{
layerId = "640DAD6F-C00E-41F4-8D6C-450924326D1A";
paths = (
{
closed = 1;
nodes = (
"77 0 LINE",
"215 0 LINE",
"248 236 LINE",
"301 236 LINE",
"390 0 LINE",
"549 0 LINE",
"435 264 LINE",
"511 301 OFFCURVE",
"577 372 OFFCURVE",
"577 480 CURVE SMOOTH",
"577 590 OFFCURVE",
"499 650 OFFCURVE",
"368 650 CURVE SMOOTH",
"168 650 LINE"
);
},
{
closed = 1;
nodes = (
"345 585 LINE SMOOTH",
"403 585 OFFCURVE",
"430 555 OFFCURVE",
"430 492 CURVE SMOOTH",
"430 366 OFFCURVE",
"393 302 OFFCURVE",
"309 302 CURVE SMOOTH",
"257 302 LINE",
"297 585 LINE"
);
},
{
closed = 1;
nodes = (
"335 707 LINE",
"405 707 LINE",
"539 841 LINE",
"502 880 LINE",
"381 787 LINE",
"286 880 LINE",
"239 845 LINE"
);
}
);
width = 578;
}
);
note = Rcaron;
unicode = 0158;
},
{
glyphname = Rcommaaccent;
layers = (
{
layerId = "F05DF1C3-6E5D-4CAE-86D8-BB1A1E5E50BF";
paths = (
{
closed = 1;
nodes = (
"94 0 LINE",
"170 0 LINE",
"204 241 LINE",
"302 241 LINE",
"418 0 LINE",
"505 0 LINE",
"378 255 LINE",
"459 283 OFFCURVE",
"529 356 OFFCURVE",
"529 485 CURVE SMOOTH",
"529 592 OFFCURVE",
"460 650 OFFCURVE",
"342 650 CURVE SMOOTH",
"185 650 LINE"
);
},
{
closed = 1;
nodes = (
"327 606 LINE SMOOTH",
"406 606 OFFCURVE",
"448 565 OFFCURVE",
"448 486 CURVE SMOOTH",
"448 346 OFFCURVE",
"389 286 OFFCURVE",
"291 286 CURVE SMOOTH",
"210 286 LINE",
"255 606 LINE"
);
},
{
closed = 1;
nodes = (
"238 -62 OFFCURVE",
"233 -75 OFFCURVE",
"233 -87 CURVE SMOOTH",
"233 -95 OFFCURVE",
"235 -102 OFFCURVE",
"240 -108 CURVE",
"246 -114 OFFCURVE",
"255 -117 OFFCURVE",
"265 -117 CURVE",
"266 -161 OFFCURVE",
"236 -227 OFFCURVE",
"184 -269 CURVE",
"200 -288 LINE",
"261 -242 OFFCURVE",
"309 -151 OFFCURVE",
"309 -93 CURVE SMOOTH",
"309 -80 OFFCURVE",
"306 -69 OFFCURVE",
"301 -60 CURVE",
"297 -54 LINE",
"291 -48 OFFCURVE",
"283 -45 OFFCURVE",
"274 -45 CURVE SMOOTH",
"265 -45 OFFCURVE",
"256 -48 OFFCURVE",
"248 -54 CURVE SMOOTH"
);
}
);
width = 539;
},
{
layerId = "640DAD6F-C00E-41F4-8D6C-450924326D1A";
paths = (
{
closed = 1;
nodes = (
"77 0 LINE",
"215 0 LINE",
"248 236 LINE",
"301 236 LINE",
"390 0 LINE",
"549 0 LINE",
"435 264 LINE",
"511 301 OFFCURVE",
"577 372 OFFCURVE",
"577 480 CURVE SMOOTH",
"577 590 OFFCURVE",
"499 650 OFFCURVE",
"368 650 CURVE SMOOTH",
"168 650 LINE"
);
},
{
closed = 1;
nodes = (
"345 585 LINE SMOOTH",
"403 585 OFFCURVE",
"430 555 OFFCURVE",
"430 492 CURVE SMOOTH",
"430 366 OFFCURVE",
"393 302 OFFCURVE",
"309 302 CURVE SMOOTH",
"257 302 LINE",
"297 585 LINE"
);
},
{
closed = 1;
nodes = (
"227 -77 OFFCURVE",
"218 -98 OFFCURVE",
"218 -118 CURVE SMOOTH",
"218 -131 OFFCURVE",
"223 -144 OFFCURVE",
"231 -154 CURVE",
"241 -164 OFFCURVE",
"255 -170 OFFCURVE",
"271 -170 CURVE SMOOTH",
"278 -170 LINE",
"277 -215 OFFCURVE",
"248 -265 OFFCURVE",
"194 -308 CURVE",
"219 -339 LINE",
"293 -289 OFFCURVE",
"350 -195 OFFCURVE",
"350 -123 CURVE SMOOTH",
"350 -99 OFFCURVE",
"344 -79 OFFCURVE",
"330 -62 CURVE",
"319 -51 OFFCURVE",
"304 -46 OFFCURVE",
"289 -46 CURVE SMOOTH",
"273 -46 OFFCURVE",
"257 -51 OFFCURVE",
"244 -62 CURVE SMOOTH"
);
}
);
width = 578;
}
);
note = Rcommaaccent;
unicode = 0156;
},
{
glyphname = S;
layers = (
{
layerId = "F05DF1C3-6E5D-4CAE-86D8-BB1A1E5E50BF";
paths = (
{
closed = 1;
nodes = (
"502 603 LINE",
"502 603 OFFCURVE",
"455 659 OFFCURVE",
"357 659 CURVE SMOOTH",
"229 659 OFFCURVE",
"140 586 OFFCURVE",
"140 465 CURVE SMOOTH",
"140 289 OFFCURVE",
"392 317 OFFCURVE",
"392 175 CURVE SMOOTH",
"392 102 OFFCURVE",
"339 39 OFFCURVE",
"239 39 CURVE SMOOTH",
"122 39 OFFCURVE",
"87 120 OFFCURVE",
"87 120 CURVE",
"57 81 LINE",
"57 81 OFFCURVE",
"97 -10 OFFCURVE",
"242 -10 CURVE SMOOTH",
"375 -10 OFFCURVE",
"471 73 OFFCURVE",
"471 195 CURVE SMOOTH",
"471 374 OFFCURVE",
"217 347 OFFCURVE",
"217 489 CURVE SMOOTH",
"217 567 OFFCURVE",
"272 613 OFFCURVE",
"355 613 CURVE SMOOTH",
"440 613 OFFCURVE",
"487 559 OFFCURVE",
"487 559 CURVE"
);
}
);
width = 490;
},
{
layerId = "640DAD6F-C00E-41F4-8D6C-450924326D1A";
paths = (
{
closed = 1;
nodes = (
"512 614 LINE",
"512 614 OFFCURVE",
"451 660 OFFCURVE",
"362 660 CURVE SMOOTH",
"226 660 OFFCURVE",
"122 580 OFFCURVE",
"122 447 CURVE SMOOTH",
"122 272 OFFCURVE",
"341 270 OFFCURVE",
"341 162 CURVE SMOOTH",
"341 108 OFFCURVE",
"307 63 OFFCURVE",
"232 63 CURVE SMOOTH",
"136 63 OFFCURVE",
"90 138 OFFCURVE",
"90 138 CURVE",
"44 80 LINE",
"44 80 OFFCURVE",
"96 -11 OFFCURVE",
"238 -11 CURVE SMOOTH",
"368 -11 OFFCURVE",
"485 65 OFFCURVE",
"485 206 CURVE SMOOTH",
"485 379 OFFCURVE",
"265 380 OFFCURVE",
"265 499 CURVE SMOOTH",
"265 558 OFFCURVE",
"305 590 OFFCURVE",
"361 590 CURVE SMOOTH",
"430 590 OFFCURVE",
"490 546 OFFCURVE",
"490 546 CURVE"
);
}
);
width = 492;
}
);
note = S;
unicode = 0053;
},
{
glyphname = Sacute;
layers = (
{
layerId = "F05DF1C3-6E5D-4CAE-86D8-BB1A1E5E50BF";
paths = (
{
closed = 1;
nodes = (
"502 603 LINE",
"502 603 OFFCURVE",
"455 659 OFFCURVE",
"357 659 CURVE SMOOTH",
"229 659 OFFCURVE",
"140 586 OFFCURVE",
"140 465 CURVE SMOOTH",
"140 289 OFFCURVE",
"392 317 OFFCURVE",
"392 175 CURVE SMOOTH",
"392 102 OFFCURVE",
"339 39 OFFCURVE",
"239 39 CURVE SMOOTH",
"122 39 OFFCURVE",
"87 120 OFFCURVE",
"87 120 CURVE",
"57 81 LINE",
"57 81 OFFCURVE",
"97 -10 OFFCURVE",
"242 -10 CURVE SMOOTH",
"375 -10 OFFCURVE",
"471 73 OFFCURVE",
"471 195 CURVE SMOOTH",
"471 374 OFFCURVE",
"217 347 OFFCURVE",
"217 489 CURVE SMOOTH",
"217 567 OFFCURVE",
"272 613 OFFCURVE",
"355 613 CURVE SMOOTH",
"440 613 OFFCURVE",
"487 559 OFFCURVE",
"487 559 CURVE"
);
},
{
closed = 1;
nodes = (
"421 856 LINE",
"325 711 LINE",
"362 706 LINE",
"482 841 LINE"
);
}
);
width = 490;
},
{
layerId = "640DAD6F-C00E-41F4-8D6C-450924326D1A";
paths = (
{
closed = 1;
nodes = (
"512 614 LINE",
"512 614 OFFCURVE",
"451 660 OFFCURVE",
"362 660 CURVE SMOOTH",
"226 660 OFFCURVE",
"122 580 OFFCURVE",
"122 447 CURVE SMOOTH",
"122 272 OFFCURVE",
"341 270 OFFCURVE",
"341 162 CURVE SMOOTH",
"341 108 OFFCURVE",
"307 63 OFFCURVE",
"232 63 CURVE SMOOTH",
"136 63 OFFCURVE",
"90 138 OFFCURVE",
"90 138 CURVE",
"44 80 LINE",
"44 80 OFFCURVE",
"96 -11 OFFCURVE",
"238 -11 CURVE SMOOTH",
"368 -11 OFFCURVE",
"485 65 OFFCURVE",
"485 206 CURVE SMOOTH",
"485 379 OFFCURVE",
"265 380 OFFCURVE",
"265 499 CURVE SMOOTH",
"265 558 OFFCURVE",
"305 590 OFFCURVE",
"361 590 CURVE SMOOTH",
"430 590 OFFCURVE",
"490 546 OFFCURVE",
"490 546 CURVE"
);
},
{
closed = 1;
nodes = (
"406 865 LINE",
"315 713 LINE",
"371 704 LINE",
"510 834 LINE"
);
}
);
width = 492;
}
);
note = Sacute;
unicode = 015A;
},
{
glyphname = Scaron;
layers = (
{
layerId = "F05DF1C3-6E5D-4CAE-86D8-BB1A1E5E50BF";
paths = (
{
closed = 1;
nodes = (
"502 603 LINE",
"502 603 OFFCURVE",
"455 659 OFFCURVE",
"357 659 CURVE SMOOTH",
"229 659 OFFCURVE",
"140 586 OFFCURVE",
"140 465 CURVE SMOOTH",
"140 289 OFFCURVE",
"392 317 OFFCURVE",
"392 175 CURVE SMOOTH",
"392 102 OFFCURVE",
"339 39 OFFCURVE",
"239 39 CURVE SMOOTH",
"122 39 OFFCURVE",
"87 120 OFFCURVE",
"87 120 CURVE",
"57 81 LINE",
"57 81 OFFCURVE",
"97 -10 OFFCURVE",
"242 -10 CURVE SMOOTH",
"375 -10 OFFCURVE",
"471 73 OFFCURVE",
"471 195 CURVE SMOOTH",
"471 374 OFFCURVE",
"217 347 OFFCURVE",
"217 489 CURVE SMOOTH",
"217 567 OFFCURVE",
"272 613 OFFCURVE",
"355 613 CURVE SMOOTH",
"440 613 OFFCURVE",
"487 559 OFFCURVE",
"487 559 CURVE"
);
},
{
closed = 1;
nodes = (
"338 708 LINE",
"378 708 LINE",
"514 829 LINE",
"489 855 LINE",
"365 754 LINE",
"269 855 LINE",
"238 831 LINE"
);
}
);
width = 490;
},
{
layerId = "640DAD6F-C00E-41F4-8D6C-450924326D1A";
paths = (
{
closed = 1;
nodes = (
"512 614 LINE",
"512 614 OFFCURVE",
"451 660 OFFCURVE",
"362 660 CURVE SMOOTH",
"226 660 OFFCURVE",
"122 580 OFFCURVE",
"122 447 CURVE SMOOTH",
"122 272 OFFCURVE",
"341 270 OFFCURVE",
"341 162 CURVE SMOOTH",
"341 108 OFFCURVE",
"307 63 OFFCURVE",
"232 63 CURVE SMOOTH",
"136 63 OFFCURVE",
"90 138 OFFCURVE",
"90 138 CURVE",
"44 80 LINE",
"44 80 OFFCURVE",
"96 -11 OFFCURVE",
"238 -11 CURVE SMOOTH",
"368 -11 OFFCURVE",
"485 65 OFFCURVE",
"485 206 CURVE SMOOTH",
"485 379 OFFCURVE",
"265 380 OFFCURVE",
"265 499 CURVE SMOOTH",
"265 558 OFFCURVE",
"305 590 OFFCURVE",
"361 590 CURVE SMOOTH",
"430 590 OFFCURVE",
"490 546 OFFCURVE",
"490 546 CURVE"
);
},
{
closed = 1;
nodes = (
"329 707 LINE",
"399 707 LINE",
"533 841 LINE",
"496 880 LINE",
"375 787 LINE",
"280 880 LINE",
"233 845 LINE"
);
}
);
width = 492;
}
);
note = Scaron;
unicode = 0160;
},
{
glyphname = Scedilla;
layers = (
{
layerId = "F05DF1C3-6E5D-4CAE-86D8-BB1A1E5E50BF";
paths = (
{
closed = 1;
nodes = (
"502 603 LINE",
"502 603 OFFCURVE",
"455 659 OFFCURVE",
"357 659 CURVE SMOOTH",
"229 659 OFFCURVE",
"140 586 OFFCURVE",
"140 465 CURVE SMOOTH",
"140 289 OFFCURVE",
"392 317 OFFCURVE",
"392 175 CURVE SMOOTH",
"392 102 OFFCURVE",
"339 39 OFFCURVE",
"239 39 CURVE SMOOTH",
"122 39 OFFCURVE",
"87 120 OFFCURVE",
"87 120 CURVE",
"57 81 LINE",
"57 81 OFFCURVE",
"94 -4 OFFCURVE",
"227 -10 CURVE",
"205 -92 LINE",
"205 -97 OFFCURVE",
"281 -94 OFFCURVE",
"281 -146 CURVE SMOOTH",
"281 -193 OFFCURVE",
"255 -221 OFFCURVE",
"204 -221 CURVE SMOOTH",
"160 -221 OFFCURVE",
"142 -189 OFFCURVE",
"142 -189 CURVE",
"122 -209 LINE",
"122 -209 OFFCURVE",
"141 -251 OFFCURVE",
"208 -251 CURVE SMOOTH",
"286 -251 OFFCURVE",
"326 -205 OFFCURVE",
"326 -145 CURVE SMOOTH",
"326 -77 OFFCURVE",
"240 -74 OFFCURVE",
"241 -69 CURVE",
"256 -10 LINE",
"382 -4 OFFCURVE",
"471 77 OFFCURVE",
"471 195 CURVE SMOOTH",
"471 374 OFFCURVE",
"217 347 OFFCURVE",
"217 489 CURVE SMOOTH",
"217 567 OFFCURVE",
"272 613 OFFCURVE",
"355 613 CURVE SMOOTH",
"440 613 OFFCURVE",
"487 559 OFFCURVE",
"487 559 CURVE"
);
}
);
width = 490;
},
{
layerId = "640DAD6F-C00E-41F4-8D6C-450924326D1A";
paths = (
{
closed = 1;
nodes = (
"512 614 LINE",
"512 614 OFFCURVE",
"451 660 OFFCURVE",
"362 660 CURVE SMOOTH",
"226 660 OFFCURVE",
"122 580 OFFCURVE",
"122 447 CURVE SMOOTH",
"122 272 OFFCURVE",
"341 270 OFFCURVE",
"341 162 CURVE SMOOTH",
"341 108 OFFCURVE",
"307 63 OFFCURVE",
"232 63 CURVE SMOOTH",
"136 63 OFFCURVE",
"90 138 OFFCURVE",
"90 138 CURVE",
"44 80 LINE",
"44 80 OFFCURVE",
"90 0 OFFCURVE",
"213 -10 CURVE",
"191 -98 LINE",
"191 -102 OFFCURVE",
"245 -101 OFFCURVE",
"245 -142 CURVE SMOOTH",
"245 -186 OFFCURVE",
"222 -205 OFFCURVE",
"185 -205 CURVE SMOOTH",
"150 -205 OFFCURVE",
"135 -176 OFFCURVE",
"135 -176 CURVE",
"105 -205 LINE",
"105 -205 OFFCURVE",
"120 -251 OFFCURVE",
"194 -251 CURVE SMOOTH",
"281 -251 OFFCURVE",
"324 -201 OFFCURVE",
"324 -139 CURVE SMOOTH",
"324 -72 OFFCURVE",
"246 -64 OFFCURVE",
"248 -58 CURVE",
"258 -10 LINE",
"380 -3 OFFCURVE",
"485 72 OFFCURVE",
"485 206 CURVE SMOOTH",
"485 379 OFFCURVE",
"265 380 OFFCURVE",
"265 499 CURVE SMOOTH",
"265 558 OFFCURVE",
"305 590 OFFCURVE",
"361 590 CURVE SMOOTH",
"430 590 OFFCURVE",
"490 546 OFFCURVE",
"490 546 CURVE"
);
}
);
width = 492;
}
);
note = Scedilla;
unicode = 015E;
},
{
glyphname = Germandbls;
layers = (
{
layerId = "F05DF1C3-6E5D-4CAE-86D8-BB1A1E5E50BF";
paths = (
{
closed = 1;
nodes = (
"390 307 LINE",
"390 307 OFFCURVE",
"413 331 OFFCURVE",
"450 331 CURVE SMOOTH",
"514 331 OFFCURVE",
"541 290 OFFCURVE",
"541 229 CURVE SMOOTH",
"541 113 OFFCURVE",
"477 40 OFFCURVE",
"375 40 CURVE SMOOTH",
"296 40 OFFCURVE",
"271 73 OFFCURVE",
"271 73 CURVE",
"247 29 LINE",
"247 29 OFFCURVE",
"277 -10 OFFCURVE",
"380 -10 CURVE SMOOTH",
"514 -10 OFFCURVE",
"616 80 OFFCURVE",
"616 225 CURVE SMOOTH",
"616 317 OFFCURVE",
"562 373 OFFCURVE",
"470 373 CURVE SMOOTH",
"454 373 OFFCURVE",
"440 370 OFFCURVE",
"428 366 CURVE",
"587 618 LINE",
"591 650 LINE",
"406 650 LINE SMOOTH",
"256 650 OFFCURVE",
"171 569 OFFCURVE",
"152 438 CURVE SMOOTH",
"91 0 LINE",
"167 0 LINE",
"226 424 LINE SMOOTH",
"243 543 OFFCURVE",
"305 601 OFFCURVE",
"408 601 CURVE SMOOTH",
"516 601 LINE",
"358 341 LINE"
);
}
);
width = 634;
},
{
layerId = "640DAD6F-C00E-41F4-8D6C-450924326D1A";
paths = (
{
closed = 1;
nodes = (
"629 650 LINE",
"408 650 LINE SMOOTH",
"248 650 OFFCURVE",
"159 566 OFFCURVE",
"137 414 CURVE SMOOTH",
"79 0 LINE",
"217 0 LINE",
"272 387 LINE SMOOTH",
"293 532 OFFCURVE",
"339 578 OFFCURVE",
"421 578 CURVE SMOOTH",
"498 578 LINE",
"347 339 LINE",
"409 281 LINE",
"410 283 LINE",
"412 286 LINE",
"420 295 OFFCURVE",
"437 313 OFFCURVE",
"459 313 CURVE SMOOTH",
"496 313 OFFCURVE",
"513 290 OFFCURVE",
"513 243 CURVE SMOOTH",
"513 127 OFFCURVE",
"471 64 OFFCURVE",
"398 64 CURVE SMOOTH",
"341 64 OFFCURVE",
"309 95 OFFCURVE",
"309 95 CURVE",
"275 29 LINE",
"275 29 OFFCURVE",
"311 -11 OFFCURVE",
"410 -11 CURVE SMOOTH",
"538 -11 OFFCURVE",
"651 71 OFFCURVE",
"651 225 CURVE SMOOTH",
"651 325 OFFCURVE",
"583 376 OFFCURVE",
"493 376 CURVE SMOOTH",
"485 376 OFFCURVE",
"478 375 OFFCURVE",
"471 374 CURVE",
"622 603 LINE"
);
}
);
width = 658;
}
);
note = uni1E9E;
unicode = 1E9E;
},
{
glyphname = T;
layers = (
{
layerId = "F05DF1C3-6E5D-4CAE-86D8-BB1A1E5E50BF";
paths = (
{
closed = 1;
nodes = (
"546 650 LINE",
"99 650 LINE",
"92 602 LINE",
"277 602 LINE",
"192 0 LINE",
"268 0 LINE",
"353 602 LINE",
"539 602 LINE"
);
}
);
width = 461;
},
{
layerId = "640DAD6F-C00E-41F4-8D6C-450924326D1A";
paths = (
{
closed = 1;
nodes = (
"594 650 LINE",
"106 650 LINE",
"95 578 LINE",
"270 578 LINE",
"189 0 LINE",
"328 0 LINE",
"409 578 LINE",
"583 578 LINE"
);
}
);
width = 516;
}
);
note = T;
unicode = 0054;
},
{
glyphname = Tcaron;
layers = (
{
layerId = "F05DF1C3-6E5D-4CAE-86D8-BB1A1E5E50BF";
paths = (
{
closed = 1;
nodes = (
"546 650 LINE",
"99 650 LINE",
"92 602 LINE",
"277 602 LINE",
"192 0 LINE",
"268 0 LINE",
"353 602 LINE",
"539 602 LINE"
);
},
{
closed = 1;
nodes = (
"307 708 LINE",
"347 708 LINE",
"483 829 LINE",
"458 855 LINE",
"334 754 LINE",
"238 855 LINE",
"207 831 LINE"
);
}
);
width = 461;
},
{
layerId = "640DAD6F-C00E-41F4-8D6C-450924326D1A";
paths = (
{
closed = 1;
nodes = (
"594 650 LINE",
"106 650 LINE",
"95 578 LINE",
"270 578 LINE",
"189 0 LINE",
"328 0 LINE",
"409 578 LINE",
"583 578 LINE"
);
},
{
closed = 1;
nodes = (
"321 707 LINE",
"391 707 LINE",
"525 841 LINE",
"488 880 LINE",
"367 787 LINE",
"272 880 LINE",
"225 845 LINE"
);
}
);
width = 516;
}
);
note = Tcaron;
unicode = 0164;
},
{
glyphname = Tcommaaccent;
layers = (
{
layerId = "F05DF1C3-6E5D-4CAE-86D8-BB1A1E5E50BF";
paths = (
{
closed = 1;
nodes = (
"546 650 LINE",
"99 650 LINE",
"92 602 LINE",
"277 602 LINE",
"192 0 LINE",
"268 0 LINE",
"353 602 LINE",
"539 602 LINE"
);
},
{
closed = 1;
nodes = (
"196 -62 OFFCURVE",
"191 -75 OFFCURVE",
"191 -87 CURVE SMOOTH",
"191 -95 OFFCURVE",
"193 -102 OFFCURVE",
"198 -108 CURVE",
"204 -114 OFFCURVE",
"213 -117 OFFCURVE",
"223 -117 CURVE",
"224 -161 OFFCURVE",
"194 -227 OFFCURVE",
"142 -269 CURVE",
"158 -288 LINE",
"219 -242 OFFCURVE",
"267 -151 OFFCURVE",
"267 -93 CURVE SMOOTH",
"267 -80 OFFCURVE",
"264 -69 OFFCURVE",
"259 -60 CURVE",
"255 -54 LINE",
"249 -48 OFFCURVE",
"241 -45 OFFCURVE",
"232 -45 CURVE SMOOTH",
"223 -45 OFFCURVE",
"214 -48 OFFCURVE",
"206 -54 CURVE SMOOTH"
);
}
);
width = 461;
},
{
layerId = "640DAD6F-C00E-41F4-8D6C-450924326D1A";
paths = (
{
closed = 1;
nodes = (
"594 650 LINE",
"106 650 LINE",
"95 578 LINE",
"270 578 LINE",
"189 0 LINE",
"328 0 LINE",
"409 578 LINE",
"583 578 LINE"
);
},
{
closed = 1;
nodes = (
"196 -77 OFFCURVE",
"187 -98 OFFCURVE",
"187 -118 CURVE SMOOTH",
"187 -131 OFFCURVE",
"192 -144 OFFCURVE",
"200 -154 CURVE",
"210 -164 OFFCURVE",
"224 -170 OFFCURVE",
"240 -170 CURVE SMOOTH",
"247 -170 LINE",
"246 -215 OFFCURVE",
"217 -265 OFFCURVE",
"163 -308 CURVE",
"188 -339 LINE",
"262 -289 OFFCURVE",
"319 -195 OFFCURVE",
"319 -123 CURVE SMOOTH",
"319 -99 OFFCURVE",
"313 -79 OFFCURVE",
"299 -62 CURVE",
"288 -51 OFFCURVE",
"273 -46 OFFCURVE",
"258 -46 CURVE SMOOTH",
"242 -46 OFFCURVE",
"226 -51 OFFCURVE",
"213 -62 CURVE SMOOTH"
);
}
);
width = 516;
}
);
note = Tcommaaccent;
unicode = 021A;
},
{
glyphname = U;
layers = (
{
anchors = (
{
name = bottom;
position = "{313, 0}";
},
{
name = ogonek;
position = "{518, 10}";
},
{
name = top;
position = "{412, 650}";
},
{
name = topright;
position = "{664, 650}";
}
);
layerId = "F05DF1C3-6E5D-4CAE-86D8-BB1A1E5E50BF";
paths = (
{
closed = 1;
nodes = (
"465 -10 OFFCURVE",
"545 83 OFFCURVE",
"563 212 CURVE SMOOTH",
"625 650 LINE",
"570 650 LINE",
"511 229 LINE SMOOTH",
"495 112 OFFCURVE",
"431 41 OFFCURVE",
"324 41 CURVE SMOOTH",
"235 41 OFFCURVE",
"190 92 OFFCURVE",
"190 184 CURVE SMOOTH",
"190 198 OFFCURVE",
"191 213 OFFCURVE",
"193 229 CURVE SMOOTH",
"252 650 LINE",
"177 650 LINE",
"115 212 LINE SMOOTH",
"113 197 OFFCURVE",
"112 183 OFFCURVE",
"112 169 CURVE SMOOTH",
"112 61 OFFCURVE",
"175 -10 OFFCURVE",
"308 -10 CURVE SMOOTH"
);
}
);
width = 620;
},
{
anchors = (
{
name = bottom;
position = "{317, 0}";
},
{
name = ogonek;
position = "{513, 10}";
},
{
name = top;
position = "{421, 650}";
},
{
name = topright;
position = "{658, 650}";
}
);
layerId = "640DAD6F-C00E-41F4-8D6C-450924326D1A";
paths = (
{
closed = 1;
nodes = (
"481 -11 OFFCURVE",
"557 88 OFFCURVE",
"578 236 CURVE SMOOTH",
"636 650 LINE",
"551 650 LINE",
"497 267 LINE SMOOTH",
"478 129 OFFCURVE",
"428 65 OFFCURVE",
"338 65 CURVE SMOOTH",
"272 65 OFFCURVE",
"238 101 OFFCURVE",
"238 192 CURVE SMOOTH",
"238 214 OFFCURVE",
"240 239 OFFCURVE",
"244 267 CURVE SMOOTH",
"298 650 LINE",
"159 650 LINE",
"101 236 LINE SMOOTH",
"98 217 OFFCURVE",
"97 200 OFFCURVE",
"97 183 CURVE SMOOTH",
"97 62 OFFCURVE",
"164 -11 OFFCURVE",
"305 -11 CURVE SMOOTH"
);
}
);
width = 614;
}
);
note = U;
unicode = 0055;
},
{
color = 9;
glyphname = Uacute;
layers = (
{
layerId = "F05DF1C3-6E5D-4CAE-86D8-BB1A1E5E50BF";
paths = (
{
closed = 1;
nodes = (
"465 -10 OFFCURVE",
"545 83 OFFCURVE",
"563 212 CURVE SMOOTH",
"625 650 LINE",
"570 650 LINE",
"511 229 LINE SMOOTH",
"495 112 OFFCURVE",
"431 41 OFFCURVE",
"324 41 CURVE SMOOTH",
"235 41 OFFCURVE",
"190 92 OFFCURVE",
"190 184 CURVE SMOOTH",
"190 198 OFFCURVE",
"191 213 OFFCURVE",
"193 229 CURVE SMOOTH",
"252 650 LINE",
"177 650 LINE",
"115 212 LINE SMOOTH",
"113 197 OFFCURVE",
"112 183 OFFCURVE",
"112 169 CURVE SMOOTH",
"112 61 OFFCURVE",
"175 -10 OFFCURVE",
"308 -10 CURVE SMOOTH"
);
},
{
closed = 1;
nodes = (
"461 856 LINE",
"365 711 LINE",
"402 706 LINE",
"522 841 LINE"
);
}
);
width = 620;
},
{
layerId = "640DAD6F-C00E-41F4-8D6C-450924326D1A";
paths = (
{
closed = 1;
nodes = (
"481 -11 OFFCURVE",
"557 88 OFFCURVE",
"578 236 CURVE SMOOTH",
"636 650 LINE",
"551 650 LINE",
"497 267 LINE SMOOTH",
"478 129 OFFCURVE",
"428 65 OFFCURVE",
"338 65 CURVE SMOOTH",
"272 65 OFFCURVE",
"238 101 OFFCURVE",
"238 192 CURVE SMOOTH",
"238 214 OFFCURVE",
"240 239 OFFCURVE",
"244 267 CURVE SMOOTH",
"298 650 LINE",
"159 650 LINE",
"101 236 LINE SMOOTH",
"98 217 OFFCURVE",
"97 200 OFFCURVE",
"97 183 CURVE SMOOTH",
"97 62 OFFCURVE",
"164 -11 OFFCURVE",
"305 -11 CURVE SMOOTH"
);
},
{
closed = 1;
nodes = (
"452 865 LINE",
"361 713 LINE",
"417 704 LINE",
"556 834 LINE"
);
}
);
width = 614;
}
);
note = Uacute;
unicode = 00DA;
},
{
glyphname = Ucircumflex;
layers = (
{
layerId = "F05DF1C3-6E5D-4CAE-86D8-BB1A1E5E50BF";
paths = (
{
closed = 1;
nodes = (
"465 -10 OFFCURVE",
"545 83 OFFCURVE",
"563 212 CURVE SMOOTH",
"625 650 LINE",
"570 650 LINE",
"511 229 LINE SMOOTH",
"495 112 OFFCURVE",
"431 41 OFFCURVE",
"324 41 CURVE SMOOTH",
"235 41 OFFCURVE",
"190 92 OFFCURVE",
"190 184 CURVE SMOOTH",
"190 198 OFFCURVE",
"191 213 OFFCURVE",
"193 229 CURVE SMOOTH",
"252 650 LINE",
"177 650 LINE",
"115 212 LINE SMOOTH",
"113 197 OFFCURVE",
"112 183 OFFCURVE",
"112 169 CURVE SMOOTH",
"112 61 OFFCURVE",
"175 -10 OFFCURVE",
"308 -10 CURVE SMOOTH"
);
},
{
closed = 1;
nodes = (
"452 878 LINE",
"412 878 LINE",
"287 764 LINE",
"302 732 LINE",
"425 829 LINE",
"521 732 LINE",
"544 764 LINE"
);
}
);
width = 620;
},
{
layerId = "640DAD6F-C00E-41F4-8D6C-450924326D1A";
paths = (
{
closed = 1;
nodes = (
"481 -11 OFFCURVE",
"557 88 OFFCURVE",
"578 236 CURVE SMOOTH",
"636 650 LINE",
"551 650 LINE",
"497 267 LINE SMOOTH",
"478 129 OFFCURVE",
"428 65 OFFCURVE",
"338 65 CURVE SMOOTH",
"272 65 OFFCURVE",
"238 101 OFFCURVE",
"238 192 CURVE SMOOTH",
"238 214 OFFCURVE",
"240 239 OFFCURVE",
"244 267 CURVE SMOOTH",
"298 650 LINE",
"159 650 LINE",
"101 236 LINE SMOOTH",
"98 217 OFFCURVE",
"97 200 OFFCURVE",
"97 183 CURVE SMOOTH",
"97 62 OFFCURVE",
"164 -11 OFFCURVE",
"305 -11 CURVE SMOOTH"
);
},
{
closed = 1;
nodes = (
"480 888 LINE",
"410 888 LINE",
"295 766 LINE",
"317 721 LINE",
"434 806 LINE",
"526 721 LINE",
"560 766 LINE"
);
}
);
width = 614;
}
);
note = Ucircumflex;
unicode = 00DB;
},
{
glyphname = Udieresis;
layers = (
{
layerId = "F05DF1C3-6E5D-4CAE-86D8-BB1A1E5E50BF";
paths = (
{
closed = 1;
nodes = (
"465 -10 OFFCURVE",
"545 83 OFFCURVE",
"563 212 CURVE SMOOTH",
"625 650 LINE",
"570 650 LINE",
"511 229 LINE SMOOTH",
"495 112 OFFCURVE",
"431 41 OFFCURVE",
"324 41 CURVE SMOOTH",
"235 41 OFFCURVE",
"190 92 OFFCURVE",
"190 184 CURVE SMOOTH",
"190 198 OFFCURVE",
"191 213 OFFCURVE",
"193 229 CURVE SMOOTH",
"252 650 LINE",
"177 650 LINE",
"115 212 LINE SMOOTH",
"113 197 OFFCURVE",
"112 183 OFFCURVE",
"112 169 CURVE SMOOTH",
"112 61 OFFCURVE",
"175 -10 OFFCURVE",
"308 -10 CURVE SMOOTH"
);
},
{
closed = 1;
nodes = (
"465 799 OFFCURVE",
"459 786 OFFCURVE",
"459 773 CURVE SMOOTH",
"459 764 OFFCURVE",
"462 756 OFFCURVE",
"467 750 CURVE",
"473 744 OFFCURVE",
"482 740 OFFCURVE",
"491 740 CURVE SMOOTH",
"500 740 OFFCURVE",
"511 744 OFFCURVE",
"519 750 CURVE",
"529 760 OFFCURVE",
"535 773 OFFCURVE",
"535 786 CURVE SMOOTH",
"535 795 OFFCURVE",
"532 803 OFFCURVE",
"527 809 CURVE",
"521 815 OFFCURVE",
"511 819 OFFCURVE",
"502 819 CURVE SMOOTH",
"493 819 OFFCURVE",
"483 815 OFFCURVE",
"475 809 CURVE"
);
},
{
closed = 1;
nodes = (
"311 799 OFFCURVE",
"305 786 OFFCURVE",
"305 773 CURVE SMOOTH",
"305 764 OFFCURVE",
"308 756 OFFCURVE",
"313 750 CURVE",
"319 744 OFFCURVE",
"329 740 OFFCURVE",
"338 740 CURVE SMOOTH",
"347 740 OFFCURVE",
"357 744 OFFCURVE",
"365 750 CURVE",
"375 760 OFFCURVE",
"381 773 OFFCURVE",
"381 786 CURVE SMOOTH",
"381 794 OFFCURVE",
"379 803 OFFCURVE",
"373 809 CURVE SMOOTH",
"367 815 OFFCURVE",
"358 819 OFFCURVE",
"348 819 CURVE SMOOTH",
"338 819 OFFCURVE",
"329 815 OFFCURVE",
"321 809 CURVE"
);
}
);
width = 620;
},
{
layerId = "640DAD6F-C00E-41F4-8D6C-450924326D1A";
paths = (
{
closed = 1;
nodes = (
"481 -11 OFFCURVE",
"557 88 OFFCURVE",
"578 236 CURVE SMOOTH",
"636 650 LINE",
"551 650 LINE",
"497 267 LINE SMOOTH",
"478 129 OFFCURVE",
"428 65 OFFCURVE",
"338 65 CURVE SMOOTH",
"272 65 OFFCURVE",
"238 101 OFFCURVE",
"238 192 CURVE SMOOTH",
"238 214 OFFCURVE",
"240 239 OFFCURVE",
"244 267 CURVE SMOOTH",
"298 650 LINE",
"159 650 LINE",
"101 236 LINE SMOOTH",
"98 217 OFFCURVE",
"97 200 OFFCURVE",
"97 183 CURVE SMOOTH",
"97 62 OFFCURVE",
"164 -11 OFFCURVE",
"305 -11 CURVE SMOOTH"
);
},
{
closed = 1;
nodes = (
"466 822 OFFCURVE",
"456 798 OFFCURVE",
"456 776 CURVE SMOOTH",
"456 761 OFFCURVE",
"461 746 OFFCURVE",
"470 735 CURVE SMOOTH",
"480 723 OFFCURVE",
"495 717 OFFCURVE",
"512 717 CURVE SMOOTH",
"528 717 OFFCURVE",
"546 723 OFFCURVE",
"561 735 CURVE",
"580 752 OFFCURVE",
"590 775 OFFCURVE",
"590 798 CURVE SMOOTH",
"590 813 OFFCURVE",
"585 827 OFFCURVE",
"576 839 CURVE",
"564 850 OFFCURVE",
"549 856 OFFCURVE",
"532 856 CURVE SMOOTH",
"515 856 OFFCURVE",
"498 850 OFFCURVE",
"484 839 CURVE"
);
},
{
closed = 1;
nodes = (
"280 822 OFFCURVE",
"270 798 OFFCURVE",
"270 776 CURVE SMOOTH",
"270 761 OFFCURVE",
"275 746 OFFCURVE",
"284 735 CURVE",
"295 723 OFFCURVE",
"311 717 OFFCURVE",
"327 717 CURVE SMOOTH",
"343 717 OFFCURVE",
"360 723 OFFCURVE",
"375 735 CURVE",
"394 752 OFFCURVE",
"404 775 OFFCURVE",
"404 798 CURVE SMOOTH",
"404 813 OFFCURVE",
"399 827 OFFCURVE",
"390 839 CURVE",
"379 850 OFFCURVE",
"364 856 OFFCURVE",
"347 856 CURVE SMOOTH",
"330 856 OFFCURVE",
"312 850 OFFCURVE",
"298 839 CURVE"
);
}
);
width = 614;
}
);
note = Udieresis;
unicode = 00DC;
},
{
color = 9;
glyphname = Ugrave;
layers = (
{
layerId = "F05DF1C3-6E5D-4CAE-86D8-BB1A1E5E50BF";
paths = (
{
closed = 1;
nodes = (
"465 -10 OFFCURVE",
"545 83 OFFCURVE",
"563 212 CURVE SMOOTH",
"625 650 LINE",
"570 650 LINE",
"511 229 LINE SMOOTH",
"495 112 OFFCURVE",
"431 41 OFFCURVE",
"324 41 CURVE SMOOTH",
"235 41 OFFCURVE",
"190 92 OFFCURVE",
"190 184 CURVE SMOOTH",
"190 198 OFFCURVE",
"191 213 OFFCURVE",
"193 229 CURVE SMOOTH",
"252 650 LINE",
"177 650 LINE",
"115 212 LINE SMOOTH",
"113 197 OFFCURVE",
"112 183 OFFCURVE",
"112 169 CURVE SMOOTH",
"112 61 OFFCURVE",
"175 -10 OFFCURVE",
"308 -10 CURVE SMOOTH"
);
},
{
closed = 1;
nodes = (
"323 843 LINE",
"408 708 LINE",
"450 716 LINE",
"387 859 LINE"
);
}
);
width = 620;
},
{
layerId = "640DAD6F-C00E-41F4-8D6C-450924326D1A";
paths = (
{
closed = 1;
nodes = (
"481 -11 OFFCURVE",
"557 88 OFFCURVE",
"578 236 CURVE SMOOTH",
"636 650 LINE",
"551 650 LINE",
"497 267 LINE SMOOTH",
"478 129 OFFCURVE",
"428 65 OFFCURVE",
"338 65 CURVE SMOOTH",
"272 65 OFFCURVE",
"238 101 OFFCURVE",
"238 192 CURVE SMOOTH",
"238 214 OFFCURVE",
"240 239 OFFCURVE",
"244 267 CURVE SMOOTH",
"298 650 LINE",
"159 650 LINE",
"101 236 LINE SMOOTH",
"98 217 OFFCURVE",
"97 200 OFFCURVE",
"97 183 CURVE SMOOTH",
"97 62 OFFCURVE",
"164 -11 OFFCURVE",
"305 -11 CURVE SMOOTH"
);
},
{
closed = 1;
nodes = (
"316 838 LINE",
"427 709 LINE",
"491 726 LINE",
"427 873 LINE"
);
}
);
width = 614;
}
);
note = Ugrave;
unicode = 00D9;
},
{
glyphname = Uhungarumlaut;
layers = (
{
layerId = "F05DF1C3-6E5D-4CAE-86D8-BB1A1E5E50BF";
paths = (
{
closed = 1;
nodes = (
"465 -10 OFFCURVE",
"545 83 OFFCURVE",
"563 212 CURVE SMOOTH",
"625 650 LINE",
"570 650 LINE",
"511 229 LINE SMOOTH",
"495 112 OFFCURVE",
"431 41 OFFCURVE",
"324 41 CURVE SMOOTH",
"235 41 OFFCURVE",
"190 92 OFFCURVE",
"190 184 CURVE SMOOTH",
"190 198 OFFCURVE",
"191 213 OFFCURVE",
"193 229 CURVE SMOOTH",
"252 650 LINE",
"177 650 LINE",
"115 212 LINE SMOOTH",
"113 197 OFFCURVE",
"112 183 OFFCURVE",
"112 169 CURVE SMOOTH",
"112 61 OFFCURVE",
"175 -10 OFFCURVE",
"308 -10 CURVE SMOOTH"
);
},
{
closed = 1;
nodes = (
"438 725 LINE",
"469 711 LINE",
"551 840 LINE",
"501 853 LINE"
);
},
{
closed = 1;
nodes = (
"309 725 LINE",
"340 711 LINE",
"422 840 LINE",
"372 853 LINE"
);
}
);
width = 620;
},
{
layerId = "640DAD6F-C00E-41F4-8D6C-450924326D1A";
paths = (
{
closed = 1;
nodes = (
"481 -11 OFFCURVE",
"557 88 OFFCURVE",
"578 236 CURVE SMOOTH",
"636 650 LINE",
"551 650 LINE",
"497 267 LINE SMOOTH",
"478 129 OFFCURVE",
"428 65 OFFCURVE",
"338 65 CURVE SMOOTH",
"272 65 OFFCURVE",
"238 101 OFFCURVE",
"238 192 CURVE SMOOTH",
"238 214 OFFCURVE",
"240 239 OFFCURVE",
"244 267 CURVE SMOOTH",
"298 650 LINE",
"159 650 LINE",
"101 236 LINE SMOOTH",
"98 217 OFFCURVE",
"97 200 OFFCURVE",
"97 183 CURVE SMOOTH",
"97 62 OFFCURVE",
"164 -11 OFFCURVE",
"305 -11 CURVE SMOOTH"
);
},
{
closed = 1;
nodes = (
"446 720 LINE",
"494 697 LINE",
"610 847 LINE",
"521 873 LINE"
);
},
{
closed = 1;
nodes = (
"291 720 LINE",
"338 697 LINE",
"454 847 LINE",
"365 873 LINE"
);
}
);
width = 614;
}
);
note = Uhungarumlaut;
unicode = 0170;
},
{
glyphname = Umacron;
layers = (
{
layerId = "F05DF1C3-6E5D-4CAE-86D8-BB1A1E5E50BF";
paths = (
{
closed = 1;
nodes = (
"465 -10 OFFCURVE",
"545 83 OFFCURVE",
"563 212 CURVE SMOOTH",
"625 650 LINE",
"570 650 LINE",
"511 229 LINE SMOOTH",
"495 112 OFFCURVE",
"431 41 OFFCURVE",
"324 41 CURVE SMOOTH",
"235 41 OFFCURVE",
"190 92 OFFCURVE",
"190 184 CURVE SMOOTH",
"190 198 OFFCURVE",
"191 213 OFFCURVE",
"193 229 CURVE SMOOTH",
"252 650 LINE",
"177 650 LINE",
"115 212 LINE SMOOTH",
"113 197 OFFCURVE",
"112 183 OFFCURVE",
"112 169 CURVE SMOOTH",
"112 61 OFFCURVE",
"175 -10 OFFCURVE",
"308 -10 CURVE SMOOTH"
);
},
{
closed = 1;
nodes = (
"515 807 LINE",
"330 807 LINE",
"325 771 LINE",
"510 771 LINE"
);
}
);
width = 620;
},
{
layerId = "640DAD6F-C00E-41F4-8D6C-450924326D1A";
paths = (
{
closed = 1;
nodes = (
"481 -11 OFFCURVE",
"557 88 OFFCURVE",
"578 236 CURVE SMOOTH",
"636 650 LINE",
"551 650 LINE",
"497 267 LINE SMOOTH",
"478 129 OFFCURVE",
"428 65 OFFCURVE",
"338 65 CURVE SMOOTH",
"272 65 OFFCURVE",
"238 101 OFFCURVE",
"238 192 CURVE SMOOTH",
"238 214 OFFCURVE",
"240 239 OFFCURVE",
"244 267 CURVE SMOOTH",
"298 650 LINE",
"159 650 LINE",
"101 236 LINE SMOOTH",
"98 217 OFFCURVE",
"97 200 OFFCURVE",
"97 183 CURVE SMOOTH",
"97 62 OFFCURVE",
"164 -11 OFFCURVE",
"305 -11 CURVE SMOOTH"
);
},
{
closed = 1;
nodes = (
"538 817 LINE",
"324 817 LINE",
"316 759 LINE",
"531 759 LINE"
);
}
);
width = 614;
}
);
note = Umacron;
unicode = 016A;
},
{
glyphname = Uogonek;
layers = (
{
layerId = "F05DF1C3-6E5D-4CAE-86D8-BB1A1E5E50BF";
paths = (
{
closed = 1;
nodes = (
"315 -10 OFFCURVE",
"322 -10 OFFCURVE",
"328 -9 CURVE",
"286 -39 OFFCURVE",
"234 -89 OFFCURVE",
"234 -156 CURVE SMOOTH",
"234 -235 OFFCURVE",
"306 -250 OFFCURVE",
"375 -250 CURVE",
"380 -218 LINE",
"332 -218 OFFCURVE",
"284 -207 OFFCURVE",
"284 -152 CURVE SMOOTH",
"284 -67 OFFCURVE",
"355 -18 OFFCURVE",
"381 -2 CURVE",
"490 22 OFFCURVE",
"548 105 OFFCURVE",
"563 212 CURVE SMOOTH",
"625 650 LINE",
"570 650 LINE",
"511 229 LINE SMOOTH",
"495 112 OFFCURVE",
"431 41 OFFCURVE",
"324 41 CURVE SMOOTH",
"235 41 OFFCURVE",
"190 92 OFFCURVE",
"190 184 CURVE SMOOTH",
"190 198 OFFCURVE",
"191 213 OFFCURVE",
"193 229 CURVE SMOOTH",
"252 650 LINE",
"177 650 LINE",
"115 212 LINE SMOOTH",
"113 197 OFFCURVE",
"112 183 OFFCURVE",
"112 169 CURVE SMOOTH",
"112 61 OFFCURVE",
"175 -10 OFFCURVE",
"308 -10 CURVE SMOOTH"
);
}
);
width = 620;
},
{
layerId = "640DAD6F-C00E-41F4-8D6C-450924326D1A";
paths = (
{
closed = 1;
nodes = (
"308 -11 LINE",
"263 -43 OFFCURVE",
"217 -90 OFFCURVE",
"217 -152 CURVE SMOOTH",
"217 -234 OFFCURVE",
"287 -250 OFFCURVE",
"367 -250 CURVE",
"374 -201 LINE",
"332 -201 OFFCURVE",
"305 -190 OFFCURVE",
"305 -148 CURVE SMOOTH",
"305 -59 OFFCURVE",
"362 -17 OFFCURVE",
"391 -1 CURVE",
"507 26 OFFCURVE",
"561 115 OFFCURVE",
"578 236 CURVE SMOOTH",
"636 650 LINE",
"551 650 LINE",
"497 267 LINE SMOOTH",
"478 129 OFFCURVE",
"428 65 OFFCURVE",
"338 65 CURVE SMOOTH",
"272 65 OFFCURVE",
"238 101 OFFCURVE",
"238 192 CURVE SMOOTH",
"238 214 OFFCURVE",
"240 239 OFFCURVE",
"244 267 CURVE SMOOTH",
"298 650 LINE",
"159 650 LINE",
"101 236 LINE SMOOTH",
"98 217 OFFCURVE",
"97 200 OFFCURVE",
"97 183 CURVE SMOOTH",
"97 62 OFFCURVE",
"164 -11 OFFCURVE",
"305 -11 CURVE SMOOTH"
);
}
);
width = 614;
}
);
note = Uogonek;
unicode = 0172;
},
{
glyphname = Uring;
layers = (
{
layerId = "F05DF1C3-6E5D-4CAE-86D8-BB1A1E5E50BF";
paths = (
{
closed = 1;
nodes = (
"465 -10 OFFCURVE",
"545 83 OFFCURVE",
"563 212 CURVE SMOOTH",
"625 650 LINE",
"570 650 LINE",
"511 229 LINE SMOOTH",
"495 112 OFFCURVE",
"431 41 OFFCURVE",
"324 41 CURVE SMOOTH",
"235 41 OFFCURVE",
"190 92 OFFCURVE",
"190 184 CURVE SMOOTH",
"190 198 OFFCURVE",
"191 213 OFFCURVE",
"193 229 CURVE SMOOTH",
"252 650 LINE",
"177 650 LINE",
"115 212 LINE SMOOTH",
"113 197 OFFCURVE",
"112 183 OFFCURVE",
"112 169 CURVE SMOOTH",
"112 61 OFFCURVE",
"175 -10 OFFCURVE",
"308 -10 CURVE SMOOTH"
);
},
{
closed = 1;
nodes = (
"505 845 OFFCURVE",
"472 873 OFFCURVE",
"428 873 CURVE SMOOTH",
"372 873 OFFCURVE",
"325 834 OFFCURVE",
"325 764 CURVE SMOOTH",
"325 712 OFFCURVE",
"357 686 OFFCURVE",
"403 686 CURVE SMOOTH",
"460 686 OFFCURVE",
"505 724 OFFCURVE",
"505 793 CURVE SMOOTH"
);
},
{
closed = 1;
nodes = (
"477 737 OFFCURVE",
"446 712 OFFCURVE",
"407 712 CURVE SMOOTH",
"377 712 OFFCURVE",
"354 729 OFFCURVE",
"354 767 CURVE SMOOTH",
"354 822 OFFCURVE",
"387 846 OFFCURVE",
"425 846 CURVE SMOOTH",
"454 846 OFFCURVE",
"477 829 OFFCURVE",
"477 791 CURVE SMOOTH"
);
}
);
width = 620;
},
{
layerId = "640DAD6F-C00E-41F4-8D6C-450924326D1A";
paths = (
{
closed = 1;
nodes = (
"481 -11 OFFCURVE",
"557 88 OFFCURVE",
"578 236 CURVE SMOOTH",
"636 650 LINE",
"551 650 LINE",
"497 267 LINE SMOOTH",
"478 129 OFFCURVE",
"428 65 OFFCURVE",
"338 65 CURVE SMOOTH",
"272 65 OFFCURVE",
"238 101 OFFCURVE",
"238 192 CURVE SMOOTH",
"238 214 OFFCURVE",
"240 239 OFFCURVE",
"244 267 CURVE SMOOTH",
"298 650 LINE",
"159 650 LINE",
"101 236 LINE SMOOTH",
"98 217 OFFCURVE",
"97 200 OFFCURVE",
"97 183 CURVE SMOOTH",
"97 62 OFFCURVE",
"164 -11 OFFCURVE",
"305 -11 CURVE SMOOTH"
);
},
{
closed = 1;
nodes = (
"530 865 OFFCURVE",
"490 898 OFFCURVE",
"437 898 CURVE SMOOTH",
"370 898 OFFCURVE",
"318 852 OFFCURVE",
"318 774 CURVE SMOOTH",
"318 717 OFFCURVE",
"354 683 OFFCURVE",
"411 683 CURVE SMOOTH",
"480 683 OFFCURVE",
"530 731 OFFCURVE",
"530 807 CURVE SMOOTH"
);
},
{
closed = 1;
nodes = (
"485 752 OFFCURVE",
"457 726 OFFCURVE",
"417 726 CURVE SMOOTH",
"387 726 OFFCURVE",
"364 744 OFFCURVE",
"364 780 CURVE SMOOTH",
"364 832 OFFCURVE",
"395 856 OFFCURVE",
"432 856 CURVE SMOOTH",
"461 856 OFFCURVE",
"485 839 OFFCURVE",
"485 803 CURVE SMOOTH"
);
}
);
width = 614;
}
);
note = Uring;
unicode = 016E;
},
{
glyphname = V;
layers = (
{
layerId = "F05DF1C3-6E5D-4CAE-86D8-BB1A1E5E50BF";
paths = (
{
closed = 1;
nodes = (
"315 0 LINE",
"622 650 LINE",
"566 650 LINE",
"291 56 LINE",
"185 650 LINE",
"106 650 LINE",
"227 0 LINE"
);
}
);
width = 548;
},
{
layerId = "640DAD6F-C00E-41F4-8D6C-450924326D1A";
paths = (
{
closed = 1;
nodes = (
"357 0 LINE",
"657 650 LINE",
"570 650 LINE",
"326 101 LINE",
"323 101 LINE",
"246 650 LINE",
"100 650 LINE",
"204 0 LINE"
);
}
);
width = 576;
}
);
note = V;
unicode = 0056;
},
{
glyphname = W;
layers = (
{
layerId = "F05DF1C3-6E5D-4CAE-86D8-BB1A1E5E50BF";
paths = (
{
closed = 1;
nodes = (
"866 650 LINE",
"643 90 LINE",
"560 650 LINE",
"493 650 LINE",
"255 87 LINE",
"186 650 LINE",
"106 650 LINE",
"194 0 LINE",
"264 0 LINE",
"502 556 LINE",
"586 0 LINE",
"656 0 LINE",
"922 650 LINE"
);
}
);
width = 848;
},
{
layerId = "640DAD6F-C00E-41F4-8D6C-450924326D1A";
paths = (
{
closed = 1;
nodes = (
"866 650 LINE",
"684 161 LINE",
"682 161 LINE",
"613 650 LINE",
"502 650 LINE",
"300 158 LINE",
"298 158 LINE",
"247 650 LINE",
"100 650 LINE",
"182 0 LINE",
"302 0 LINE",
"503 480 LINE",
"506 480 LINE",
"575 0 LINE",
"693 0 LINE",
"954 650 LINE"
);
}
);
width = 873;
}
);
note = W;
unicode = 0057;
},
{
glyphname = X;
layers = (
{
layerId = "F05DF1C3-6E5D-4CAE-86D8-BB1A1E5E50BF";
paths = (
{
closed = 1;
nodes = (
"18 0 LINE",
"85 0 LINE",
"298 279 LINE",
"299 279 LINE",
"430 0 LINE",
"523 0 LINE",
"358 335 LINE",
"601 650 LINE",
"538 650 LINE",
"332 378 LINE",
"331 378 LINE",
"209 650 LINE",
"117 650 LINE",
"271 322 LINE"
);
}
);
width = 541;
},
{
layerId = "640DAD6F-C00E-41F4-8D6C-450924326D1A";
paths = (
{
closed = 1;
nodes = (
"8 0 LINE",
"112 0 LINE",
"294 248 LINE",
"296 248 LINE",
"401 0 LINE",
"573 0 LINE",
"410 350 LINE",
"641 650 LINE",
"543 650 LINE",
"371 417 LINE",
"368 417 LINE",
"281 650 LINE",
"108 650 LINE",
"254 316 LINE"
);
}
);
width = 581;
}
);
note = X;
unicode = 0058;
},
{
glyphname = Y;
layers = (
{
anchors = (
{
name = bottom;
position = "{254, 0}";
},
{
name = top;
position = "{350, 650}";
},
{
name = topleft;
position = "{84, 650}";
}
);
layerId = "F05DF1C3-6E5D-4CAE-86D8-BB1A1E5E50BF";
paths = (
{
closed = 1;
nodes = (
"93 650 LINE",
"254 269 LINE",
"217 0 LINE",
"293 0 LINE",
"330 273 LINE",
"596 650 LINE",
"535 650 LINE",
"312 330 LINE",
"178 650 LINE"
);
}
);
width = 507;
},
{
anchors = (
{
name = bottom;
position = "{222, 0}";
},
{
name = top;
position = "{378, 650}";
},
{
name = topleft;
position = "{84, 650}";
}
);
layerId = "640DAD6F-C00E-41F4-8D6C-450924326D1A";
paths = (
{
closed = 1;
nodes = (
"341 355 LINE",
"239 650 LINE",
"84 650 LINE",
"230 251 LINE",
"195 0 LINE",
"334 0 LINE",
"370 267 LINE",
"620 650 LINE",
"524 650 LINE",
"342 355 LINE"
);
}
);
width = 523;
}
);
note = Y;
unicode = 0059;
},
{
color = 9;
glyphname = Yacute;
layers = (
{
layerId = "F05DF1C3-6E5D-4CAE-86D8-BB1A1E5E50BF";
paths = (
{
closed = 1;
nodes = (
"93 650 LINE",
"254 269 LINE",
"217 0 LINE",
"293 0 LINE",
"330 273 LINE",
"596 650 LINE",
"535 650 LINE",
"312 330 LINE",
"178 650 LINE"
);
},
{
closed = 1;
nodes = (
"424 856 LINE",
"328 711 LINE",
"365 706 LINE",
"485 841 LINE"
);
}
);
width = 507;
},
{
layerId = "640DAD6F-C00E-41F4-8D6C-450924326D1A";
paths = (
{
closed = 1;
nodes = (
"341 355 LINE",
"239 650 LINE",
"84 650 LINE",
"230 251 LINE",
"195 0 LINE",
"334 0 LINE",
"370 267 LINE",
"620 650 LINE",
"524 650 LINE",
"342 355 LINE"
);
},
{
closed = 1;
nodes = (
"419 865 LINE",
"328 713 LINE",
"384 704 LINE",
"523 834 LINE"
);
}
);
width = 523;
}
);
note = Yacute;
unicode = 00DD;
},
{
glyphname = Ydieresis;
layers = (
{
layerId = "F05DF1C3-6E5D-4CAE-86D8-BB1A1E5E50BF";
paths = (
{
closed = 1;
nodes = (
"93 650 LINE",
"254 269 LINE",
"217 0 LINE",
"293 0 LINE",
"330 273 LINE",
"596 650 LINE",
"535 650 LINE",
"312 330 LINE",
"178 650 LINE"
);
},
{
closed = 1;
nodes = (
"409 799 OFFCURVE",
"403 786 OFFCURVE",
"403 773 CURVE SMOOTH",
"403 764 OFFCURVE",
"406 756 OFFCURVE",
"411 750 CURVE",
"417 744 OFFCURVE",
"426 740 OFFCURVE",
"435 740 CURVE SMOOTH",
"444 740 OFFCURVE",
"455 744 OFFCURVE",
"463 750 CURVE",
"473 760 OFFCURVE",
"479 773 OFFCURVE",
"479 786 CURVE SMOOTH",
"479 795 OFFCURVE",
"476 803 OFFCURVE",
"471 809 CURVE",
"465 815 OFFCURVE",
"455 819 OFFCURVE",
"446 819 CURVE SMOOTH",
"437 819 OFFCURVE",
"427 815 OFFCURVE",
"419 809 CURVE"
);
},
{
closed = 1;
nodes = (
"255 799 OFFCURVE",
"249 786 OFFCURVE",
"249 773 CURVE SMOOTH",
"249 764 OFFCURVE",
"252 756 OFFCURVE",
"257 750 CURVE",
"263 744 OFFCURVE",
"273 740 OFFCURVE",
"282 740 CURVE SMOOTH",
"291 740 OFFCURVE",
"301 744 OFFCURVE",
"309 750 CURVE",
"319 760 OFFCURVE",
"325 773 OFFCURVE",
"325 786 CURVE SMOOTH",
"325 794 OFFCURVE",
"323 803 OFFCURVE",
"317 809 CURVE SMOOTH",
"311 815 OFFCURVE",
"302 819 OFFCURVE",
"292 819 CURVE SMOOTH",
"282 819 OFFCURVE",
"273 815 OFFCURVE",
"265 809 CURVE"
);
}
);
width = 507;
},
{
layerId = "640DAD6F-C00E-41F4-8D6C-450924326D1A";
paths = (
{
closed = 1;
nodes = (
"341 355 LINE",
"239 650 LINE",
"84 650 LINE",
"230 251 LINE",
"195 0 LINE",
"334 0 LINE",
"370 267 LINE",
"620 650 LINE",
"524 650 LINE",
"342 355 LINE"
);
},
{
closed = 1;
nodes = (
"425 822 OFFCURVE",
"415 798 OFFCURVE",
"415 776 CURVE SMOOTH",
"415 761 OFFCURVE",
"420 746 OFFCURVE",
"429 735 CURVE SMOOTH",
"439 723 OFFCURVE",
"454 717 OFFCURVE",
"471 717 CURVE SMOOTH",
"487 717 OFFCURVE",
"505 723 OFFCURVE",
"520 735 CURVE",
"539 752 OFFCURVE",
"549 775 OFFCURVE",
"549 798 CURVE SMOOTH",
"549 813 OFFCURVE",
"544 827 OFFCURVE",
"535 839 CURVE",
"523 850 OFFCURVE",
"508 856 OFFCURVE",
"491 856 CURVE SMOOTH",
"474 856 OFFCURVE",
"457 850 OFFCURVE",
"443 839 CURVE"
);
},
{
closed = 1;
nodes = (
"239 822 OFFCURVE",
"229 798 OFFCURVE",
"229 776 CURVE SMOOTH",
"229 761 OFFCURVE",
"234 746 OFFCURVE",
"243 735 CURVE",
"254 723 OFFCURVE",
"270 717 OFFCURVE",
"286 717 CURVE SMOOTH",
"302 717 OFFCURVE",
"319 723 OFFCURVE",
"334 735 CURVE",
"353 752 OFFCURVE",
"363 775 OFFCURVE",
"363 798 CURVE SMOOTH",
"363 813 OFFCURVE",
"358 827 OFFCURVE",
"349 839 CURVE",
"338 850 OFFCURVE",
"323 856 OFFCURVE",
"306 856 CURVE SMOOTH",
"289 856 OFFCURVE",
"271 850 OFFCURVE",
"257 839 CURVE"
);
}
);
width = 523;
}
);
note = Ydieresis;
unicode = 0178;
},
{
glyphname = Z;
layers = (
{
layerId = "F05DF1C3-6E5D-4CAE-86D8-BB1A1E5E50BF";
paths = (
{
closed = 1;
nodes = (
"576 650 LINE",
"140 650 LINE",
"134 602 LINE",
"476 602 LINE",
"46 40 LINE",
"40 0 LINE",
"485 0 LINE",
"492 48 LINE",
"139 48 LINE",
"570 609 LINE"
);
}
);
width = 527;
},
{
layerId = "640DAD6F-C00E-41F4-8D6C-450924326D1A";
paths = (
{
closed = 1;
nodes = (
"613 650 LINE",
"151 650 LINE",
"141 578 LINE",
"437 578 LINE",
"51 58 LINE",
"42 0 LINE",
"521 0 LINE",
"531 72 LINE",
"219 72 LINE",
"604 590 LINE"
);
}
);
width = 567;
}
);
note = Z;
unicode = 005A;
},
{
glyphname = Zacute;
layers = (
{
layerId = "F05DF1C3-6E5D-4CAE-86D8-BB1A1E5E50BF";
paths = (
{
closed = 1;
nodes = (
"576 650 LINE",
"140 650 LINE",
"134 602 LINE",
"476 602 LINE",
"46 40 LINE",
"40 0 LINE",
"485 0 LINE",
"492 48 LINE",
"139 48 LINE",
"570 609 LINE"
);
},
{
closed = 1;
nodes = (
"431 856 LINE",
"335 711 LINE",
"372 706 LINE",
"492 841 LINE"
);
}
);
width = 527;
},
{
layerId = "640DAD6F-C00E-41F4-8D6C-450924326D1A";
paths = (
{
closed = 1;
nodes = (
"613 650 LINE",
"151 650 LINE",
"141 578 LINE",
"437 578 LINE",
"51 58 LINE",
"42 0 LINE",
"521 0 LINE",
"531 72 LINE",
"219 72 LINE",
"604 590 LINE"
);
},
{
closed = 1;
nodes = (
"420 865 LINE",
"329 713 LINE",
"385 704 LINE",
"524 834 LINE"
);
}
);
width = 567;
}
);
note = Zacute;
unicode = 0179;
},
{
glyphname = Zcaron;
layers = (
{
layerId = "F05DF1C3-6E5D-4CAE-86D8-BB1A1E5E50BF";
paths = (
{
closed = 1;
nodes = (
"576 650 LINE",
"140 650 LINE",
"134 602 LINE",
"476 602 LINE",
"46 40 LINE",
"40 0 LINE",
"485 0 LINE",
"492 48 LINE",
"139 48 LINE",
"570 609 LINE"
);
},
{
closed = 1;
nodes = (
"349 708 LINE",
"389 708 LINE",
"525 829 LINE",
"500 855 LINE",
"376 754 LINE",
"280 855 LINE",
"249 831 LINE"
);
}
);
width = 527;
},
{
layerId = "640DAD6F-C00E-41F4-8D6C-450924326D1A";
paths = (
{
closed = 1;
nodes = (
"613 650 LINE",
"151 650 LINE",
"141 578 LINE",
"437 578 LINE",
"51 58 LINE",
"42 0 LINE",
"521 0 LINE",
"531 72 LINE",
"219 72 LINE",
"604 590 LINE"
);
},
{
closed = 1;
nodes = (
"348 707 LINE",
"418 707 LINE",
"552 841 LINE",
"515 880 LINE",
"394 787 LINE",
"299 880 LINE",
"252 845 LINE"
);
}
);
width = 567;
}
);
note = Zcaron;
unicode = 017D;
},
{
glyphname = Zdotaccent;
layers = (
{
layerId = "F05DF1C3-6E5D-4CAE-86D8-BB1A1E5E50BF";
paths = (
{
closed = 1;
nodes = (
"576 650 LINE",
"140 650 LINE",
"134 602 LINE",
"476 602 LINE",
"46 40 LINE",
"40 0 LINE",
"485 0 LINE",
"492 48 LINE",
"139 48 LINE",
"570 609 LINE"
);
},
{
closed = 1;
nodes = (
"334 802 OFFCURVE",
"328 787 OFFCURVE",
"328 773 CURVE SMOOTH",
"328 763 OFFCURVE",
"331 754 OFFCURVE",
"337 747 CURVE SMOOTH",
"343 740 OFFCURVE",
"353 736 OFFCURVE",
"364 736 CURVE SMOOTH",
"375 736 OFFCURVE",
"386 740 OFFCURVE",
"396 747 CURVE",
"407 758 OFFCURVE",
"413 772 OFFCURVE",
"413 786 CURVE SMOOTH",
"413 795 OFFCURVE",
"411 805 OFFCURVE",
"405 812 CURVE",
"398 819 OFFCURVE",
"388 822 OFFCURVE",
"377 822 CURVE SMOOTH",
"366 822 OFFCURVE",
"355 819 OFFCURVE",
"346 811 CURVE"
);
}
);
width = 527;
},
{
layerId = "640DAD6F-C00E-41F4-8D6C-450924326D1A";
paths = (
{
closed = 1;
nodes = (
"613 650 LINE",
"151 650 LINE",
"141 578 LINE",
"437 578 LINE",
"51 58 LINE",
"42 0 LINE",
"521 0 LINE",
"531 72 LINE",
"219 72 LINE",
"604 590 LINE"
);
},
{
closed = 1;
nodes = (
"319 825 OFFCURVE",
"308 799 OFFCURVE",
"308 775 CURVE SMOOTH",
"308 758 OFFCURVE",
"313 742 OFFCURVE",
"324 730 CURVE SMOOTH",
"336 716 OFFCURVE",
"354 710 OFFCURVE",
"373 710 CURVE SMOOTH",
"392 710 OFFCURVE",
"411 716 OFFCURVE",
"428 729 CURVE",
"448 748 OFFCURVE",
"459 774 OFFCURVE",
"459 799 CURVE SMOOTH",
"459 816 OFFCURVE",
"454 831 OFFCURVE",
"444 844 CURVE",
"432 857 OFFCURVE",
"414 863 OFFCURVE",
"395 863 CURVE SMOOTH",
"376 863 OFFCURVE",
"356 857 OFFCURVE",
"340 843 CURVE SMOOTH"
);
}
);
width = 567;
}
);
note = Zdotaccent;
unicode = 017B;
},
{
glyphname = A.swsh;
layers = (
{
layerId = "F05DF1C3-6E5D-4CAE-86D8-BB1A1E5E50BF";
paths = (
{
closed = 1;
nodes = (
"573 660 LINE",
"556 652 OFFCURVE",
"529 650 OFFCURVE",
"489 650 CURVE SMOOTH",
"237 649 OFFCURVE",
"94 551 OFFCURVE",
"94 393 CURVE SMOOTH",
"94 366 OFFCURVE",
"98 338 OFFCURVE",
"106 308 CURVE",
"157 322 LINE",
"150 348 OFFCURVE",
"146 372 OFFCURVE",
"146 395 CURVE SMOOTH",
"146 522 OFFCURVE",
"257 600 OFFCURVE",
"467 606 CURVE",
"274 219 LINE SMOOTH",
"176 24 OFFCURVE",
"100 -26 OFFCURVE",
"27 -43 CURVE",
"47 -86 LINE",
"135 -66 OFFCURVE",
"215 -7 OFFCURVE",
"317 200 CURVE",
"570 200 LINE",
"601 0 LINE",
"681 0 LINE",
"574 621 LINE"
);
},
{
closed = 1;
nodes = (
"511 592 LINE",
"564 241 LINE",
"337 241 LINE"
);
}
);
width = 703;
},
{
layerId = "640DAD6F-C00E-41F4-8D6C-450924326D1A";
paths = (
{
closed = 1;
nodes = (
"632 665 LINE",
"606 654 OFFCURVE",
"567 651 OFFCURVE",
"520 650 CURVE SMOOTH",
"490 650 LINE SMOOTH",
"229 647 OFFCURVE",
"80 514 OFFCURVE",
"80 357 CURVE SMOOTH",
"80 335 OFFCURVE",
"83 312 OFFCURVE",
"89 289 CURVE",
"166 309 LINE",
"162 326 OFFCURVE",
"159 343 OFFCURVE",
"159 360 CURVE SMOOTH",
"159 472 OFFCURVE",
"258 572 OFFCURVE",
"458 584 CURVE",
"274 210 LINE SMOOTH",
"176 11 OFFCURVE",
"100 -35 OFFCURVE",
"37 -54 CURVE",
"67 -120 LINE",
"155 -97 OFFCURVE",
"238 -36 OFFCURVE",
"342 182 CURVE",
"565 182 LINE",
"587 0 LINE",
"733 0 LINE",
"635 608 LINE"
);
},
{
closed = 1;
nodes = (
"521 551 LINE",
"557 245 LINE",
"372 245 LINE",
"519 551 LINE"
);
}
);
width = 752;
}
);
note = A.swsh;
},
{
glyphname = B.swsh;
layers = (
{
layerId = "F05DF1C3-6E5D-4CAE-86D8-BB1A1E5E50BF";
paths = (
{
closed = 1;
nodes = (
"519 650 LINE",
"523 672 OFFCURVE",
"528 692 OFFCURVE",
"533 710 CURVE",
"476 715 LINE",
"464 704 OFFCURVE",
"454 682 OFFCURVE",
"446 650 CURVE",
"443 650 LINE SMOOTH",
"228 650 OFFCURVE",
"97 521 OFFCURVE",
"97 387 CURVE SMOOTH",
"97 356 OFFCURVE",
"104 325 OFFCURVE",
"119 295 CURVE",
"164 315 LINE",
"152 339 OFFCURVE",
"147 365 OFFCURVE",
"147 390 CURVE SMOOTH",
"147 499 OFFCURVE",
"250 607 OFFCURVE",
"437 607 CURVE SMOOTH",
"438 607 LINE",
"435 593 OFFCURVE",
"433 578 OFFCURVE",
"431 562 CURVE SMOOTH",
"396 316 OFFCURVE",
"370 127 OFFCURVE",
"346 0 CURVE",
"516 0 LINE SMOOTH",
"697 0 OFFCURVE",
"780 83 OFFCURVE",
"780 206 CURVE SMOOTH",
"780 276 OFFCURVE",
"738 322 OFFCURVE",
"675 341 CURVE",
"729 366 OFFCURVE",
"790 417 OFFCURVE",
"790 508 CURVE SMOOTH",
"790 590 OFFCURVE",
"729 650 OFFCURVE",
"607 650 CURVE SMOOTH"
);
},
{
closed = 1;
nodes = (
"594 315 LINE SMOOTH",
"659 315 OFFCURVE",
"705 282 OFFCURVE",
"705 211 CURVE SMOOTH",
"705 101 OFFCURVE",
"643 44 OFFCURVE",
"520 44 CURVE SMOOTH",
"426 44 LINE",
"439 115 OFFCURVE",
"455 212 OFFCURVE",
"470 315 CURVE"
);
},
{
closed = 1;
nodes = (
"512 607 LINE",
"554 606 OFFCURVE",
"598 606 OFFCURVE",
"598 606 CURVE",
"668 606 OFFCURVE",
"717 574 OFFCURVE",
"717 504 CURVE SMOOTH",
"717 389 OFFCURVE",
"634 356 OFFCURVE",
"596 356 CURVE SMOOTH",
"476 356 LINE",
"487 425 OFFCURVE",
"497 496 OFFCURVE",
"506 562 CURVE SMOOTH"
);
}
);
width = 799;
},
{
layerId = "640DAD6F-C00E-41F4-8D6C-450924326D1A";
paths = (
{
closed = 1;
nodes = (
"565 650 LINE",
"570 669 OFFCURVE",
"575 687 OFFCURVE",
"583 709 CURVE",
"479 723 LINE",
"459 711 OFFCURVE",
"444 686 OFFCURVE",
"432 650 CURVE",
"425 650 LINE SMOOTH",
"225 650 OFFCURVE",
"96 525 OFFCURVE",
"96 377 CURVE SMOOTH",
"96 345 OFFCURVE",
"102 312 OFFCURVE",
"115 279 CURVE",
"182 310 LINE",
"174 334 OFFCURVE",
"170 358 OFFCURVE",
"170 381 CURVE SMOOTH",
"170 492 OFFCURVE",
"259 586 OFFCURVE",
"416 586 CURVE SMOOTH",
"417 586 LINE",
"414 572 OFFCURVE",
"412 557 OFFCURVE",
"410 542 CURVE SMOOTH",
"363 211 OFFCURVE",
"347 98 OFFCURVE",
"322 0 CURVE",
"536 0 LINE SMOOTH",
"723 0 OFFCURVE",
"817 90 OFFCURVE",
"817 206 CURVE SMOOTH",
"817 272 OFFCURVE",
"774 317 OFFCURVE",
"713 338 CURVE",
"771 365 OFFCURVE",
"830 415 OFFCURVE",
"830 499 CURVE SMOOTH",
"830 577 OFFCURVE",
"770 650 OFFCURVE",
"622 650 CURVE SMOOTH"
);
},
{
closed = 1;
nodes = (
"603 301 LINE SMOOTH",
"648 301 OFFCURVE",
"679 279 OFFCURVE",
"679 219 CURVE SMOOTH",
"679 114 OFFCURVE",
"623 65 OFFCURVE",
"542 65 CURVE SMOOTH",
"467 65 LINE",
"480 123 OFFCURVE",
"494 202 OFFCURVE",
"511 301 CURVE"
);
},
{
closed = 1;
nodes = (
"548 541 LINE",
"554 585 LINE",
"610 585 LINE SMOOTH",
"658 585 OFFCURVE",
"695 560 OFFCURVE",
"695 497 CURVE SMOOTH",
"695 395 OFFCURVE",
"639 361 OFFCURVE",
"605 361 CURVE SMOOTH",
"521 361 LINE"
);
}
);
width = 825;
}
);
note = B.swsh;
},
{
glyphname = C.swsh;
layers = (
{
layerId = "F05DF1C3-6E5D-4CAE-86D8-BB1A1E5E50BF";
paths = (
{
closed = 1;
nodes = (
"545 356 LINE",
"604 392 OFFCURVE",
"644 461 OFFCURVE",
"644 525 CURVE SMOOTH",
"644 596 OFFCURVE",
"594 659 OFFCURVE",
"461 659 CURVE SMOOTH",
"265 659 OFFCURVE",
"97 487 OFFCURVE",
"97 176 CURVE SMOOTH",
"97 -19 OFFCURVE",
"181 -122 OFFCURVE",
"331 -122 CURVE SMOOTH",
"488 -122 OFFCURVE",
"555 -25 OFFCURVE",
"555 -25 CURVE",
"531 7 LINE",
"531 7 OFFCURVE",
"470 -72 OFFCURVE",
"350 -72 CURVE SMOOTH",
"241 -72 OFFCURVE",
"177 2 OFFCURVE",
"177 171 CURVE SMOOTH",
"177 478 OFFCURVE",
"314 609 OFFCURVE",
"459 609 CURVE SMOOTH",
"556 609 OFFCURVE",
"592 564 OFFCURVE",
"592 513 CURVE SMOOTH",
"592 462 OFFCURVE",
"557 404 OFFCURVE",
"512 377 CURVE"
);
}
);
width = 578;
},
{
layerId = "640DAD6F-C00E-41F4-8D6C-450924326D1A";
paths = (
{
closed = 1;
nodes = (
"558 323 LINE",
"624 363 OFFCURVE",
"667 439 OFFCURVE",
"667 508 CURVE SMOOTH",
"667 588 OFFCURVE",
"610 660 OFFCURVE",
"465 660 CURVE SMOOTH",
"249 660 OFFCURVE",
"86 489 OFFCURVE",
"86 184 CURVE SMOOTH",
"86 -11 OFFCURVE",
"174 -116 OFFCURVE",
"339 -116 CURVE SMOOTH",
"513 -116 OFFCURVE",
"580 -7 OFFCURVE",
"580 -7 CURVE",
"543 41 LINE",
"543 41 OFFCURVE",
"482 -41 OFFCURVE",
"376 -41 CURVE SMOOTH",
"287 -41 OFFCURVE",
"235 10 OFFCURVE",
"235 165 CURVE SMOOTH",
"235 496 OFFCURVE",
"347 585 OFFCURVE",
"468 585 CURVE SMOOTH",
"553 585 OFFCURVE",
"586 541 OFFCURVE",
"586 491 CURVE SMOOTH",
"586 440 OFFCURVE",
"553 383 OFFCURVE",
"508 356 CURVE"
);
}
);
width = 591;
}
);
note = C.swsh;
},
{
glyphname = D.swsh;
layers = (
{
layerId = "F05DF1C3-6E5D-4CAE-86D8-BB1A1E5E50BF";
paths = (
{
closed = 1;
nodes = (
"476 715 LINE",
"464 704 OFFCURVE",
"455 682 OFFCURVE",
"447 650 CURVE",
"443 650 LINE SMOOTH",
"228 650 OFFCURVE",
"97 521 OFFCURVE",
"97 387 CURVE SMOOTH",
"97 356 OFFCURVE",
"104 325 OFFCURVE",
"119 295 CURVE",
"164 315 LINE",
"152 339 OFFCURVE",
"147 365 OFFCURVE",
"147 390 CURVE SMOOTH",
"147 499 OFFCURVE",
"250 607 OFFCURVE",
"437 607 CURVE",
"437 606 LINE",
"431 562 LINE SMOOTH",
"396 316 OFFCURVE",
"370 127 OFFCURVE",
"346 0 CURVE",
"550 0 LINE SMOOTH",
"767 0 OFFCURVE",
"895 141 OFFCURVE",
"895 384 CURVE SMOOTH",
"895 556 OFFCURVE",
"803 650 OFFCURVE",
"641 650 CURVE SMOOTH",
"519 650 LINE",
"523 672 OFFCURVE",
"528 692 OFFCURVE",
"533 710 CURVE"
);
},
{
closed = 1;
nodes = (
"634 602 LINE SMOOTH",
"751 602 OFFCURVE",
"814 532 OFFCURVE",
"814 393 CURVE SMOOTH",
"814 150 OFFCURVE",
"710 48 OFFCURVE",
"557 48 CURVE SMOOTH",
"427 48 LINE",
"450 176 OFFCURVE",
"482 386 OFFCURVE",
"506 562 CURVE SMOOTH",
"512 602 LINE"
);
}
);
width = 891;
},
{
layerId = "640DAD6F-C00E-41F4-8D6C-450924326D1A";
paths = (
{
closed = 1;
nodes = (
"479 723 LINE",
"459 711 OFFCURVE",
"444 686 OFFCURVE",
"432 650 CURVE",
"425 650 LINE SMOOTH",
"225 650 OFFCURVE",
"96 525 OFFCURVE",
"96 377 CURVE SMOOTH",
"96 345 OFFCURVE",
"102 312 OFFCURVE",
"115 279 CURVE",
"182 310 LINE",
"174 334 OFFCURVE",
"170 358 OFFCURVE",
"170 381 CURVE SMOOTH",
"170 492 OFFCURVE",
"259 586 OFFCURVE",
"416 586 CURVE",
"416 586 OFFCURVE",
"416 585 OFFCURVE",
"417 585 CURVE",
"414 572 OFFCURVE",
"412 557 OFFCURVE",
"410 542 CURVE SMOOTH",
"363 211 OFFCURVE",
"347 98 OFFCURVE",
"322 0 CURVE",
"555 0 LINE SMOOTH",
"793 0 OFFCURVE",
"919 142 OFFCURVE",
"919 383 CURVE SMOOTH",
"919 557 OFFCURVE",
"822 650 OFFCURVE",
"646 650 CURVE SMOOTH",
"565 650 LINE",
"570 669 OFFCURVE",
"575 687 OFFCURVE",
"583 709 CURVE"
);
},
{
closed = 1;
nodes = (
"636 579 LINE SMOOTH",
"727 579 OFFCURVE",
"770 529 OFFCURVE",
"770 413 CURVE SMOOTH",
"770 143 OFFCURVE",
"686 71 OFFCURVE",
"566 71 CURVE SMOOTH",
"468 71 LINE",
"490 171 OFFCURVE",
"517 330 OFFCURVE",
"548 541 CURVE SMOOTH",
"553 579 LINE"
);
}
);
width = 903;
}
);
note = D.swsh;
},
{
glyphname = E.swsh;
layers = (
{
layerId = "F05DF1C3-6E5D-4CAE-86D8-BB1A1E5E50BF";
paths = (
{
closed = 1;
nodes = (
"415 288 LINE",
"300 286 LINE",
"250 289 OFFCURVE",
"204 339 OFFCURVE",
"204 415 CURVE SMOOTH",
"204 534 OFFCURVE",
"257 613 OFFCURVE",
"401 613 CURVE SMOOTH",
"503 613 OFFCURVE",
"553 564 OFFCURVE",
"553 508 CURVE SMOOTH",
"553 476 OFFCURVE",
"537 442 OFFCURVE",
"505 413 CURVE",
"541 394 LINE",
"583 431 OFFCURVE",
"605 477 OFFCURVE",
"605 520 CURVE SMOOTH",
"605 594 OFFCURVE",
"540 659 OFFCURVE",
"400 659 CURVE SMOOTH",
"210 659 OFFCURVE",
"128 550 OFFCURVE",
"128 420 CURVE SMOOTH",
"128 336 OFFCURVE",
"179 286 OFFCURVE",
"234 264 CURVE",
"171 240 OFFCURVE",
"99 181 OFFCURVE",
"99 59 CURVE SMOOTH",
"99 -51 OFFCURVE",
"176 -110 OFFCURVE",
"294 -110 CURVE SMOOTH",
"442 -110 OFFCURVE",
"502 -22 OFFCURVE",
"502 -22 CURVE",
"481 11 LINE",
"481 11 OFFCURVE",
"427 -62 OFFCURVE",
"314 -62 CURVE SMOOTH",
"227 -62 OFFCURVE",
"172 -20 OFFCURVE",
"172 64 CURVE SMOOTH",
"172 200 OFFCURVE",
"249 240 OFFCURVE",
"299 243 CURVE",
"409 242 LINE"
);
}
);
width = 534;
},
{
layerId = "640DAD6F-C00E-41F4-8D6C-450924326D1A";
paths = (
{
closed = 1;
nodes = (
"448 298 LINE",
"318 294 LINE",
"283 298 OFFCURVE",
"256 330 OFFCURVE",
"256 397 CURVE SMOOTH",
"256 536 OFFCURVE",
"305 590 OFFCURVE",
"416 590 CURVE SMOOTH",
"510 590 OFFCURVE",
"551 542 OFFCURVE",
"551 491 CURVE SMOOTH",
"551 462 OFFCURVE",
"538 432 OFFCURVE",
"514 410 CURVE",
"570 382 LINE",
"609 417 OFFCURVE",
"631 463 OFFCURVE",
"631 508 CURVE SMOOTH",
"631 586 OFFCURVE",
"564 660 OFFCURVE",
"404 660 CURVE SMOOTH",
"214 660 OFFCURVE",
"116 552 OFFCURVE",
"116 414 CURVE SMOOTH",
"116 326 OFFCURVE",
"168 280 OFFCURVE",
"224 259 CURVE",
"161 231 OFFCURVE",
"93 172 OFFCURVE",
"93 57 CURVE SMOOTH",
"93 -57 OFFCURVE",
"172 -111 OFFCURVE",
"295 -111 CURVE SMOOTH",
"460 -111 OFFCURVE",
"524 -15 OFFCURVE",
"524 -15 CURVE",
"493 35 LINE",
"493 35 OFFCURVE",
"432 -39 OFFCURVE",
"332 -39 CURVE SMOOTH",
"266 -39 OFFCURVE",
"229 -14 OFFCURVE",
"229 57 CURVE SMOOTH",
"229 191 OFFCURVE",
"279 223 OFFCURVE",
"315 227 CURVE",
"438 224 LINE"
);
}
);
width = 562;
}
);
note = E.swsh;
},
{
glyphname = F.swsh;
layers = (
{
layerId = "F05DF1C3-6E5D-4CAE-86D8-BB1A1E5E50BF";
paths = (
{
closed = 1;
nodes = (
"389 0 LINE",
"430 297 LINE",
"672 297 LINE",
"678 343 LINE",
"437 343 LINE",
"473 602 LINE",
"754 602 LINE",
"761 650 LINE",
"412 650 LINE SMOOTH",
"233 650 OFFCURVE",
"98 552 OFFCURVE",
"98 395 CURVE SMOOTH",
"98 368 OFFCURVE",
"102 338 OFFCURVE",
"111 308 CURVE",
"162 322 LINE",
"155 349 OFFCURVE",
"151 374 OFFCURVE",
"151 398 CURVE SMOOTH",
"151 528 OFFCURVE",
"257 607 OFFCURVE",
"405 607 CURVE",
"399 596 OFFCURVE",
"395 583 OFFCURVE",
"393 569 CURVE SMOOTH",
"314 0 LINE"
);
}
);
width = 684;
},
{
layerId = "640DAD6F-C00E-41F4-8D6C-450924326D1A";
paths = (
{
closed = 1;
nodes = (
"455 0 LINE",
"492 268 LINE",
"715 268 LINE",
"725 338 LINE",
"502 338 LINE",
"536 578 LINE",
"792 578 LINE",
"802 650 LINE",
"426 650 LINE SMOOTH",
"228 650 OFFCURVE",
"94 518 OFFCURVE",
"94 362 CURVE SMOOTH",
"94 338 OFFCURVE",
"98 314 OFFCURVE",
"104 289 CURVE",
"181 309 LINE",
"176 328 OFFCURVE",
"174 348 OFFCURVE",
"174 367 CURVE SMOOTH",
"174 483 OFFCURVE",
"263 586 OFFCURVE",
"416 586 CURVE SMOOTH",
"417 586 LINE",
"402 563 OFFCURVE",
"391 535 OFFCURVE",
"387 500 CURVE SMOOTH",
"316 0 LINE"
);
}
);
width = 727;
}
);
note = F.swsh;
},
{
glyphname = G.swsh;
layers = (
{
layerId = "F05DF1C3-6E5D-4CAE-86D8-BB1A1E5E50BF";
paths = (
{
closed = 1;
nodes = (
"545 356 LINE",
"604 392 OFFCURVE",
"644 461 OFFCURVE",
"644 525 CURVE SMOOTH",
"644 596 OFFCURVE",
"594 659 OFFCURVE",
"461 659 CURVE SMOOTH",
"265 659 OFFCURVE",
"97 487 OFFCURVE",
"97 176 CURVE SMOOTH",
"97 -19 OFFCURVE",
"181 -122 OFFCURVE",
"331 -122 CURVE SMOOTH",
"400 -122 OFFCURVE",
"450 -104 OFFCURVE",
"487 -83 CURVE",
"486 -90 LINE",
"496 -214 LINE",
"533 -214 LINE",
"598 253 LINE",
"402 253 LINE",
"395 210 LINE",
"528 210 LINE",
"495 -27 LINE",
"464 -49 OFFCURVE",
"415 -72 OFFCURVE",
"350 -72 CURVE SMOOTH",
"241 -72 OFFCURVE",
"177 2 OFFCURVE",
"177 171 CURVE SMOOTH",
"177 478 OFFCURVE",
"314 609 OFFCURVE",
"459 609 CURVE SMOOTH",
"556 609 OFFCURVE",
"592 564 OFFCURVE",
"592 513 CURVE SMOOTH",
"592 462 OFFCURVE",
"557 404 OFFCURVE",
"512 377 CURVE"
);
}
);
width = 640;
},
{
layerId = "640DAD6F-C00E-41F4-8D6C-450924326D1A";
paths = (
{
closed = 1;
nodes = (
"558 323 LINE",
"624 363 OFFCURVE",
"667 439 OFFCURVE",
"667 508 CURVE SMOOTH",
"667 588 OFFCURVE",
"610 660 OFFCURVE",
"465 660 CURVE SMOOTH",
"249 660 OFFCURVE",
"86 489 OFFCURVE",
"86 184 CURVE SMOOTH",
"86 -11 OFFCURVE",
"174 -116 OFFCURVE",
"339 -116 CURVE SMOOTH",
"385 -116 OFFCURVE",
"422 -109 OFFCURVE",
"454 -97 CURVE",
"451 -121 LINE",
"493 -226 LINE",
"553 -226 LINE",
"620 251 LINE",
"402 251 LINE",
"392 183 LINE",
"494 183 LINE",
"465 -20 LINE",
"440 -32 OFFCURVE",
"410 -41 OFFCURVE",
"376 -41 CURVE SMOOTH",
"287 -41 OFFCURVE",
"235 10 OFFCURVE",
"235 165 CURVE SMOOTH",
"235 496 OFFCURVE",
"347 585 OFFCURVE",
"468 585 CURVE SMOOTH",
"553 585 OFFCURVE",
"586 541 OFFCURVE",
"586 491 CURVE SMOOTH",
"586 440 OFFCURVE",
"553 383 OFFCURVE",
"508 356 CURVE"
);
}
);
width = 645;
}
);
note = G.swsh;
},
{
glyphname = H.swsh;
layers = (
{
layerId = "F05DF1C3-6E5D-4CAE-86D8-BB1A1E5E50BF";
paths = (
{
closed = 1;
nodes = (
"480 650 LINE",
"412 650 LINE SMOOTH",
"233 650 OFFCURVE",
"98 552 OFFCURVE",
"98 395 CURVE SMOOTH",
"98 368 OFFCURVE",
"102 338 OFFCURVE",
"111 308 CURVE",
"162 322 LINE",
"155 349 OFFCURVE",
"151 374 OFFCURVE",
"151 398 CURVE SMOOTH",
"151 528 OFFCURVE",
"257 607 OFFCURVE",
"405 607 CURVE",
"399 596 OFFCURVE",
"395 583 OFFCURVE",
"393 569 CURVE SMOOTH",
"340 191 LINE SMOOTH",
"322 62 OFFCURVE",
"272 38 OFFCURVE",
"226 38 CURVE SMOOTH",
"193 38 OFFCURVE",
"174 48 OFFCURVE",
"174 48 CURVE",
"155 5 LINE",
"155 5 OFFCURVE",
"181 -10 OFFCURVE",
"229 -10 CURVE SMOOTH",
"320 -10 OFFCURVE",
"393 30 OFFCURVE",
"416 191 CURVE SMOOTH",
"433 312 LINE",
"730 312 LINE",
"687 0 LINE",
"762 0 LINE",
"841 562 LINE SMOOTH",
"850 628 OFFCURVE",
"856 672 OFFCURVE",
"867 710 CURVE",
"810 715 LINE",
"789 696 OFFCURVE",
"777 641 OFFCURVE",
"765 562 CURVE SMOOTH",
"737 358 LINE",
"439 358 LINE"
);
}
);
width = 857;
},
{
layerId = "640DAD6F-C00E-41F4-8D6C-450924326D1A";
paths = (
{
closed = 1;
nodes = (
"546 650 LINE",
"426 650 LINE SMOOTH",
"228 650 OFFCURVE",
"94 518 OFFCURVE",
"94 362 CURVE SMOOTH",
"94 338 OFFCURVE",
"98 314 OFFCURVE",
"104 289 CURVE",
"181 309 LINE",
"176 328 OFFCURVE",
"174 348 OFFCURVE",
"174 367 CURVE SMOOTH",
"174 483 OFFCURVE",
"263 586 OFFCURVE",
"416 586 CURVE SMOOTH",
"417 586 LINE",
"402 563 OFFCURVE",
"391 535 OFFCURVE",
"387 500 CURVE SMOOTH",
"346 214 LINE SMOOTH",
"328 89 OFFCURVE",
"297 60 OFFCURVE",
"250 60 CURVE SMOOTH",
"218 60 OFFCURVE",
"200 70 OFFCURVE",
"200 70 CURVE",
"172 5 LINE",
"172 5 OFFCURVE",
"203 -11 OFFCURVE",
"258 -11 CURVE SMOOTH",
"390 -11 OFFCURVE",
"461 43 OFFCURVE",
"485 214 CURVE SMOOTH",
"496 296 LINE",
"720 296 LINE",
"679 0 LINE",
"817 0 LINE",
"893 541 LINE SMOOTH",
"905 624 OFFCURVE",
"909 656 OFFCURVE",
"929 709 CURVE",
"824 723 LINE",
"789 702 OFFCURVE",
"769 640 OFFCURVE",
"755 542 CURVE SMOOTH",
"730 366 LINE",
"506 366 LINE"
);
}
);
width = 894;
}
);
note = H.swsh;
},
{
glyphname = I.swsh;
layers = (
{
layerId = "F05DF1C3-6E5D-4CAE-86D8-BB1A1E5E50BF";
paths = (
{
closed = 1;
nodes = (
"480 650 LINE",
"412 650 LINE SMOOTH",
"233 650 OFFCURVE",
"98 552 OFFCURVE",
"98 395 CURVE SMOOTH",
"98 368 OFFCURVE",
"102 338 OFFCURVE",
"111 308 CURVE",
"162 322 LINE",
"155 349 OFFCURVE",
"151 374 OFFCURVE",
"151 398 CURVE SMOOTH",
"151 528 OFFCURVE",
"257 607 OFFCURVE",
"405 607 CURVE",
"399 596 OFFCURVE",
"395 583 OFFCURVE",
"393 569 CURVE SMOOTH",
"340 191 LINE SMOOTH",
"322 62 OFFCURVE",
"272 38 OFFCURVE",
"226 38 CURVE SMOOTH",
"193 38 OFFCURVE",
"174 48 OFFCURVE",
"174 48 CURVE",
"155 5 LINE",
"155 5 OFFCURVE",
"181 -10 OFFCURVE",
"229 -10 CURVE SMOOTH",
"320 -10 OFFCURVE",
"393 30 OFFCURVE",
"416 191 CURVE SMOOTH"
);
}
);
width = 485;
},
{
layerId = "640DAD6F-C00E-41F4-8D6C-450924326D1A";
paths = (
{
closed = 1;
nodes = (
"546 650 LINE",
"426 650 LINE SMOOTH",
"228 650 OFFCURVE",
"94 518 OFFCURVE",
"94 362 CURVE SMOOTH",
"94 338 OFFCURVE",
"98 314 OFFCURVE",
"104 289 CURVE",
"181 309 LINE",
"176 328 OFFCURVE",
"174 348 OFFCURVE",
"174 367 CURVE SMOOTH",
"174 483 OFFCURVE",
"263 586 OFFCURVE",
"416 586 CURVE SMOOTH",
"417 586 LINE",
"402 563 OFFCURVE",
"391 535 OFFCURVE",
"387 500 CURVE SMOOTH",
"346 214 LINE SMOOTH",
"328 89 OFFCURVE",
"297 60 OFFCURVE",
"250 60 CURVE SMOOTH",
"218 60 OFFCURVE",
"200 70 OFFCURVE",
"200 70 CURVE",
"172 5 LINE",
"172 5 OFFCURVE",
"203 -11 OFFCURVE",
"258 -11 CURVE SMOOTH",
"390 -11 OFFCURVE",
"461 43 OFFCURVE",
"485 214 CURVE SMOOTH"
);
}
);
width = 532;
}
);
note = I.swsh;
},
{
glyphname = J.swsh;
layers = (
{
layerId = "F05DF1C3-6E5D-4CAE-86D8-BB1A1E5E50BF";
paths = (
{
closed = 1;
nodes = (
"398 91 LINE SMOOTH",
"380 -33 OFFCURVE",
"307 -111 OFFCURVE",
"218 -111 CURVE SMOOTH",
"130 -111 OFFCURVE",
"92 -61 OFFCURVE",
"92 -4 CURVE SMOOTH",
"92 38 OFFCURVE",
"113 84 OFFCURVE",
"150 118 CURVE",
"114 135 LINE",
"67 93 OFFCURVE",
"41 36 OFFCURVE",
"41 -17 CURVE SMOOTH",
"41 -92 OFFCURVE",
"94 -159 OFFCURVE",
"216 -159 CURVE SMOOTH",
"340 -159 OFFCURVE",
"452 -66 OFFCURVE",
"476 101 CURVE SMOOTH",
"553 650 LINE",
"485 650 LINE SMOOTH",
"305 650 OFFCURVE",
"171 551 OFFCURVE",
"171 395 CURVE SMOOTH",
"171 368 OFFCURVE",
"175 339 OFFCURVE",
"184 308 CURVE",
"234 322 LINE",
"227 349 OFFCURVE",
"223 373 OFFCURVE",
"223 397 CURVE SMOOTH",
"223 527 OFFCURVE",
"330 607 OFFCURVE",
"478 607 CURVE",
"472 596 OFFCURVE",
"468 583 OFFCURVE",
"466 569 CURVE SMOOTH"
);
}
);
width = 548;
},
{
layerId = "640DAD6F-C00E-41F4-8D6C-450924326D1A";
paths = (
{
closed = 1;
nodes = (
"578 650 LINE",
"458 650 LINE SMOOTH",
"260 650 OFFCURVE",
"126 518 OFFCURVE",
"126 362 CURVE SMOOTH",
"126 338 OFFCURVE",
"130 314 OFFCURVE",
"136 289 CURVE",
"213 309 LINE",
"208 328 OFFCURVE",
"206 347 OFFCURVE",
"206 366 CURVE SMOOTH",
"206 482 OFFCURVE",
"296 586 OFFCURVE",
"449 586 CURVE",
"434 563 OFFCURVE",
"424 535 OFFCURVE",
"419 500 CURVE SMOOTH",
"364 114 LINE SMOOTH",
"348 0 OFFCURVE",
"290 -59 OFFCURVE",
"225 -59 CURVE SMOOTH",
"152 -59 OFFCURVE",
"124 -20 OFFCURVE",
"124 25 CURVE SMOOTH",
"124 65 OFFCURVE",
"145 110 OFFCURVE",
"176 139 CURVE",
"119 163 LINE",
"74 122 OFFCURVE",
"46 63 OFFCURVE",
"46 8 CURVE SMOOTH",
"46 -66 OFFCURVE",
"97 -132 OFFCURVE",
"227 -132 CURVE SMOOTH",
"350 -132 OFFCURVE",
"480 -49 OFFCURVE",
"507 142 CURVE SMOOTH"
);
}
);
width = 555;
}
);
note = J.swsh;
},
{
glyphname = K.swsh;
layers = (
{
layerId = "F05DF1C3-6E5D-4CAE-86D8-BB1A1E5E50BF";
paths = (
{
closed = 1;
nodes = (
"480 650 LINE",
"412 650 LINE SMOOTH",
"233 650 OFFCURVE",
"98 552 OFFCURVE",
"98 395 CURVE SMOOTH",
"98 368 OFFCURVE",
"102 338 OFFCURVE",
"111 308 CURVE",
"162 322 LINE",
"155 349 OFFCURVE",
"151 374 OFFCURVE",
"151 398 CURVE SMOOTH",
"151 528 OFFCURVE",
"257 607 OFFCURVE",
"405 607 CURVE",
"399 596 OFFCURVE",
"395 583 OFFCURVE",
"393 569 CURVE SMOOTH",
"314 0 LINE",
"389 0 LINE",
"422 240 LINE",
"506 302 LINE",
"670 31 LINE",
"714 -51 OFFCURVE",
"779 -87 OFFCURVE",
"852 -87 CURVE SMOOTH",
"902 -87 OFFCURVE",
"929 -65 OFFCURVE",
"929 -65 CURVE",
"924 -31 LINE",
"924 -31 OFFCURVE",
"905 -45 OFFCURVE",
"879 -45 CURVE SMOOTH",
"832 -45 OFFCURVE",
"782 -10 OFFCURVE",
"742 63 CURVE",
"566 355 LINE",
"840 650 LINE",
"779 650 LINE",
"520 366 LINE",
"430 296 LINE"
);
}
);
width = 844;
},
{
layerId = "640DAD6F-C00E-41F4-8D6C-450924326D1A";
paths = (
{
closed = 1;
nodes = (
"546 650 LINE",
"426 650 LINE SMOOTH",
"228 650 OFFCURVE",
"94 518 OFFCURVE",
"94 362 CURVE SMOOTH",
"94 338 OFFCURVE",
"98 314 OFFCURVE",
"104 289 CURVE",
"181 309 LINE",
"176 328 OFFCURVE",
"174 348 OFFCURVE",
"174 367 CURVE SMOOTH",
"174 483 OFFCURVE",
"263 586 OFFCURVE",
"416 586 CURVE SMOOTH",
"417 586 LINE",
"402 563 OFFCURVE",
"392 535 OFFCURVE",
"387 500 CURVE SMOOTH",
"317 0 LINE",
"455 0 LINE",
"492 263 LINE",
"537 292 LINE",
"669 35 LINE SMOOTH",
"720 -72 OFFCURVE",
"799 -111 OFFCURVE",
"893 -111 CURVE SMOOTH",
"961 -111 OFFCURVE",
"997 -81 OFFCURVE",
"997 -81 CURVE",
"991 -32 LINE",
"991 -32 OFFCURVE",
"970 -45 OFFCURVE",
"942 -45 CURVE SMOOTH",
"894 -45 OFFCURVE",
"846 -7 OFFCURVE",
"800 88 CURVE SMOOTH",
"646 383 LINE",
"892 650 LINE",
"796 650 LINE",
"569 393 LINE",
"504 349 LINE"
);
}
);
width = 905;
}
);
note = K.swsh;
},
{
glyphname = L.swsh;
layers = (
{
layerId = "F05DF1C3-6E5D-4CAE-86D8-BB1A1E5E50BF";
paths = (
{
closed = 1;
nodes = (
"708 99 LINE",
"698 25 OFFCURVE",
"670 -5 OFFCURVE",
"627 -5 CURVE SMOOTH",
"571 -5 OFFCURVE",
"435 31 OFFCURVE",
"358 43 CURVE",
"385 74 OFFCURVE",
"406 121 OFFCURVE",
"416 191 CURVE SMOOTH",
"480 650 LINE",
"412 650 LINE SMOOTH",
"233 650 OFFCURVE",
"98 552 OFFCURVE",
"98 395 CURVE SMOOTH",
"98 368 OFFCURVE",
"102 338 OFFCURVE",
"111 308 CURVE",
"162 322 LINE",
"155 349 OFFCURVE",
"151 374 OFFCURVE",
"151 398 CURVE SMOOTH",
"151 528 OFFCURVE",
"257 607 OFFCURVE",
"405 607 CURVE",
"399 596 OFFCURVE",
"395 583 OFFCURVE",
"393 569 CURVE SMOOTH",
"340 191 LINE SMOOTH",
"324 75 OFFCURVE",
"282 44 OFFCURVE",
"240 39 CURVE",
"235 38 OFFCURVE",
"230 38 OFFCURVE",
"226 38 CURVE",
"222 -10 LINE",
"243 -10 OFFCURVE",
"264 -7 OFFCURVE",
"284 -2 CURVE",
"296 0 OFFCURVE",
"308 0 OFFCURVE",
"316 0 CURVE SMOOTH",
"368 0 OFFCURVE",
"544 -53 OFFCURVE",
"627 -53 CURVE SMOOTH",
"696 -53 OFFCURVE",
"738 -4 OFFCURVE",
"750 93 CURVE"
);
}
);
width = 690;
},
{
layerId = "640DAD6F-C00E-41F4-8D6C-450924326D1A";
paths = (
{
closed = 1;
nodes = (
"726 140 LINE",
"717 69 OFFCURVE",
"685 33 OFFCURVE",
"637 33 CURVE SMOOTH",
"590 33 OFFCURVE",
"500 50 OFFCURVE",
"429 61 CURVE",
"457 96 OFFCURVE",
"475 146 OFFCURVE",
"485 214 CURVE SMOOTH",
"546 650 LINE",
"426 650 LINE SMOOTH",
"228 650 OFFCURVE",
"94 518 OFFCURVE",
"94 362 CURVE SMOOTH",
"94 338 OFFCURVE",
"98 314 OFFCURVE",
"104 289 CURVE",
"181 309 LINE",
"176 328 OFFCURVE",
"174 348 OFFCURVE",
"174 367 CURVE SMOOTH",
"174 483 OFFCURVE",
"263 586 OFFCURVE",
"416 586 CURVE SMOOTH",
"417 586 LINE",
"402 563 OFFCURVE",
"391 535 OFFCURVE",
"387 500 CURVE SMOOTH",
"346 214 LINE SMOOTH",
"331 108 OFFCURVE",
"306 71 OFFCURVE",
"271 62 CURVE",
"250 60 LINE",
"249 48 OFFCURVE",
"249 36 OFFCURVE",
"249 24 CURVE SMOOTH",
"248 -11 LINE",
"281 -11 OFFCURVE",
"311 -7 OFFCURVE",
"337 0 CURVE",
"342 0 LINE SMOOTH",
"394 0 OFFCURVE",
"543 -43 OFFCURVE",
"636 -43 CURVE SMOOTH",
"726 -43 OFFCURVE",
"778 24 OFFCURVE",
"790 132 CURVE"
);
}
);
width = 719;
}
);
note = L.swsh;
},
{
glyphname = M.swsh;
layers = (
{
layerId = "F05DF1C3-6E5D-4CAE-86D8-BB1A1E5E50BF";
paths = (
{
closed = 1;
nodes = (
"1122 650 LINE",
"1034 650 LINE",
"722 93 LINE",
"578 638 LINE",
"577 660 LINE",
"560 653 OFFCURVE",
"534 650 OFFCURVE",
"490 650 CURVE SMOOTH",
"241 650 OFFCURVE",
"98 551 OFFCURVE",
"98 393 CURVE SMOOTH",
"98 366 OFFCURVE",
"103 338 OFFCURVE",
"111 308 CURVE",
"161 322 LINE",
"154 348 OFFCURVE",
"150 372 OFFCURVE",
"150 395 CURVE SMOOTH",
"150 523 OFFCURVE",
"262 601 OFFCURVE",
"474 606 CURVE",
"407 149 LINE SMOOTH",
"388 20 OFFCURVE",
"345 -42 OFFCURVE",
"303 -58 CURVE",
"305 -105 LINE",
"368 -86 OFFCURVE",
"439 -17 OFFCURVE",
"463 149 CURVE SMOOTH",
"521 557 LINE",
"522 557 LINE",
"665 0 LINE",
"726 0 LINE",
"1034 557 LINE",
"1035 557 LINE",
"960 0 LINE",
"1034 0 LINE"
);
}
);
width = 1128;
},
{
layerId = "640DAD6F-C00E-41F4-8D6C-450924326D1A";
paths = (
{
closed = 1;
nodes = (
"1163 650 LINE",
"1008 650 LINE",
"753 171 LINE",
"748 171 LINE",
"648 628 LINE",
"646 665 LINE",
"623 657 OFFCURVE",
"590 652 OFFCURVE",
"548 650 CURVE",
"497 650 LINE",
"497 649 LINE",
"242 649 OFFCURVE",
"94 515 OFFCURVE",
"94 358 CURVE SMOOTH",
"94 335 OFFCURVE",
"97 312 OFFCURVE",
"103 289 CURVE",
"179 309 LINE",
"175 326 OFFCURVE",
"172 343 OFFCURVE",
"172 360 CURVE SMOOTH",
"172 471 OFFCURVE",
"269 569 OFFCURVE",
"463 584 CURVE",
"392 130 LINE SMOOTH",
"372 5 OFFCURVE",
"336 -38 OFFCURVE",
"299 -50 CURVE",
"302 -122 LINE",
"370 -106 OFFCURVE",
"453 -53 OFFCURVE",
"480 130 CURVE SMOOTH",
"533 492 LINE",
"538 492 LINE",
"641 0 LINE",
"744 0 LINE",
"1003 492 LINE",
"1005 492 LINE",
"944 0 LINE",
"1079 0 LINE"
);
}
);
width = 1156;
}
);
note = M.swsh;
},
{
glyphname = N.swsh;
layers = (
{
layerId = "F05DF1C3-6E5D-4CAE-86D8-BB1A1E5E50BF";
paths = (
{
closed = 1;
nodes = (
"941 650 LINE",
"886 650 LINE",
"814 138 LINE",
"814 114 LINE",
"568 626 LINE",
"563 660 LINE",
"548 654 OFFCURVE",
"528 651 OFFCURVE",
"501 650 CURVE",
"490 650 LINE SMOOTH",
"241 649 OFFCURVE",
"98 550 OFFCURVE",
"98 393 CURVE SMOOTH",
"98 366 OFFCURVE",
"103 338 OFFCURVE",
"111 308 CURVE",
"161 322 LINE",
"154 348 OFFCURVE",
"150 372 OFFCURVE",
"150 395 CURVE SMOOTH",
"150 523 OFFCURVE",
"262 601 OFFCURVE",
"474 606 CURVE",
"406 149 LINE SMOOTH",
"387 20 OFFCURVE",
"345 -42 OFFCURVE",
"303 -58 CURVE",
"305 -105 LINE",
"368 -86 OFFCURVE",
"439 -17 OFFCURVE",
"463 149 CURVE SMOOTH",
"520 545 LINE",
"784 0 LINE",
"850 0 LINE"
);
}
);
width = 944;
},
{
layerId = "640DAD6F-C00E-41F4-8D6C-450924326D1A";
paths = (
{
closed = 1;
nodes = (
"965 650 LINE",
"879 650 LINE",
"824 254 LINE",
"824 209 LINE",
"822 209 LINE",
"627 616 LINE",
"620 665 LINE",
"593 656 OFFCURVE",
"557 651 OFFCURVE",
"515 650 CURVE SMOOTH",
"497 650 LINE SMOOTH",
"242 647 OFFCURVE",
"94 515 OFFCURVE",
"94 358 CURVE SMOOTH",
"94 335 OFFCURVE",
"97 312 OFFCURVE",
"103 289 CURVE",
"179 309 LINE",
"175 326 OFFCURVE",
"172 343 OFFCURVE",
"172 360 CURVE SMOOTH",
"172 471 OFFCURVE",
"269 569 OFFCURVE",
"463 584 CURVE",
"391 130 LINE SMOOTH",
"373 5 OFFCURVE",
"336 -38 OFFCURVE",
"299 -50 CURVE",
"302 -122 LINE",
"370 -106 OFFCURVE",
"453 -53 OFFCURVE",
"480 130 CURVE SMOOTH",
"531 475 LINE",
"765 0 LINE",
"873 0 LINE"
);
}
);
width = 950;
}
);
note = N.swsh;
},
{
glyphname = O.swsh;
layers = (
{
layerId = "F05DF1C3-6E5D-4CAE-86D8-BB1A1E5E50BF";
paths = (
{
closed = 1;
nodes = (
"96 96 OFFCURVE",
"183 -10 OFFCURVE",
"336 -10 CURVE SMOOTH",
"543 -10 OFFCURVE",
"673 159 OFFCURVE",
"673 379 CURVE SMOOTH",
"673 544 OFFCURVE",
"585 659 OFFCURVE",
"439 659 CURVE SMOOTH",
"286 659 OFFCURVE",
"204 562 OFFCURVE",
"204 463 CURVE SMOOTH",
"204 449 OFFCURVE",
"205 437 OFFCURVE",
"208 426 CURVE",
"180 410 OFFCURVE",
"96 347 OFFCURVE",
"96 222 CURVE SMOOTH"
);
},
{
closed = 1;
nodes = (
"331 348 LINE",
"298 365 OFFCURVE",
"254 398 OFFCURVE",
"254 464 CURVE SMOOTH",
"254 532 OFFCURVE",
"313 609 OFFCURVE",
"428 609 CURVE SMOOTH",
"530 609 OFFCURVE",
"593 526 OFFCURVE",
"593 388 CURVE SMOOTH",
"593 186 OFFCURVE",
"494 40 OFFCURVE",
"345 40 CURVE SMOOTH",
"240 40 OFFCURVE",
"172 117 OFFCURVE",
"172 224 CURVE SMOOTH",
"172 302 OFFCURVE",
"208 348 OFFCURVE",
"234 373 CURVE",
"251 352 OFFCURVE",
"272 338 OFFCURVE",
"291 328 CURVE"
);
}
);
width = 674;
},
{
layerId = "640DAD6F-C00E-41F4-8D6C-450924326D1A";
paths = (
{
closed = 1;
nodes = (
"79 99 OFFCURVE",
"161 -11 OFFCURVE",
"333 -11 CURVE SMOOTH",
"564 -11 OFFCURVE",
"695 168 OFFCURVE",
"695 379 CURVE SMOOTH",
"695 545 OFFCURVE",
"601 660 OFFCURVE",
"440 660 CURVE SMOOTH",
"285 660 OFFCURVE",
"187 561 OFFCURVE",
"187 450 CURVE SMOOTH",
"187 443 OFFCURVE",
"187 436 OFFCURVE",
"188 429 CURVE",
"153 410 OFFCURVE",
"79 345 OFFCURVE",
"79 226 CURVE SMOOTH"
);
},
{
closed = 1;
nodes = (
"335 352 LINE",
"302 369 OFFCURVE",
"266 395 OFFCURVE",
"266 450 CURVE SMOOTH",
"266 518 OFFCURVE",
"327 585 OFFCURVE",
"421 585 CURVE SMOOTH",
"499 585 OFFCURVE",
"547 531 OFFCURVE",
"547 407 CURVE SMOOTH",
"547 211 OFFCURVE",
"478 64 OFFCURVE",
"345 64 CURVE SMOOTH",
"267 64 OFFCURVE",
"215 124 OFFCURVE",
"215 223 CURVE SMOOTH",
"215 278 OFFCURVE",
"230 313 OFFCURVE",
"246 337 CURVE",
"256 330 OFFCURVE",
"266 324 OFFCURVE",
"276 319 CURVE"
);
}
);
width = 683;
}
);
note = O.swsh;
},
{
glyphname = P.swsh;
layers = (
{
layerId = "F05DF1C3-6E5D-4CAE-86D8-BB1A1E5E50BF";
paths = (
{
closed = 1;
nodes = (
"410 715 LINE",
"398 704 OFFCURVE",
"389 682 OFFCURVE",
"381 650 CURVE",
"378 650 LINE SMOOTH",
"227 650 OFFCURVE",
"106 560 OFFCURVE",
"106 452 CURVE SMOOTH",
"106 422 OFFCURVE",
"115 390 OFFCURVE",
"136 359 CURVE",
"180 379 LINE",
"164 404 OFFCURVE",
"157 429 OFFCURVE",
"157 453 CURVE SMOOTH",
"157 538 OFFCURVE",
"248 607 OFFCURVE",
"371 607 CURVE SMOOTH",
"372 607 LINE",
"369 593 OFFCURVE",
"367 578 OFFCURVE",
"365 562 CURVE SMOOTH",
"330 316 OFFCURVE",
"304 127 OFFCURVE",
"281 0 CURVE",
"355 0 LINE",
"365 55 OFFCURVE",
"378 137 OFFCURVE",
"392 228 CURVE",
"476 228 LINE SMOOTH",
"588 228 OFFCURVE",
"719 292 OFFCURVE",
"719 480 CURVE SMOOTH",
"719 593 OFFCURVE",
"650 650 OFFCURVE",
"534 650 CURVE SMOOTH",
"453 650 LINE",
"457 672 OFFCURVE",
"462 692 OFFCURVE",
"467 710 CURVE"
);
},
{
closed = 1;
nodes = (
"519 606 LINE SMOOTH",
"594 606 OFFCURVE",
"639 567 OFFCURVE",
"639 482 CURVE SMOOTH",
"639 316 OFFCURVE",
"557 270 OFFCURVE",
"471 270 CURVE SMOOTH",
"398 270 LINE",
"413 365 OFFCURVE",
"428 469 OFFCURVE",
"441 562 CURVE SMOOTH",
"447 606 LINE"
);
}
);
width = 688;
},
{
layerId = "640DAD6F-C00E-41F4-8D6C-450924326D1A";
paths = (
{
closed = 1;
nodes = (
"443 723 LINE",
"423 711 OFFCURVE",
"409 686 OFFCURVE",
"397 650 CURVE",
"389 650 LINE SMOOTH",
"237 650 OFFCURVE",
"104 560 OFFCURVE",
"104 443 CURVE SMOOTH",
"104 410 OFFCURVE",
"115 374 OFFCURVE",
"139 338 CURVE",
"206 369 LINE",
"191 394 OFFCURVE",
"184 418 OFFCURVE",
"184 441 CURVE SMOOTH",
"184 522 OFFCURVE",
"269 586 OFFCURVE",
"380 586 CURVE SMOOTH",
"381 586 LINE",
"378 572 OFFCURVE",
"376 557 OFFCURVE",
"374 542 CURVE SMOOTH",
"327 211 OFFCURVE",
"312 98 OFFCURVE",
"286 0 CURVE",
"421 0 LINE",
"432 43 OFFCURVE",
"446 112 OFFCURVE",
"461 203 CURVE",
"529 203 LINE SMOOTH",
"644 203 OFFCURVE",
"795 274 OFFCURVE",
"795 467 CURVE SMOOTH",
"795 590 OFFCURVE",
"717 650 OFFCURVE",
"588 650 CURVE SMOOTH",
"529 650 LINE",
"534 669 OFFCURVE",
"539 687 OFFCURVE",
"547 709 CURVE"
);
},
{
closed = 1;
nodes = (
"567 585 LINE SMOOTH",
"617 585 OFFCURVE",
"648 558 OFFCURVE",
"648 485 CURVE SMOOTH",
"648 305 OFFCURVE",
"590 267 OFFCURVE",
"521 267 CURVE SMOOTH",
"471 267 LINE",
"484 346 OFFCURVE",
"497 437 OFFCURVE",
"512 541 CURVE SMOOTH",
"518 585 LINE"
);
}
);
width = 754;
}
);
note = P.swsh;
},
{
glyphname = Q.swsh;
layers = (
{
layerId = "F05DF1C3-6E5D-4CAE-86D8-BB1A1E5E50BF";
paths = (
{
closed = 1;
nodes = (
"566 -57 LINE",
"558 -124 OFFCURVE",
"517 -142 OFFCURVE",
"487 -142 CURVE SMOOTH",
"424 -142 OFFCURVE",
"393 -69 OFFCURVE",
"351 -5 CURVE",
"523 22 OFFCURVE",
"630 180 OFFCURVE",
"630 379 CURVE SMOOTH",
"630 544 OFFCURVE",
"541 659 OFFCURVE",
"396 659 CURVE SMOOTH",
"246 659 OFFCURVE",
"119 545 OFFCURVE",
"119 383 CURVE SMOOTH",
"119 268 OFFCURVE",
"186 229 OFFCURVE",
"224 213 CURVE",
"261 237 LINE",
"227 252 OFFCURVE",
"170 288 OFFCURVE",
"170 385 CURVE SMOOTH",
"170 513 OFFCURVE",
"270 609 OFFCURVE",
"386 609 CURVE SMOOTH",
"487 609 OFFCURVE",
"550 526 OFFCURVE",
"550 388 CURVE SMOOTH",
"550 194 OFFCURVE",
"459 51 OFFCURVE",
"315 41 CURVE",
"288 70 OFFCURVE",
"254 91 OFFCURVE",
"208 91 CURVE SMOOTH",
"175 91 OFFCURVE",
"150 82 OFFCURVE",
"147 81 CURVE",
"135 34 LINE",
"139 33 OFFCURVE",
"205 -5 OFFCURVE",
"281 -9 CURVE",
"331 -78 OFFCURVE",
"367 -188 OFFCURVE",
"484 -188 CURVE SMOOTH",
"539 -188 OFFCURVE",
"598 -161 OFFCURVE",
"609 -63 CURVE"
);
}
);
width = 631;
},
{
layerId = "640DAD6F-C00E-41F4-8D6C-450924326D1A";
paths = (
{
closed = 1;
nodes = (
"559 -56 LINE",
"552 -116 OFFCURVE",
"512 -132 OFFCURVE",
"486 -132 CURVE SMOOTH",
"431 -132 OFFCURVE",
"401 -68 OFFCURVE",
"361 -5 CURVE",
"546 26 OFFCURVE",
"652 190 OFFCURVE",
"652 379 CURVE SMOOTH",
"652 545 OFFCURVE",
"557 660 OFFCURVE",
"397 660 CURVE SMOOTH",
"247 660 OFFCURVE",
"99 550 OFFCURVE",
"99 369 CURVE SMOOTH",
"99 257 OFFCURVE",
"163 212 OFFCURVE",
"205 196 CURVE",
"260 232 LINE",
"227 248 OFFCURVE",
"178 285 OFFCURVE",
"178 371 CURVE SMOOTH",
"178 501 OFFCURVE",
"283 585 OFFCURVE",
"378 585 CURVE SMOOTH",
"456 585 OFFCURVE",
"504 531 OFFCURVE",
"504 407 CURVE SMOOTH",
"504 215 OFFCURVE",
"439 71 OFFCURVE",
"306 64 CURVE",
"277 91 OFFCURVE",
"242 110 OFFCURVE",
"195 110 CURVE SMOOTH",
"168 110 OFFCURVE",
"141 101 OFFCURVE",
"131 97 CURVE",
"113 28 LINE",
"120 26 OFFCURVE",
"183 2 OFFCURVE",
"248 -7 CURVE",
"297 -78 OFFCURVE",
"336 -203 OFFCURVE",
"480 -203 CURVE SMOOTH",
"546 -203 OFFCURVE",
"612 -171 OFFCURVE",
"624 -64 CURVE"
);
}
);
width = 640;
}
);
note = Q.swsh;
},
{
glyphname = R.swsh;
layers = (
{
layerId = "F05DF1C3-6E5D-4CAE-86D8-BB1A1E5E50BF";
paths = (
{
closed = 1;
nodes = (
"410 715 LINE",
"398 704 OFFCURVE",
"389 682 OFFCURVE",
"381 650 CURVE",
"378 650 LINE SMOOTH",
"227 650 OFFCURVE",
"106 560 OFFCURVE",
"106 452 CURVE SMOOTH",
"106 422 OFFCURVE",
"115 390 OFFCURVE",
"136 359 CURVE",
"180 379 LINE",
"164 404 OFFCURVE",
"157 429 OFFCURVE",
"157 453 CURVE SMOOTH",
"157 538 OFFCURVE",
"248 607 OFFCURVE",
"371 607 CURVE SMOOTH",
"372 607 LINE",
"369 593 OFFCURVE",
"367 578 OFFCURVE",
"365 562 CURVE SMOOTH",
"330 316 OFFCURVE",
"304 127 OFFCURVE",
"281 0 CURVE",
"355 0 LINE",
"366 63 OFFCURVE",
"382 161 OFFCURVE",
"398 269 CURVE",
"489 269 LINE",
"643 31 LINE SMOOTH",
"691 -47 OFFCURVE",
"752 -87 OFFCURVE",
"825 -87 CURVE SMOOTH",
"876 -87 OFFCURVE",
"902 -65 OFFCURVE",
"902 -65 CURVE",
"897 -31 LINE",
"897 -31 OFFCURVE",
"878 -45 OFFCURVE",
"852 -45 CURVE SMOOTH",
"807 -45 OFFCURVE",
"756 -5 OFFCURVE",
"714 62 CURVE SMOOTH",
"570 285 LINE",
"651 317 OFFCURVE",
"723 396 OFFCURVE",
"723 501 CURVE SMOOTH",
"723 593 OFFCURVE",
"654 650 OFFCURVE",
"534 650 CURVE SMOOTH",
"453 650 LINE",
"457 672 OFFCURVE",
"462 692 OFFCURVE",
"467 710 CURVE"
);
},
{
closed = 1;
nodes = (
"519 606 LINE SMOOTH",
"598 606 OFFCURVE",
"643 568 OFFCURVE",
"643 500 CURVE SMOOTH",
"643 384 OFFCURVE",
"574 314 OFFCURVE",
"487 314 CURVE SMOOTH",
"405 314 LINE",
"418 397 OFFCURVE",
"430 483 OFFCURVE",
"441 562 CURVE SMOOTH",
"447 606 LINE"
);
}
);
width = 776;
},
{
layerId = "640DAD6F-C00E-41F4-8D6C-450924326D1A";
paths = (
{
closed = 1;
nodes = (
"443 723 LINE",
"423 711 OFFCURVE",
"409 686 OFFCURVE",
"397 650 CURVE",
"389 650 LINE SMOOTH",
"237 650 OFFCURVE",
"104 560 OFFCURVE",
"104 443 CURVE SMOOTH",
"104 410 OFFCURVE",
"115 374 OFFCURVE",
"139 338 CURVE",
"206 369 LINE",
"191 394 OFFCURVE",
"184 418 OFFCURVE",
"184 441 CURVE SMOOTH",
"184 522 OFFCURVE",
"269 586 OFFCURVE",
"380 586 CURVE SMOOTH",
"381 586 LINE",
"378 572 OFFCURVE",
"376 557 OFFCURVE",
"374 542 CURVE SMOOTH",
"327 211 OFFCURVE",
"312 98 OFFCURVE",
"286 0 CURVE",
"421 0 LINE",
"435 52 OFFCURVE",
"452 142 OFFCURVE",
"471 262 CURVE",
"515 262 LINE",
"651 35 LINE SMOOTH",
"709 -62 OFFCURVE",
"781 -111 OFFCURVE",
"875 -111 CURVE SMOOTH",
"943 -111 OFFCURVE",
"979 -81 OFFCURVE",
"979 -81 CURVE",
"973 -32 LINE",
"973 -32 OFFCURVE",
"952 -45 OFFCURVE",
"924 -45 CURVE SMOOTH",
"882 -45 OFFCURVE",
"829 4 OFFCURVE",
"780 88 CURVE SMOOTH",
"658 292 LINE",
"734 330 OFFCURVE",
"801 402 OFFCURVE",
"801 496 CURVE SMOOTH",
"801 596 OFFCURVE",
"722 650 OFFCURVE",
"589 650 CURVE SMOOTH",
"529 650 LINE",
"534 669 OFFCURVE",
"539 687 OFFCURVE",
"547 709 CURVE"
);
},
{
closed = 1;
nodes = (
"566 585 LINE SMOOTH",
"621 585 OFFCURVE",
"652 561 OFFCURVE",
"652 502 CURVE SMOOTH",
"652 383 OFFCURVE",
"603 329 OFFCURVE",
"533 329 CURVE SMOOTH",
"481 329 LINE",
"491 393 OFFCURVE",
"501 464 OFFCURVE",
"512 541 CURVE SMOOTH",
"518 585 LINE"
);
}
);
width = 846;
}
);
note = R.swsh;
},
{
glyphname = S.swsh;
layers = (
{
layerId = "F05DF1C3-6E5D-4CAE-86D8-BB1A1E5E50BF";
paths = (
{
closed = 1;
nodes = (
"469 406 LINE",
"511 444 OFFCURVE",
"531 488 OFFCURVE",
"531 529 CURVE SMOOTH",
"531 599 OFFCURVE",
"474 659 OFFCURVE",
"371 659 CURVE SMOOTH",
"235 659 OFFCURVE",
"147 576 OFFCURVE",
"147 435 CURVE SMOOTH",
"147 254 OFFCURVE",
"406 248 OFFCURVE",
"406 103 CURVE SMOOTH",
"406 14 OFFCURVE",
"343 -61 OFFCURVE",
"240 -61 CURVE SMOOTH",
"151 -61 OFFCURVE",
"107 -11 OFFCURVE",
"107 46 CURVE SMOOTH",
"107 83 OFFCURVE",
"125 122 OFFCURVE",
"161 153 CURVE",
"125 170 LINE",
"81 130 OFFCURVE",
"57 79 OFFCURVE",
"57 31 CURVE SMOOTH",
"57 -43 OFFCURVE",
"114 -109 OFFCURVE",
"240 -109 CURVE SMOOTH",
"380 -109 OFFCURVE",
"484 -18 OFFCURVE",
"484 126 CURVE SMOOTH",
"484 313 OFFCURVE",
"225 316 OFFCURVE",
"225 463 CURVE SMOOTH",
"225 556 OFFCURVE",
"279 613 OFFCURVE",
"367 613 CURVE SMOOTH",
"439 613 OFFCURVE",
"482 571 OFFCURVE",
"482 519 CURVE SMOOTH",
"482 489 OFFCURVE",
"467 455 OFFCURVE",
"434 425 CURVE"
);
}
);
width = 510;
},
{
layerId = "640DAD6F-C00E-41F4-8D6C-450924326D1A";
paths = (
{
closed = 1;
nodes = (
"492 401 LINE",
"531 436 OFFCURVE",
"550 480 OFFCURVE",
"550 522 CURVE SMOOTH",
"550 595 OFFCURVE",
"491 660 OFFCURVE",
"377 660 CURVE SMOOTH",
"232 660 OFFCURVE",
"129 574 OFFCURVE",
"129 417 CURVE SMOOTH",
"129 238 OFFCURVE",
"357 199 OFFCURVE",
"357 85 CURVE SMOOTH",
"357 22 OFFCURVE",
"317 -37 OFFCURVE",
"232 -37 CURVE SMOOTH",
"160 -37 OFFCURVE",
"127 5 OFFCURVE",
"127 52 CURVE SMOOTH",
"127 85 OFFCURVE",
"143 121 OFFCURVE",
"174 147 CURVE",
"117 172 LINE",
"75 133 OFFCURVE",
"50 80 OFFCURVE",
"50 31 CURVE SMOOTH",
"50 -43 OFFCURVE",
"106 -110 OFFCURVE",
"241 -110 CURVE SMOOTH",
"378 -110 OFFCURVE",
"502 -28 OFFCURVE",
"502 136 CURVE SMOOTH",
"502 320 OFFCURVE",
"272 350 OFFCURVE",
"272 475 CURVE SMOOTH",
"272 548 OFFCURVE",
"312 590 OFFCURVE",
"376 590 CURVE SMOOTH",
"440 590 OFFCURVE",
"473 553 OFFCURVE",
"473 509 CURVE SMOOTH",
"473 482 OFFCURVE",
"461 453 OFFCURVE",
"436 429 CURVE"
);
}
);
width = 512;
}
);
note = S.swsh;
},
{
glyphname = T.swsh;
layers = (
{
layerId = "F05DF1C3-6E5D-4CAE-86D8-BB1A1E5E50BF";
paths = (
{
closed = 1;
nodes = (
"342 0 LINE",
"426 597 LINE",
"469 584 OFFCURVE",
"511 573 OFFCURVE",
"548 573 CURVE SMOOTH",
"606 573 OFFCURVE",
"651 600 OFFCURVE",
"661 690 CURVE",
"619 697 LINE",
"611 635 OFFCURVE",
"578 616 OFFCURVE",
"533 616 CURVE SMOOTH",
"503 616 OFFCURVE",
"468 624 OFFCURVE",
"431 635 CURVE",
"432 639 LINE",
"428 639 OFFCURVE",
"425 639 OFFCURVE",
"421 638 CURVE",
"358 658 OFFCURVE",
"289 683 OFFCURVE",
"233 683 CURVE SMOOTH",
"175 683 OFFCURVE",
"130 655 OFFCURVE",
"120 565 CURVE",
"163 562 LINE",
"170 622 OFFCURVE",
"202 642 OFFCURVE",
"246 642 CURVE SMOOTH",
"282 642 OFFCURVE",
"326 629 OFFCURVE",
"371 615 CURVE",
"358 601 OFFCURVE",
"348 582 OFFCURVE",
"345 558 CURVE SMOOTH",
"266 0 LINE"
);
}
);
width = 535;
},
{
layerId = "640DAD6F-C00E-41F4-8D6C-450924326D1A";
paths = (
{
closed = 1;
nodes = (
"396 0 LINE",
"477 570 LINE",
"509 563 OFFCURVE",
"539 558 OFFCURVE",
"568 558 CURVE SMOOTH",
"638 558 OFFCURVE",
"693 589 OFFCURVE",
"705 699 CURVE",
"641 709 LINE",
"633 645 OFFCURVE",
"597 625 OFFCURVE",
"547 625 CURVE SMOOTH",
"466 625 OFFCURVE",
"347 678 OFFCURVE",
"255 678 CURVE SMOOTH",
"184 678 OFFCURVE",
"129 647 OFFCURVE",
"116 535 CURVE",
"181 532 LINE",
"188 595 OFFCURVE",
"223 614 OFFCURVE",
"271 614 CURVE SMOOTH",
"303 614 OFFCURVE",
"341 606 OFFCURVE",
"381 595 CURVE",
"353 571 OFFCURVE",
"333 533 OFFCURVE",
"326 482 CURVE SMOOTH",
"258 0 LINE"
);
}
);
width = 585;
}
);
note = T.swsh;
},
{
glyphname = U.swsh;
layers = (
{
layerId = "F05DF1C3-6E5D-4CAE-86D8-BB1A1E5E50BF";
paths = (
{
closed = 1;
nodes = (
"692 -10 OFFCURVE",
"773 83 OFFCURVE",
"792 212 CURVE SMOOTH",
"853 650 LINE",
"798 650 LINE",
"739 229 LINE SMOOTH",
"723 112 OFFCURVE",
"659 41 OFFCURVE",
"552 41 CURVE SMOOTH",
"463 41 OFFCURVE",
"418 91 OFFCURVE",
"418 181 CURVE SMOOTH",
"418 196 OFFCURVE",
"420 212 OFFCURVE",
"422 229 CURVE SMOOTH",
"481 650 LINE",
"479 645 LINE",
"480 650 LINE",
"412 650 LINE SMOOTH",
"233 650 OFFCURVE",
"98 552 OFFCURVE",
"98 395 CURVE SMOOTH",
"98 368 OFFCURVE",
"102 338 OFFCURVE",
"111 308 CURVE",
"162 322 LINE",
"155 349 OFFCURVE",
"151 374 OFFCURVE",
"151 398 CURVE SMOOTH",
"151 528 OFFCURVE",
"257 607 OFFCURVE",
"405 607 CURVE",
"399 596 OFFCURVE",
"395 583 OFFCURVE",
"393 569 CURVE SMOOTH",
"343 212 LINE SMOOTH",
"341 197 OFFCURVE",
"340 182 OFFCURVE",
"340 168 CURVE SMOOTH",
"340 59 OFFCURVE",
"403 -10 OFFCURVE",
"536 -10 CURVE SMOOTH"
);
}
);
width = 848;
},
{
layerId = "640DAD6F-C00E-41F4-8D6C-450924326D1A";
paths = (
{
closed = 1;
nodes = (
"729 -11 OFFCURVE",
"806 88 OFFCURVE",
"827 236 CURVE SMOOTH",
"885 650 LINE",
"800 650 LINE",
"746 267 LINE SMOOTH",
"727 129 OFFCURVE",
"676 65 OFFCURVE",
"586 65 CURVE SMOOTH",
"520 65 OFFCURVE",
"487 101 OFFCURVE",
"487 190 CURVE SMOOTH",
"487 212 OFFCURVE",
"489 238 OFFCURVE",
"493 267 CURVE SMOOTH",
"546 650 LINE",
"426 650 LINE SMOOTH",
"228 650 OFFCURVE",
"94 518 OFFCURVE",
"94 362 CURVE SMOOTH",
"94 338 OFFCURVE",
"98 314 OFFCURVE",
"104 289 CURVE",
"181 309 LINE",
"176 328 OFFCURVE",
"174 348 OFFCURVE",
"174 367 CURVE SMOOTH",
"174 483 OFFCURVE",
"263 586 OFFCURVE",
"416 586 CURVE SMOOTH",
"417 586 LINE",
"402 563 OFFCURVE",
"391 535 OFFCURVE",
"387 500 CURVE SMOOTH",
"349 236 LINE SMOOTH",
"346 217 OFFCURVE",
"345 198 OFFCURVE",
"345 181 CURVE SMOOTH",
"345 58 OFFCURVE",
"412 -11 OFFCURVE",
"553 -11 CURVE SMOOTH"
);
}
);
width = 862;
}
);
note = U.swsh;
},
{
glyphname = V.swsh;
layers = (
{
layerId = "F05DF1C3-6E5D-4CAE-86D8-BB1A1E5E50BF";
paths = (
{
closed = 1;
nodes = (
"477 660 LINE",
"462 654 OFFCURVE",
"434 650 OFFCURVE",
"411 650 CURVE SMOOTH",
"236 649 OFFCURVE",
"99 550 OFFCURVE",
"99 393 CURVE SMOOTH",
"99 366 OFFCURVE",
"103 338 OFFCURVE",
"111 308 CURVE",
"161 322 LINE",
"154 349 OFFCURVE",
"150 374 OFFCURVE",
"150 397 CURVE SMOOTH",
"150 523 OFFCURVE",
"252 600 OFFCURVE",
"403 606 CURVE",
"517 0 LINE",
"605 0 LINE",
"912 650 LINE",
"856 650 LINE",
"581 56 LINE",
"478 631 LINE"
);
}
);
width = 838;
},
{
layerId = "640DAD6F-C00E-41F4-8D6C-450924326D1A";
paths = (
{
closed = 1;
nodes = (
"545 665 LINE",
"518 655 OFFCURVE",
"468 650 OFFCURVE",
"435 650 CURVE SMOOTH",
"242 647 OFFCURVE",
"93 513 OFFCURVE",
"93 355 CURVE SMOOTH",
"93 333 OFFCURVE",
"96 311 OFFCURVE",
"102 289 CURVE",
"179 309 LINE",
"174 327 OFFCURVE",
"172 345 OFFCURVE",
"172 362 CURVE SMOOTH",
"172 471 OFFCURVE",
"259 566 OFFCURVE",
"407 583 CURVE",
"501 0 LINE",
"654 0 LINE",
"955 650 LINE",
"868 650 LINE",
"623 101 LINE",
"621 101 LINE",
"547 620 LINE"
);
}
);
width = 873;
}
);
note = V.swsh;
},
{
glyphname = W.swsh;
layers = (
{
layerId = "F05DF1C3-6E5D-4CAE-86D8-BB1A1E5E50BF";
paths = (
{
closed = 1;
nodes = (
"1156 650 LINE",
"933 90 LINE",
"850 650 LINE",
"784 650 LINE",
"546 89 LINE",
"477 638 LINE",
"477 660 LINE",
"463 654 OFFCURVE",
"434 650 OFFCURVE",
"411 650 CURVE SMOOTH",
"236 649 OFFCURVE",
"99 550 OFFCURVE",
"99 393 CURVE SMOOTH",
"99 366 OFFCURVE",
"103 338 OFFCURVE",
"111 308 CURVE",
"161 322 LINE",
"154 349 OFFCURVE",
"150 374 OFFCURVE",
"150 397 CURVE SMOOTH",
"150 522 OFFCURVE",
"251 599 OFFCURVE",
"402 606 CURVE",
"484 0 LINE",
"554 0 LINE",
"792 556 LINE",
"876 0 LINE",
"946 0 LINE",
"1212 650 LINE"
);
}
);
width = 1138;
},
{
layerId = "640DAD6F-C00E-41F4-8D6C-450924326D1A";
paths = (
{
closed = 1;
nodes = (
"1164 650 LINE",
"981 161 LINE",
"979 161 LINE",
"910 650 LINE",
"799 650 LINE",
"597 158 LINE",
"595 158 LINE",
"546 630 LINE",
"546 665 LINE",
"518 655 OFFCURVE",
"468 650 OFFCURVE",
"435 650 CURVE SMOOTH",
"242 647 OFFCURVE",
"93 513 OFFCURVE",
"93 355 CURVE SMOOTH",
"93 333 OFFCURVE",
"96 311 OFFCURVE",
"102 289 CURVE",
"179 309 LINE",
"174 327 OFFCURVE",
"172 345 OFFCURVE",
"172 362 CURVE SMOOTH",
"172 470 OFFCURVE",
"259 565 OFFCURVE",
"405 583 CURVE",
"479 0 LINE",
"599 0 LINE",
"800 480 LINE",
"803 480 LINE",
"872 0 LINE",
"990 0 LINE",
"1251 650 LINE"
);
}
);
width = 1169;
}
);
note = W.swsh;
},
{
glyphname = X.swsh;
layers = (
{
layerId = "F05DF1C3-6E5D-4CAE-86D8-BB1A1E5E50BF";
paths = (
{
closed = 1;
nodes = (
"473 660 LINE",
"458 654 OFFCURVE",
"434 650 OFFCURVE",
"411 650 CURVE SMOOTH",
"236 649 OFFCURVE",
"99 550 OFFCURVE",
"99 393 CURVE SMOOTH",
"99 366 OFFCURVE",
"103 338 OFFCURVE",
"111 308 CURVE",
"161 322 LINE",
"154 349 OFFCURVE",
"150 374 OFFCURVE",
"150 398 CURVE SMOOTH",
"150 522 OFFCURVE",
"249 598 OFFCURVE",
"398 606 CURVE",
"540 332 LINE",
"277 0 LINE",
"344 0 LINE",
"564 286 LINE",
"693 37 LINE",
"735 -53 OFFCURVE",
"787 -86 OFFCURVE",
"860 -86 CURVE SMOOTH",
"910 -86 OFFCURVE",
"936 -65 OFFCURVE",
"936 -65 CURVE",
"931 -31 LINE",
"931 -31 OFFCURVE",
"912 -44 OFFCURVE",
"888 -44 CURVE SMOOTH",
"841 -44 OFFCURVE",
"810 -6 OFFCURVE",
"768 76 CURVE SMOOTH",
"623 343 LINE",
"860 650 LINE",
"796 650 LINE",
"601 388 LINE",
"477 632 LINE"
);
}
);
width = 840;
},
{
layerId = "640DAD6F-C00E-41F4-8D6C-450924326D1A";
paths = (
{
closed = 1;
nodes = (
"539 665 LINE",
"511 655 OFFCURVE",
"468 650 OFFCURVE",
"435 650 CURVE SMOOTH",
"242 647 OFFCURVE",
"93 513 OFFCURVE",
"93 355 CURVE SMOOTH",
"93 333 OFFCURVE",
"96 311 OFFCURVE",
"102 289 CURVE",
"179 309 LINE",
"174 327 OFFCURVE",
"172 345 OFFCURVE",
"172 362 CURVE SMOOTH",
"172 467 OFFCURVE",
"254 559 OFFCURVE",
"391 581 CURVE",
"514 325 LINE",
"259 0 LINE",
"363 0 LINE",
"551 254 LINE",
"552 254 LINE",
"647 41 LINE SMOOTH",
"694 -73 OFFCURVE",
"770 -109 OFFCURVE",
"864 -109 CURVE SMOOTH",
"932 -109 OFFCURVE",
"968 -79 OFFCURVE",
"968 -79 CURVE",
"961 -30 LINE",
"961 -30 OFFCURVE",
"941 -43 OFFCURVE",
"918 -43 CURVE SMOOTH",
"870 -43 OFFCURVE",
"832 13 OFFCURVE",
"785 115 CURVE SMOOTH",
"666 357 LINE",
"892 650 LINE",
"794 650 LINE",
"632 427 LINE",
"630 427 LINE",
"545 621 LINE"
);
}
);
width = 872;
}
);
note = X.swsh;
},
{
glyphname = Y.swsh;
layers = (
{
layerId = "F05DF1C3-6E5D-4CAE-86D8-BB1A1E5E50BF";
paths = (
{
closed = 1;
nodes = (
"473 660 LINE",
"458 654 OFFCURVE",
"434 650 OFFCURVE",
"411 650 CURVE SMOOTH",
"236 649 OFFCURVE",
"99 550 OFFCURVE",
"99 393 CURVE SMOOTH",
"99 366 OFFCURVE",
"103 338 OFFCURVE",
"111 308 CURVE",
"161 322 LINE",
"154 349 OFFCURVE",
"150 374 OFFCURVE",
"150 397 CURVE SMOOTH",
"150 523 OFFCURVE",
"251 600 OFFCURVE",
"403 606 CURVE",
"546 269 LINE",
"509 0 LINE",
"585 0 LINE",
"623 275 LINE",
"889 650 LINE",
"828 650 LINE",
"604 330 LINE",
"477 631 LINE"
);
}
);
width = 799;
},
{
layerId = "640DAD6F-C00E-41F4-8D6C-450924326D1A";
paths = (
{
closed = 1;
nodes = (
"539 665 LINE",
"511 655 OFFCURVE",
"468 650 OFFCURVE",
"435 650 CURVE SMOOTH",
"242 647 OFFCURVE",
"93 513 OFFCURVE",
"93 355 CURVE SMOOTH",
"93 333 OFFCURVE",
"96 311 OFFCURVE",
"102 289 CURVE",
"179 309 LINE",
"174 327 OFFCURVE",
"172 345 OFFCURVE",
"172 362 CURVE SMOOTH",
"172 470 OFFCURVE",
"258 564 OFFCURVE",
"403 583 CURVE",
"526 251 LINE",
"491 0 LINE",
"629 0 LINE",
"666 265 LINE",
"917 650 LINE",
"821 650 LINE",
"638 355 LINE",
"637 355 LINE",
"546 618 LINE"
);
}
);
width = 819;
}
);
note = Y.swsh;
},
{
glyphname = Z.swsh;
layers = (
{
layerId = "F05DF1C3-6E5D-4CAE-86D8-BB1A1E5E50BF";
paths = (
{
closed = 1;
nodes = (
"514 99 LINE",
"504 25 OFFCURVE",
"472 -5 OFFCURVE",
"426 -5 CURVE SMOOTH",
"361 -5 OFFCURVE",
"191 40 OFFCURVE",
"128 46 CURVE",
"301 204 OFFCURVE",
"455 424 OFFCURVE",
"590 609 CURVE",
"596 650 LINE",
"160 650 LINE",
"154 602 LINE",
"498 602 LINE",
"359 413 OFFCURVE",
"208 212 OFFCURVE",
"46 38 CURVE",
"45 -10 LINE",
"57 -6 OFFCURVE",
"94 0 OFFCURVE",
"111 0 CURVE SMOOTH",
"160 0 OFFCURVE",
"346 -54 OFFCURVE",
"424 -54 CURVE SMOOTH",
"504 -54 OFFCURVE",
"544 -4 OFFCURVE",
"556 93 CURVE"
);
}
);
width = 547;
},
{
layerId = "640DAD6F-C00E-41F4-8D6C-450924326D1A";
paths = (
{
closed = 1;
nodes = (
"535 140 LINE",
"525 69 OFFCURVE",
"486 33 OFFCURVE",
"432 33 CURVE SMOOTH",
"376 33 OFFCURVE",
"263 52 OFFCURVE",
"191 63 CURVE",
"356 199 OFFCURVE",
"499 420 OFFCURVE",
"624 590 CURVE",
"633 650 LINE",
"171 650 LINE",
"161 578 LINE",
"457 578 LINE",
"330 404 OFFCURVE",
"200 226 OFFCURVE",
"51 60 CURVE",
"51 -11 LINE",
"66 -6 OFFCURVE",
"100 0 OFFCURVE",
"123 0 CURVE SMOOTH",
"156 0 OFFCURVE",
"338 -43 OFFCURVE",
"427 -43 CURVE SMOOTH",
"533 -43 OFFCURVE",
"587 24 OFFCURVE",
"599 132 CURVE"
);
}
);
width = 587;
}
);
note = Z.swsh;
},
{
glyphname = a;
layers = (
{
anchors = (
{
name = bottom;
position = "{260, 0}";
},
{
name = ogonek;
position = "{423, 10}";
},
{
name = top;
position = "{334, 500}";
}
);
layerId = "F05DF1C3-6E5D-4CAE-86D8-BB1A1E5E50BF";
paths = (
{
closed = 1;
nodes = (
"511 500 LINE",
"453 500 LINE",
"436 457 LINE",
"433 463 OFFCURVE",
"406 510 OFFCURVE",
"319 510 CURVE SMOOTH",
"157 510 OFFCURVE",
"66 367 OFFCURVE",
"66 191 CURVE SMOOTH",
"66 63 OFFCURVE",
"133 -10 OFFCURVE",
"236 -10 CURVE SMOOTH",
"328 -10 OFFCURVE",
"369 43 OFFCURVE",
"379 58 CURVE",
"383 0 LINE",
"441 0 LINE"
);
},
{
closed = 1;
nodes = (
"187 39 OFFCURVE",
"142 87 OFFCURVE",
"142 186 CURVE SMOOTH",
"142 351 OFFCURVE",
"204 462 OFFCURVE",
"328 462 CURVE SMOOTH",
"401 462 OFFCURVE",
"425 412 OFFCURVE",
"426 409 CURVE",
"382 106 LINE",
"374 94 OFFCURVE",
"334 39 OFFCURVE",
"260 39 CURVE SMOOTH"
);
}
);
width = 515;
},
{
anchors = (
{
name = bottom;
position = "{271, 0}";
},
{
name = ogonek;
position = "{448, 10}";
},
{
name = top;
position = "{359, 500}";
}
);
layerId = "640DAD6F-C00E-41F4-8D6C-450924326D1A";
paths = (
{
closed = 1;
nodes = (
"554 500 LINE",
"456 500 LINE",
"432 470 LINE",
"428 470 LINE SMOOTH",
"428 470 OFFCURVE",
"409 511 OFFCURVE",
"317 511 CURVE SMOOTH",
"164 511 OFFCURVE",
"59 374 OFFCURVE",
"59 195 CURVE SMOOTH",
"59 67 OFFCURVE",
"129 -11 OFFCURVE",
"234 -11 CURVE SMOOTH",
"336 -11 OFFCURVE",
"365 44 OFFCURVE",
"365 44 CURVE",
"366 44 LINE",
"382 0 LINE",
"484 0 LINE"
);
},
{
closed = 1;
nodes = (
"228 67 OFFCURVE",
"199 100 OFFCURVE",
"199 175 CURVE SMOOTH",
"199 353 OFFCURVE",
"253 435 OFFCURVE",
"335 435 CURVE SMOOTH",
"391 435 OFFCURVE",
"404 399 OFFCURVE",
"406 395 CURVE",
"365 112 LINE",
"359 103 OFFCURVE",
"330 67 OFFCURVE",
"277 67 CURVE SMOOTH"
);
}
);
width = 542;
}
);
note = a;
unicode = 0061;
},
{
color = 9;
glyphname = aacute;
layers = (
{
layerId = "F05DF1C3-6E5D-4CAE-86D8-BB1A1E5E50BF";
paths = (
{
closed = 1;
nodes = (
"511 500 LINE",
"453 500 LINE",
"436 457 LINE",
"433 463 OFFCURVE",
"406 510 OFFCURVE",
"319 510 CURVE SMOOTH",
"157 510 OFFCURVE",
"66 367 OFFCURVE",
"66 191 CURVE SMOOTH",
"66 63 OFFCURVE",
"133 -10 OFFCURVE",
"236 -10 CURVE SMOOTH",
"328 -10 OFFCURVE",
"369 43 OFFCURVE",
"379 58 CURVE",
"383 0 LINE",
"441 0 LINE"
);
},
{
closed = 1;
nodes = (
"187 39 OFFCURVE",
"142 87 OFFCURVE",
"142 186 CURVE SMOOTH",
"142 351 OFFCURVE",
"204 462 OFFCURVE",
"328 462 CURVE SMOOTH",
"401 462 OFFCURVE",
"425 412 OFFCURVE",
"426 409 CURVE",
"382 106 LINE",
"374 94 OFFCURVE",
"334 39 OFFCURVE",
"260 39 CURVE SMOOTH"
);
},
{
closed = 1;
nodes = (
"418 721 LINE",
"322 576 LINE",
"359 571 LINE",
"479 706 LINE"
);
}
);
width = 515;
},
{
layerId = "640DAD6F-C00E-41F4-8D6C-450924326D1A";
paths = (
{
closed = 1;
nodes = (
"554 500 LINE",
"456 500 LINE",
"432 470 LINE",
"428 470 LINE SMOOTH",
"428 470 OFFCURVE",
"409 511 OFFCURVE",
"317 511 CURVE SMOOTH",
"164 511 OFFCURVE",
"59 374 OFFCURVE",
"59 195 CURVE SMOOTH",
"59 67 OFFCURVE",
"129 -11 OFFCURVE",
"234 -11 CURVE SMOOTH",
"336 -11 OFFCURVE",
"365 44 OFFCURVE",
"365 44 CURVE",
"366 44 LINE",
"382 0 LINE",
"484 0 LINE"
);
},
{
closed = 1;
nodes = (
"228 67 OFFCURVE",
"199 100 OFFCURVE",
"199 175 CURVE SMOOTH",
"199 353 OFFCURVE",
"253 435 OFFCURVE",
"335 435 CURVE SMOOTH",
"391 435 OFFCURVE",
"404 399 OFFCURVE",
"406 395 CURVE",
"365 112 LINE",
"359 103 OFFCURVE",
"330 67 OFFCURVE",
"277 67 CURVE SMOOTH"
);
},
{
closed = 1;
nodes = (
"413 730 LINE",
"322 578 LINE",
"378 569 LINE",
"517 699 LINE"
);
}
);
width = 542;
}
);
note = aacute;
unicode = 00E1;
},
{
color = 9;
glyphname = abreve;
layers = (
{
layerId = "F05DF1C3-6E5D-4CAE-86D8-BB1A1E5E50BF";
paths = (
{
closed = 1;
nodes = (
"511 500 LINE",
"453 500 LINE",
"436 457 LINE",
"433 463 OFFCURVE",
"406 510 OFFCURVE",
"319 510 CURVE SMOOTH",
"157 510 OFFCURVE",
"66 367 OFFCURVE",
"66 191 CURVE SMOOTH",
"66 63 OFFCURVE",
"133 -10 OFFCURVE",
"236 -10 CURVE SMOOTH",
"328 -10 OFFCURVE",
"369 43 OFFCURVE",
"379 58 CURVE",
"383 0 LINE",
"441 0 LINE"
);
},
{
closed = 1;
nodes = (
"187 39 OFFCURVE",
"142 87 OFFCURVE",
"142 186 CURVE SMOOTH",
"142 351 OFFCURVE",
"204 462 OFFCURVE",
"328 462 CURVE SMOOTH",
"401 462 OFFCURVE",
"425 412 OFFCURVE",
"426 409 CURVE",
"382 106 LINE",
"374 94 OFFCURVE",
"334 39 OFFCURVE",
"260 39 CURVE SMOOTH"
);
},
{
closed = 1;
nodes = (
"280 620 OFFCURVE",
"276 679 OFFCURVE",
"276 679 CURVE",
"276 681 LINE",
"230 675 LINE",
"230 675 OFFCURVE",
"227 576 OFFCURVE",
"354 576 CURVE SMOOTH",
"481 576 OFFCURVE",
"507 675 OFFCURVE",
"507 675 CURVE",
"462 681 LINE",
"462 679 LINE",
"462 679 OFFCURVE",
"441 620 OFFCURVE",
"360 620 CURVE SMOOTH"
);
}
);
width = 515;
},
{
layerId = "640DAD6F-C00E-41F4-8D6C-450924326D1A";
paths = (
{
closed = 1;
nodes = (
"554 500 LINE",
"456 500 LINE",
"432 470 LINE",
"428 470 LINE SMOOTH",
"428 470 OFFCURVE",
"409 511 OFFCURVE",
"317 511 CURVE SMOOTH",
"164 511 OFFCURVE",
"59 374 OFFCURVE",
"59 195 CURVE SMOOTH",
"59 67 OFFCURVE",
"129 -11 OFFCURVE",
"234 -11 CURVE SMOOTH",
"336 -11 OFFCURVE",
"365 44 OFFCURVE",
"365 44 CURVE",
"366 44 LINE",
"382 0 LINE",
"484 0 LINE"
);
},
{
closed = 1;
nodes = (
"228 67 OFFCURVE",
"199 100 OFFCURVE",
"199 175 CURVE SMOOTH",
"199 353 OFFCURVE",
"253 435 OFFCURVE",
"335 435 CURVE SMOOTH",
"391 435 OFFCURVE",
"404 399 OFFCURVE",
"406 395 CURVE",
"365 112 LINE",
"359 103 OFFCURVE",
"330 67 OFFCURVE",
"277 67 CURVE SMOOTH"
);
},
{
closed = 1;
nodes = (
"296 636 OFFCURVE",
"300 691 OFFCURVE",
"300 691 CURVE",
"300 695 LINE",
"233 686 LINE",
"233 686 OFFCURVE",
"232 679 OFFCURVE",
"232 670 CURVE SMOOTH",
"232 637 OFFCURVE",
"245 563 OFFCURVE",
"365 563 CURVE SMOOTH",
"520 563 OFFCURVE",
"533 686 OFFCURVE",
"533 686 CURVE",
"468 695 LINE",
"467 691 LINE",
"467 691 OFFCURVE",
"456 636 OFFCURVE",
"376 636 CURVE SMOOTH"
);
}
);
width = 542;
}
);
note = abreve;
unicode = 0103;
},
{
color = 9;
glyphname = acircumflex;
layers = (
{
layerId = "F05DF1C3-6E5D-4CAE-86D8-BB1A1E5E50BF";
paths = (
{
closed = 1;
nodes = (
"511 500 LINE",
"453 500 LINE",
"436 457 LINE",
"433 463 OFFCURVE",
"406 510 OFFCURVE",
"319 510 CURVE SMOOTH",
"157 510 OFFCURVE",
"66 367 OFFCURVE",
"66 191 CURVE SMOOTH",
"66 63 OFFCURVE",
"133 -10 OFFCURVE",
"236 -10 CURVE SMOOTH",
"328 -10 OFFCURVE",
"369 43 OFFCURVE",
"379 58 CURVE",
"383 0 LINE",
"441 0 LINE"
);
},
{
closed = 1;
nodes = (
"187 39 OFFCURVE",
"142 87 OFFCURVE",
"142 186 CURVE SMOOTH",
"142 351 OFFCURVE",
"204 462 OFFCURVE",
"328 462 CURVE SMOOTH",
"401 462 OFFCURVE",
"425 412 OFFCURVE",
"426 409 CURVE",
"382 106 LINE",
"374 94 OFFCURVE",
"334 39 OFFCURVE",
"260 39 CURVE SMOOTH"
);
},
{
closed = 1;
nodes = (
"397 743 LINE",
"357 743 LINE",
"232 629 LINE",
"247 597 LINE",
"370 694 LINE",
"466 597 LINE",
"489 629 LINE"
);
}
);
width = 515;
},
{
layerId = "640DAD6F-C00E-41F4-8D6C-450924326D1A";
paths = (
{
closed = 1;
nodes = (
"554 500 LINE",
"456 500 LINE",
"432 470 LINE",
"428 470 LINE SMOOTH",
"428 470 OFFCURVE",
"409 511 OFFCURVE",
"317 511 CURVE SMOOTH",
"164 511 OFFCURVE",
"59 374 OFFCURVE",
"59 195 CURVE SMOOTH",
"59 67 OFFCURVE",
"129 -11 OFFCURVE",
"234 -11 CURVE SMOOTH",
"336 -11 OFFCURVE",
"365 44 OFFCURVE",
"365 44 CURVE",
"366 44 LINE",
"382 0 LINE",
"484 0 LINE"
);
},
{
closed = 1;
nodes = (
"228 67 OFFCURVE",
"199 100 OFFCURVE",
"199 175 CURVE SMOOTH",
"199 353 OFFCURVE",
"253 435 OFFCURVE",
"335 435 CURVE SMOOTH",
"391 435 OFFCURVE",
"404 399 OFFCURVE",
"406 395 CURVE",
"365 112 LINE",
"359 103 OFFCURVE",
"330 67 OFFCURVE",
"277 67 CURVE SMOOTH"
);
},
{
closed = 1;
nodes = (
"427 753 LINE",
"357 753 LINE",
"242 631 LINE",
"264 586 LINE",
"381 671 LINE",
"473 586 LINE",
"507 631 LINE"
);
}
);
width = 542;
}
);
note = acircumflex;
unicode = 00E2;
},
{
glyphname = adieresis;
layers = (
{
layerId = "F05DF1C3-6E5D-4CAE-86D8-BB1A1E5E50BF";
paths = (
{
closed = 1;
nodes = (
"511 500 LINE",
"453 500 LINE",
"436 457 LINE",
"433 463 OFFCURVE",
"406 510 OFFCURVE",
"319 510 CURVE SMOOTH",
"157 510 OFFCURVE",
"66 367 OFFCURVE",
"66 191 CURVE SMOOTH",
"66 63 OFFCURVE",
"133 -10 OFFCURVE",
"236 -10 CURVE SMOOTH",
"328 -10 OFFCURVE",
"369 43 OFFCURVE",
"379 58 CURVE",
"383 0 LINE",
"441 0 LINE"
);
},
{
closed = 1;
nodes = (
"187 39 OFFCURVE",
"142 87 OFFCURVE",
"142 186 CURVE SMOOTH",
"142 351 OFFCURVE",
"204 462 OFFCURVE",
"328 462 CURVE SMOOTH",
"401 462 OFFCURVE",
"425 412 OFFCURVE",
"426 409 CURVE",
"382 106 LINE",
"374 94 OFFCURVE",
"334 39 OFFCURVE",
"260 39 CURVE SMOOTH"
);
},
{
closed = 1;
nodes = (
"408 664 OFFCURVE",
"402 651 OFFCURVE",
"402 638 CURVE SMOOTH",
"402 629 OFFCURVE",
"405 621 OFFCURVE",
"410 615 CURVE",
"416 609 OFFCURVE",
"425 605 OFFCURVE",
"434 605 CURVE SMOOTH",
"443 605 OFFCURVE",
"454 609 OFFCURVE",
"462 615 CURVE",
"472 625 OFFCURVE",
"478 638 OFFCURVE",
"478 651 CURVE SMOOTH",
"478 660 OFFCURVE",
"475 668 OFFCURVE",
"470 674 CURVE",
"464 680 OFFCURVE",
"454 684 OFFCURVE",
"445 684 CURVE SMOOTH",
"436 684 OFFCURVE",
"426 680 OFFCURVE",
"418 674 CURVE"
);
},
{
closed = 1;
nodes = (
"254 664 OFFCURVE",
"248 651 OFFCURVE",
"248 638 CURVE SMOOTH",
"248 629 OFFCURVE",
"251 621 OFFCURVE",
"256 615 CURVE",
"262 609 OFFCURVE",
"272 605 OFFCURVE",
"281 605 CURVE SMOOTH",
"290 605 OFFCURVE",
"300 609 OFFCURVE",
"308 615 CURVE",
"318 625 OFFCURVE",
"324 638 OFFCURVE",
"324 651 CURVE SMOOTH",
"324 659 OFFCURVE",
"322 668 OFFCURVE",
"316 674 CURVE SMOOTH",
"310 680 OFFCURVE",
"302 684 OFFCURVE",
"292 684 CURVE SMOOTH",
"282 684 OFFCURVE",
"272 680 OFFCURVE",
"264 674 CURVE"
);
}
);
width = 515;
},
{
layerId = "640DAD6F-C00E-41F4-8D6C-450924326D1A";
paths = (
{
closed = 1;
nodes = (
"554 500 LINE",
"456 500 LINE",
"432 470 LINE",
"428 470 LINE SMOOTH",
"428 470 OFFCURVE",
"409 511 OFFCURVE",
"317 511 CURVE SMOOTH",
"164 511 OFFCURVE",
"59 374 OFFCURVE",
"59 195 CURVE SMOOTH",
"59 67 OFFCURVE",
"129 -11 OFFCURVE",
"234 -11 CURVE SMOOTH",
"336 -11 OFFCURVE",
"365 44 OFFCURVE",
"365 44 CURVE",
"366 44 LINE",
"382 0 LINE",
"484 0 LINE"
);
},
{
closed = 1;
nodes = (
"228 67 OFFCURVE",
"199 100 OFFCURVE",
"199 175 CURVE SMOOTH",
"199 353 OFFCURVE",
"253 435 OFFCURVE",
"335 435 CURVE SMOOTH",
"391 435 OFFCURVE",
"404 399 OFFCURVE",
"406 395 CURVE",
"365 112 LINE",
"359 103 OFFCURVE",
"330 67 OFFCURVE",
"277 67 CURVE SMOOTH"
);
},
{
closed = 1;
nodes = (
"412 687 OFFCURVE",
"402 663 OFFCURVE",
"402 641 CURVE SMOOTH",
"402 626 OFFCURVE",
"407 611 OFFCURVE",
"416 600 CURVE SMOOTH",
"426 588 OFFCURVE",
"441 582 OFFCURVE",
"458 582 CURVE SMOOTH",
"474 582 OFFCURVE",
"492 588 OFFCURVE",
"507 600 CURVE",
"526 617 OFFCURVE",
"536 640 OFFCURVE",
"536 663 CURVE SMOOTH",
"536 678 OFFCURVE",
"531 692 OFFCURVE",
"522 704 CURVE",
"510 715 OFFCURVE",
"495 721 OFFCURVE",
"478 721 CURVE SMOOTH",
"461 721 OFFCURVE",
"444 715 OFFCURVE",
"430 704 CURVE"
);
},
{
closed = 1;
nodes = (
"226 687 OFFCURVE",
"216 663 OFFCURVE",
"216 641 CURVE SMOOTH",
"216 626 OFFCURVE",
"221 611 OFFCURVE",
"230 600 CURVE",
"241 588 OFFCURVE",
"257 582 OFFCURVE",
"273 582 CURVE SMOOTH",
"289 582 OFFCURVE",
"306 588 OFFCURVE",
"321 600 CURVE",
"340 617 OFFCURVE",
"350 640 OFFCURVE",
"350 663 CURVE SMOOTH",
"350 678 OFFCURVE",
"345 692 OFFCURVE",
"336 704 CURVE",
"325 715 OFFCURVE",
"310 721 OFFCURVE",
"293 721 CURVE SMOOTH",
"276 721 OFFCURVE",
"258 715 OFFCURVE",
"244 704 CURVE"
);
}
);
width = 542;
}
);
note = adieresis;
unicode = 00E4;
},
